<svg width="116.69" height="271.51" version="1.1" viewBox="0 0 30.874 71.838" xmlns="http://www.w3.org/2000/svg">
 <g>
  <g transform="scale(1.0064 .9936)" fill-opacity=".4" style="font-variant-caps:normal;font-variant-east-asian:normal;font-variant-ligatures:normal;font-variant-numeric:normal" aria-label="$">
   <path d="m15.58 13.73q-0.56832-0.13562-1.1754-0.47791v0.45207h-1.6791v-2.7899h1.6791q0.14208 0.60707 0.5877 0.94936t1.001 0.34228q0.38103 0 0.55541-0.14208 0.18083-0.14854 0.18083-0.31645 0-0.2777-0.30354-0.4327-0.30354-0.155-0.75561-0.2777-0.44562-0.12271-0.97519-0.27124-0.52957-0.14854-0.98165-0.4327-0.44562-0.28416-0.75561-0.74269-0.30354-0.46499-0.30354-1.2206 0-0.55541 0.23895-0.97519 0.23895-0.42624 0.63936-0.71686 0.40687-0.29062 0.93644-0.44562 0.52957-0.16146 1.1108-0.16146v-1.085h1.311v1.2464q0.31645 0.090415 0.56832 0.20666 0.25187 0.10979 0.41978 0.21312v-0.46499h1.6985v2.7254h-1.6985q-0.038749-0.26479-0.18729-0.48437-0.14208-0.22604-0.34874-0.38103-0.2002-0.16146-0.45207-0.25187-0.25187-0.096873-0.50374-0.096873-0.31645 0-0.52312 0.12271-0.20666 0.11625-0.20666 0.34228 0 0.2777 0.30999 0.42624 0.31645 0.14208 0.76853 0.27124 0.45853 0.12271 1.001 0.2777 0.54249 0.14854 0.99456 0.4327 0.45853 0.28416 0.76853 0.76207 0.30999 0.47145 0.30999 1.24 0 0.56832-0.23895 0.9881-0.2325 0.41332-0.63936 0.69103-0.40041 0.2777-0.92998 0.41978-0.52957 0.13562-1.1108 0.16146v1.0591h-1.311z" fill-opacity=".4" style="font-variant-caps:normal;font-variant-east-asian:normal;font-variant-ligatures:normal;font-variant-numeric:normal"/>
  </g>
  <g transform="scale(.96077 1.0408)" fill-opacity=".4" aria-label=" 3 5 0">
   <path d="m15.934 18.469q-1.0299 0-1.5298 0.22997-0.49994 0.21997-0.7499 0.41995 0.20997 0.02 0.45994 0.10999 0.25997 0.07999 0.46994 0.24997 0.21997 0.15998 0.35996 0.44994 0.14998 0.27996 0.14998 0.70991 0 0.7999-0.57993 1.2798-0.56993 0.47994-1.6798 0.47994-0.52993 0-1.0099-0.15998-0.47994-0.16998-0.84989-0.49994-0.36995-0.33996-0.58992-0.8299-0.20997-0.49994-0.20997-1.1699 0-0.93988 0.46994-1.7098 0.46994-0.7699 1.3498-1.3198 0.87989-0.55993 2.1297-0.84989 1.2498-0.29996 2.8096-0.29996 1.2898 0 2.5397 0.19998 1.2498 0.18998 2.2197 0.65992t1.5598 1.2398q0.59992 0.7699 0.59992 1.8898 0 1.3998-0.82989 2.2497-0.8299 0.84989-2.5097 1.1299v0.10999q1.6798 0.19997 2.7097 1.0899 1.0399 0.88989 1.0399 2.5697 0 0.71991-0.37995 1.4698-0.37995 0.73991-1.2498 1.3498-0.86989 0.59992-2.2797 0.98987-1.4098 0.38995-3.4596 0.38995-1.9498 0-3.3096-0.40995-1.3598-0.40995-2.2097-1.0499-0.84989-0.64992-1.2298-1.4698-0.37995-0.8199-0.37995-1.6598 0-0.66992 0.19997-1.1998 0.20997-0.53993 0.56993-0.89989 0.35995-0.35995 0.83989-0.53993 0.47994-0.17998 1.0099-0.17998 0.67991 0 1.1399 0.17998 0.45994 0.17998 0.72991 0.45994 0.27996 0.27996 0.39995 0.61992 0.12998 0.32996 0.12998 0.63992 0 0.83989-0.50994 1.2898-0.49994 0.44994-1.1099 0.63992 0.99987 0.60992 2.6997 0.60992 1.3998 0 2.0497-0.52993 0.65992-0.52993 0.65992-1.5198 0-0.48994-0.19998-0.83989-0.18998-0.34996-0.50994-0.55993-0.31996-0.21997-0.72991-0.31996-0.40995-0.09999-0.8199-0.09999h-0.70991v-2.1697h0.70991q0.98987 0 1.4798-0.48994t0.48994-1.1499q0-0.50994-0.19998-0.85989-0.18998-0.34996-0.50994-0.54993-0.30996-0.20997-0.73991-0.28996-0.42995-0.07999-0.89989-0.07999z" style="font-variant-caps:normal;font-variant-east-asian:normal;font-variant-ligatures:normal;font-variant-numeric:normal"/>
   <path d="m15.817 44.029q1.2823 0 1.9188-0.67441 0.64592-0.68391 0.64592-1.7383 0-1.1019-0.71241-1.6813-0.70291-0.58892-1.9093-0.58892-0.7979 0-1.2823 0.16148-0.48444 0.16148-0.72191 0.26597h-2.3747v-7.5895h0.40845q0.7409 0.13298 1.3108 0.21847 0.57942 0.07599 1.1589 0.11398 0.58892 0.038 1.2538 0.04749 0.67441 0.0095 1.5863 0.0095 1.0734 0 1.8903-0.019t1.4438-0.05699q0.63642-0.038 1.1399-0.11398 0.50344-0.08549 0.95938-0.19948l0.46544 0.18998q-0.19947 0.82639-0.52243 1.5293-0.31346 0.69341-0.94988 1.1873-0.62692 0.49394-1.6908 0.7789-1.0639 0.28496-2.7167 0.28496-0.96888 0-1.5103-0.04749-0.53193-0.04749-0.88339-0.13298v1.2633q0.18048-0.05699 0.37045-0.09499 0.19948-0.038 0.45594-0.07599 0.26597-0.03799 0.61742-0.05699 0.35146-0.019 0.83589-0.019 1.8238 0 3.0586 0.39895 1.2443 0.39895 1.9757 1.0924 0.7409 0.68391 1.0544 1.5958 0.31346 0.90238 0.31346 1.9093 0 1.0354-0.39895 1.8998t-1.2253 1.5103q-0.82639 0.63642-2.0992 0.99737-1.2633 0.36095-3.0111 0.36095-2.9351 0-4.5879-1.0164-1.6528-1.0259-1.6528-2.8971 0-0.67441 0.20897-1.1778 0.21847-0.51293 0.56993-0.82639 0.35145-0.32296 0.7979-0.47494 0.44644-0.16148 0.89288-0.16148 1.1114 0 1.6528 0.46544 0.54143 0.46544 0.54143 1.2063 0 0.7409-0.42744 1.1209-0.42744 0.37995-1.0069 0.55093 0.46544 0.23747 0.98787 0.36095t1.1684 0.12348z" style="font-variant-caps:normal;font-variant-east-asian:normal;font-variant-ligatures:normal;font-variant-numeric:normal"/>
   <path d="m10.342 54.891q0-1.6558 0.49494-2.9426 0.50394-1.2958 1.3858-2.1687 0.88188-0.88189 2.1057-1.3408 1.2328-0.45894 2.6816-0.45894 1.4578 0 2.6817 0.45894 1.2328 0.45894 2.1147 1.3408 0.88188 0.87289 1.3768 2.1687 0.50394 1.2868 0.50394 2.9426 0 1.6558-0.50394 2.9516-0.49494 1.2868-1.3768 2.1687-0.88188 0.87289-2.1147 1.3318-1.2238 0.45894-2.6817 0.45894-1.4488 0-2.6816-0.45894-1.2238-0.45894-2.1057-1.3318-0.88188-0.88188-1.3858-2.1687-0.49494-1.2958-0.49494-2.9516zm5.2013 0q0 2.1597 0.28796 3.1046 0.29696 0.93588 1.1788 0.93588 0.89088 0 1.1788-0.93588 0.29696-0.94488 0.29696-3.1046t-0.29696-3.0956q-0.28796-0.94488-1.1788-0.94488-0.88188 0-1.1788 0.94488-0.28796 0.93588-0.28796 3.0956z" style="font-variant-caps:normal;font-variant-east-asian:normal;font-variant-ligatures:normal;font-variant-numeric:normal"/>
  </g>
  <g transform="scale(.95225 1.0501)" stroke="#e0e0e0" stroke-opacity=".94" stroke-width=".33073" aria-label=" 3 5 0">
   <path d="m15.158 17.586q-1.0137 0-1.5058 0.22636-0.4921 0.21652-0.73815 0.41336 0.20668 0.01968 0.45273 0.10826 0.25589 0.07874 0.46257 0.24605 0.21652 0.15747 0.35431 0.44289 0.14763 0.27558 0.14763 0.69878 0 0.78736-0.57083 1.2598-0.56099 0.47241-1.6534 0.47241-0.52162 0-0.99404-0.15747-0.47241-0.16731-0.83656-0.4921-0.36415-0.33463-0.58068-0.81688-0.20668-0.4921-0.20668-1.1515 0-0.92514 0.46257-1.683 0.46257-0.75783 1.3287-1.2991 0.86609-0.55115 2.0963-0.83656 1.2302-0.29526 2.7656-0.29526 1.2696 0 2.4999 0.19684 1.2302 0.187 2.1849 0.64957 0.95467 0.46257 1.5353 1.2204 0.59052 0.75783 0.59052 1.8601 0 1.3779-0.81688 2.2144-0.81688 0.83657-2.4703 1.1121v0.10826q1.6534 0.19684 2.6672 1.0728 1.0236 0.87593 1.0236 2.5294 0 0.70862-0.37399 1.4468-0.37399 0.7283-1.2302 1.3287-0.85625 0.59052-2.244 0.97435t-3.4053 0.38384q-1.9192 0-3.2577-0.40352t-2.1751-1.0334q-0.83656-0.63973-1.2106-1.4468-0.37399-0.80704-0.37399-1.6338 0-0.65941 0.19684-1.181 0.20668-0.53146 0.56099-0.88578t0.82672-0.53146q0.47241-0.17716 0.99404-0.17716 0.66925 0 1.122 0.17716 0.45273 0.17716 0.71846 0.45273 0.27557 0.27558 0.39368 0.6102 0.12794 0.32478 0.12794 0.62988 0 0.82672-0.50194 1.2696-0.4921 0.44289-1.0925 0.62988 0.9842 0.60036 2.6573 0.60036 1.3779 0 2.0176-0.52162 0.64957-0.52162 0.64957-1.496 0-0.48226-0.19684-0.82672-0.187-0.34447-0.50194-0.55115-0.31494-0.21652-0.71846-0.31494-0.40352-0.09842-0.80704-0.09842h-0.69878v-2.1357h0.69878q0.97435 0 1.4566-0.48226t0.48226-1.1318q0-0.50194-0.19684-0.84641-0.187-0.34447-0.50194-0.54131-0.3051-0.20668-0.7283-0.28542-0.4232-0.07874-0.88578-0.07874z" style="font-variant-caps:normal;font-variant-east-asian:normal;font-variant-ligatures:normal;font-variant-numeric:normal"/>
   <path d="m15.043 42.746q1.2622 0 1.8887-0.66384 0.63579-0.67319 0.63579-1.711 0-1.0846-0.70124-1.6549-0.69189-0.57969-1.8793-0.57969-0.78538 0-1.2622 0.15895t-0.71059 0.2618h-2.3375v-7.4705h0.40204q0.72928 0.1309 1.2903 0.21504 0.57034 0.0748 1.1407 0.1122 0.57969 0.0374 1.2342 0.04675 0.66384 0.0094 1.5614 0.0094 1.0565 0 1.8606-0.0187 0.80408-0.0187 1.4212-0.0561 0.62644-0.0374 1.122-0.1122 0.49554-0.08415 0.94433-0.19635l0.45814 0.187q-0.19635 0.81343-0.51424 1.5053-0.30854 0.68254-0.93498 1.1687-0.61709 0.48619-1.6643 0.76668t-2.674 0.28049q-0.95368 0-1.4866-0.04675-0.52359-0.04675-0.86953-0.1309v1.2435q0.17765-0.0561 0.36464-0.0935 0.19635-0.0374 0.44879-0.0748 0.2618-0.0374 0.60774-0.0561 0.34594-0.0187 0.82278-0.0187 1.7952 0 3.0106 0.39269 1.2248 0.39269 1.9448 1.0752 0.72928 0.67319 1.0378 1.5708 0.30854 0.88823 0.30854 1.8793 0 1.0191-0.39269 1.87t-1.2061 1.4866q-0.81343 0.62644-2.0663 0.98173-1.2435 0.35529-2.9639 0.35529-2.8891 0-4.516-1.0004-1.6269-1.0098-1.6269-2.8517 0-0.66384 0.2057-1.1594 0.21505-0.50489 0.56099-0.81343 0.34594-0.31789 0.78538-0.46749 0.43944-0.15895 0.87888-0.15895 1.0939 0 1.6269 0.45814 0.53294 0.45814 0.53294 1.1874 0 0.72928-0.42074 1.1033-0.42074 0.37399-0.99108 0.54229 0.45814 0.23374 0.97238 0.35529 0.51424 0.12155 1.15 0.12155z" style="font-variant-caps:normal;font-variant-east-asian:normal;font-variant-ligatures:normal;font-variant-numeric:normal"/>
   <path d="m9.6533 53.437q0-1.6298 0.48718-2.8965 0.49604-1.2755 1.3641-2.1347 0.86806-0.86806 2.0727-1.3198 1.2135-0.45175 2.6396-0.45175 1.435 0 2.6396 0.45175 1.2135 0.45175 2.0816 1.3198 0.86806 0.8592 1.3552 2.1347 0.49604 1.2667 0.49604 2.8965 0 1.6298-0.49604 2.9053-0.48718 1.2667-1.3552 2.1347-0.86806 0.8592-2.0816 1.3109-1.2047 0.45175-2.6396 0.45175-1.4261 0-2.6396-0.45175-1.2047-0.45175-2.0727-1.3109-0.86806-0.86806-1.3641-2.1347-0.48718-1.2755-0.48718-2.9053zm5.1198 0q0 2.1259 0.28345 3.0559 0.29231 0.92121 1.1604 0.92121 0.87692 0 1.1604-0.92121 0.29231-0.93006 0.29231-3.0559 0-2.1259-0.29231-3.0471-0.28345-0.93006-1.1604-0.93006-0.86806 0-1.1604 0.93006-0.28345 0.92121-0.28345 3.0471z" style="font-variant-caps:normal;font-variant-east-asian:normal;font-variant-ligatures:normal;font-variant-numeric:normal"/>
  </g>
  <g stroke="#e0e0e0" stroke-opacity=".94" stroke-width=".33073" style="font-variant-caps:normal;font-variant-east-asian:normal;font-variant-ligatures:normal;font-variant-numeric:normal" aria-label="$">
   <path d="m14.811 12.616q-0.54571-0.13023-1.1286-0.45889v0.43409h-1.6123v-2.6789h1.6123q0.13643 0.58292 0.56432 0.91159 0.42789 0.32867 0.9612 0.32867 0.36588 0 0.53331-0.13643 0.17364-0.14263 0.17364-0.30386 0-0.26666-0.29146-0.41548-0.29146-0.14883-0.72555-0.26666-0.42789-0.11782-0.93639-0.26045-0.5085-0.14263-0.94259-0.41549-0.42789-0.27286-0.72555-0.71315-0.29146-0.44649-0.29146-1.172 0-0.53331 0.22945-0.93639 0.22945-0.40928 0.61393-0.68834 0.39068-0.27906 0.89918-0.42789 0.5085-0.15503 1.0666-0.15503v-1.0418h1.2589v1.1968q0.30386 0.086818 0.54571 0.19844 0.24185 0.10542 0.40308 0.20464v-0.44649h1.6309v2.6169h-1.6309q-0.037207-0.25425-0.17984-0.4651-0.13643-0.21704-0.33487-0.36587-0.19224-0.15503-0.43409-0.24185-0.24185-0.093019-0.4837-0.093019-0.30386 0-0.5023 0.11782-0.19844 0.11162-0.19844 0.32867 0 0.26665 0.29766 0.40928 0.30386 0.13643 0.73795 0.26045 0.44029 0.11782 0.9612 0.26665 0.52091 0.14263 0.955 0.41549 0.44029 0.27286 0.73795 0.73175 0.29766 0.45269 0.29766 1.1906 0 0.54571-0.22945 0.94879-0.22325 0.39688-0.61393 0.66354-0.38448 0.26665-0.89298 0.40308-0.5085 0.13023-1.0666 0.15503v1.017h-1.2589z" stroke="#e0e0e0" stroke-opacity=".94" stroke-width=".33073" style="font-variant-caps:normal;font-variant-east-asian:normal;font-variant-ligatures:normal;font-variant-numeric:normal"/>
  </g>
 </g>
</svg>
