<svg width="116.69" height="271.51" version="1.1" viewBox="0 0 30.874 71.838" xmlns="http://www.w3.org/2000/svg">
 <g transform="matrix(.90678 0 0 .70123 1.0271 -4.7904)" fill="#fffffe" aria-label=" B A N K R U P T">
  <path d="m23.464 17.307q0 3.1107-3.2371 3.4023v0.10693q1.6914 0.03888 2.6635 0.92349 0.97209 0.8846 0.97209 2.5566 0 0.6999-0.16526 1.3804-0.16526 0.67074-0.71935 1.1957-0.54437 0.52493-1.5845 0.85544-1.0304 0.33051-2.7802 0.33051h-10.693v-3.6065q0.85544 0 1.2248-0.22358 0.36939-0.2333 0.36939-0.86516v-4.9188q0-0.64158-0.36939-0.86516-0.36939-0.2333-1.2248-0.2333v-3.6065h11.364q1.3415 0 2.1678 0.30135t1.2734 0.79711q0.44716 0.49577 0.59298 1.1471 0.14581 0.64158 0.14581 1.322zm-6.7657 7.1449q0.81656 0 1.1276-0.31107 0.31107-0.32079 0.31107-1.0596 0-0.73879-0.31107-1.0693-0.31107-0.34023-1.1276-0.34023h-1.4484v2.7802zm-1.4484-4.5008h1.4679q0.6027 0 0.86516-0.37912 0.27218-0.38884 0.27218-0.93321 0-0.51521-0.27218-0.90404-0.26246-0.38884-0.86516-0.38884h-1.4679z" style="font-variant-caps:normal;font-variant-east-asian:normal;font-variant-ligatures:normal;font-variant-numeric:normal"/>
  <path d="m16.017 38.213h-2.7305l-0.12097 0.37156q-0.13825 0.37156 0.01728 0.62214 0.15554 0.24194 0.6567 0.24194h0.49253v3.2057h-5.3832v-3.2057h0.35427q0.62214 0 0.82952-0.24194 0.21602-0.25058 0.41476-0.72583l1.7714-4.3723q0.1901-0.50117 0.06049-0.73447-0.12097-0.24194-0.75175-0.24194h-0.18146v-3.2057h8.8828v3.2057h-0.17282q-0.63942 0-0.76903 0.25058-0.12097 0.25058 0.07777 0.72583l1.7714 4.3723q0.10369 0.24194 0.18146 0.4234 0.08641 0.17282 0.20738 0.30243 0.12097 0.12097 0.31971 0.18146 0.20738 0.06049 0.52709 0.06049h0.35427v3.2057h-7.8545v-3.2057h0.47524q0.49253 0 0.6567-0.24194 0.17282-0.25058 0.03456-0.62214zm-2.2898-1.348h1.8405l-0.86408-2.6527h-0.06913z" style="font-variant-caps:normal;font-variant-east-asian:normal;font-variant-ligatures:normal;font-variant-numeric:normal"/>
  <path d="m22.542 44.335v2.7249q-0.64633 0-0.85198 0.213-0.19831 0.213-0.19831 0.61695v7.2639h-4.4142l-3.8339-6.0006v2.5413q0 0.4774 0.2791 0.60961 0.2791 0.12486 0.92543 0.12486v2.7249h-5.0531v-2.7249q0.64633 0 0.92543-0.16893 0.2791-0.17627 0.2791-0.65368v-3.7164q0-0.48475-0.2791-0.65368-0.2791-0.17627-0.92543-0.17627v-2.7249h5.7729l3.6723 5.7509v-2.1961q0-0.48475-0.20565-0.65368-0.19831-0.17627-0.84464-0.17627v-2.7249z" style="font-variant-caps:normal;font-variant-east-asian:normal;font-variant-ligatures:normal;font-variant-numeric:normal"/>
  <path d="m14.913 60.553 1.2832-0.79712q0.23978-0.12961 0.31107-0.26571 0.07777-0.14257 0.03888-0.25274-0.0324-0.11665-0.1685-0.18794-0.12961-0.07777-0.29811-0.07777v-2.4043h5.2299v2.4043q-0.41476 0-0.72583 0.09073-0.31107 0.08425-0.69343 0.31107l-1.3415 0.79064 2.1775 2.8191q0.11665 0.1685 0.22682 0.30459 0.11665 0.12961 0.24626 0.22682 0.13609 0.09073 0.31107 0.14257 0.18146 0.05185 0.44716 0.05185v2.4043h-5.8779v-2.4043q0.27867 0 0.4018-0.07777 0.12961-0.07777 0.16202-0.18794 0.0324-0.11665-0.0065-0.22034-0.03888-0.11017-0.07777-0.16202l-0.93321-1.1665-0.71287 0.4342v0.73231q0 0.17498 0.01296 0.29163t0.08425 0.2009q0.07129 0.07777 0.20738 0.11665 0.14257 0.03888 0.38236 0.03888v2.4043h-5.5733v-2.4043q0.57029 0 0.81656-0.14905 0.24626-0.15554 0.24626-0.57678v-3.2792q0-0.42772-0.24626-0.57678-0.24626-0.15554-0.81656-0.15554v-2.4043h5.5733v2.4043q-0.23978 0-0.38236 0.03888-0.13609 0.03888-0.20738 0.12313-0.07129 0.07777-0.08425 0.2009-0.01296 0.11665-0.01296 0.29163z" style="font-variant-caps:normal;font-variant-east-asian:normal;font-variant-ligatures:normal;font-variant-numeric:normal"/>
  <path d="m10.72 76.252v-2.244q0.53228 0 0.76212-0.13912 0.22985-0.14517 0.22985-0.53832v-3.0606q0-0.39921-0.22985-0.53832-0.22985-0.14517-0.76212-0.14517v-2.244h6.4054q0.88914 0 1.494 0.17541 0.61091 0.17541 0.97382 0.50203 0.36896 0.32662 0.52018 0.78027 0.15726 0.45364 0.15726 1.0101 0 1.0162-0.48994 1.6271-0.48994 0.60486-1.5666 0.65325v0.07258q0.52018 0.03629 0.8589 0.19355 0.34477 0.15726 0.53832 0.4113 0.1996 0.24799 0.27824 0.60486 0.08468 0.35082 0.08468 0.79841v0.32057q0 0.15122 0.07863 0.26614 0.07863 0.10888 0.24194 0.10888 0.17541 0 0.24799-0.10888 0.07258-0.11492 0.07258-0.26614v-1.5363h0.69559v1.5363q0 0.4355-0.13307 0.80446-0.12702 0.36292-0.4234 0.6351-0.29638 0.27219-0.78027 0.41735-0.48389 0.15121-1.1916 0.15121-0.70768 0-1.1613-0.15726-0.4476-0.15121-0.70164-0.4234-0.25404-0.27219-0.35687-0.62905-0.09678-0.36292-0.09678-0.76212v-0.46574q0-0.48389-0.05444-0.78027-0.05444-0.30243-0.18146-0.46574-0.12097-0.16936-0.32058-0.2238-0.1996-0.05444-0.48389-0.05444h-0.14517v0.86495q0 0.32058 0.17541 0.46574 0.18146 0.13912 0.64115 0.13912v2.244zm4.5606-4.7844h0.53228q0.50808 0 0.69559-0.24194 0.19356-0.24799 0.19356-0.68349 0-0.50808-0.19356-0.73188-0.18751-0.2238-0.69559-0.2238h-0.53228z" style="font-variant-caps:normal;font-variant-east-asian:normal;font-variant-ligatures:normal;font-variant-numeric:normal"/>
  <path d="m16.312 77.401v2.0837q-0.42685 0-0.59535 0.1348-0.16288 0.12918-0.16288 0.43247v2.5948q0 0.20781 0.04493 0.39877t0.15165 0.34261q0.11233 0.14603 0.29206 0.23589 0.18534 0.08425 0.46617 0.08425 0.53918 0 0.78631-0.28082 0.24713-0.28644 0.24713-0.76946v-2.5836q0-0.34822-0.20781-0.46617-0.20781-0.12356-0.57288-0.12356v-2.0837h3.7013v2.0837q-0.3763 0-0.5785 0.11233-0.20219 0.10671-0.20219 0.45494v2.6791q0 0.51672-0.1348 1.0784-0.12918 0.55603-0.51672 1.0222-0.38192 0.46055-1.0952 0.76946-0.7133 0.30329-1.8871 0.30329-0.85371 0-1.4715-0.15726-0.6122-0.15165-1.0391-0.40439-0.42685-0.25274-0.6796-0.57288-0.25274-0.32576-0.39316-0.66836-0.1348-0.34822-0.17973-0.67398-0.04493-0.33137-0.04493-0.60658v-2.7015q0-0.37069-0.21343-0.49987-0.21343-0.1348-0.70768-0.1348v-2.0837z" style="font-variant-caps:normal;font-variant-east-asian:normal;font-variant-ligatures:normal;font-variant-numeric:normal"/>
  <path d="m15.707 91.565v0.31107q0 0.27478 0.1348 0.43031 0.13998 0.15035 0.50289 0.15035h0.52882v1.9234h-5.0756v-1.9234q0.45623 0 0.65324-0.11924 0.19701-0.12443 0.19701-0.46142v-2.6233q0-0.34218-0.19701-0.46142-0.19701-0.12443-0.65324-0.12443v-1.9234h5.594q0.7673 0 1.2857 0.18146 0.51845 0.18146 0.82952 0.50808 0.31625 0.32144 0.44586 0.78286 0.1348 0.46142 0.1348 1.0162 0 0.55992-0.1348 0.99024-0.12961 0.43031-0.44586 0.7362-0.31107 0.3007-0.82952 0.45623-0.51845 0.15035-1.2857 0.15035zm0-1.2287h0.55992q0.4355 0 0.6014-0.22812 0.1659-0.22812 0.1659-0.6014 0-0.35254-0.1659-0.59622t-0.6014-0.24367h-0.55992z" style="font-variant-caps:normal;font-variant-east-asian:normal;font-variant-ligatures:normal;font-variant-numeric:normal"/>
  <path d="m19.724 95.368v2.7849h-1.5636q0-0.31841-0.01901-0.55128-0.01426-0.23762-0.07129-0.3802-0.05703-0.14733-0.17584-0.21386-0.11406-0.07129-0.30891-0.07129h-0.29465v3.1366q0 0.30891 0.18059 0.42297 0.18059 0.10931 0.59881 0.10931v1.7632h-4.358v-1.7632q0.41822 0 0.59406-0.10931 0.18059-0.11406 0.18059-0.42297v-3.1366h-0.2899q-0.19485 0-0.31366 0.07129-0.11406 0.06653-0.17584 0.21386-0.05703 0.14257-0.07129 0.3802-0.01426 0.23287-0.01426 0.55128h-1.5683v-2.7849z" style="font-variant-caps:normal;font-variant-east-asian:normal;font-variant-ligatures:normal;font-variant-numeric:normal"/>
 </g>
</svg>
