<svg width="116.69" height="271.51" version="1.1" viewBox="0 0 30.874 71.838" xmlns="http://www.w3.org/2000/svg" xmlns:xlink="http://www.w3.org/1999/xlink">
 <defs>
  <linearGradient id="linearGradient889" x1="-159.65" x2="-87.718" y1="97.162" y2="106.81" gradientTransform="matrix(-.12865 -.98563 .97716 -.12976 1.6867 .63316)" gradientUnits="userSpaceOnUse">
   <stop stop-color="#61cff9" offset="0"/>
   <stop stop-color="#2c86ff" offset="1"/>
  </linearGradient>
 </defs>
 <g transform="translate(-101.62 -74.108)">
  <path d="m111.03 145.72c3.9993-0.5311 8.0502-0.53114 12.05-7e-5l9.189-70.411c-10.1-1.3412-20.329-1.3427-30.429-0.0014z" color="#000000" color-rendering="auto" dominant-baseline="auto" fill="url(#linearGradient889)" image-rendering="auto" shape-rendering="auto" solid-color="#000000" stop-color="#000000" stroke="#000" stroke-opacity=".94" stroke-width=".39688" style="font-feature-settings:normal;font-variant-alternates:normal;font-variant-caps:normal;font-variant-east-asian:normal;font-variant-ligatures:normal;font-variant-numeric:normal;font-variant-position:normal;font-variation-settings:normal;inline-size:0;isolation:auto;mix-blend-mode:normal;shape-margin:0;shape-padding:0;text-decoration-color:#000000;text-decoration-line:none;text-decoration-style:solid;text-indent:0;text-orientation:mixed;text-transform:none;white-space:normal"/>
 </g>
 <g>
  <g transform="matrix(.99426 0 0 1.0058 0 -1.0583)" fill="#ff0" stroke="#000" stroke-width=".63501" aria-label=" 1 0 0 0">
   <path d="m12.59 33.711q0.27928 0 0.59754-0.04752 0.32475-0.05345 0.58455-0.17226 0.26629-0.12474 0.44166-0.33263 0.17536-0.21384 0.17536-0.54647h3.0072v5.9043q0 0.39797 0.20784 0.52271 0.21433 0.1188 0.54558 0.1188h0.44166v2.2037h-5.865v-2.2037h0.5196q0.34423 0 0.50661-0.19602 0.16887-0.20196 0.16887-0.43361v-2.8571h-1.3315z" style="font-variant-caps:normal;font-variant-east-asian:normal;font-variant-ligatures:normal;font-variant-numeric:normal"/>
   <path d="m11.011 46.735q0-1.1204 0.3349-1.9911 0.34098-0.87682 0.93771-1.4675 0.59672-0.59672 1.4248-0.90726 0.8342-0.31054 1.8145-0.31054 0.98642 0 1.8145 0.31054 0.8342 0.31054 1.4309 0.90726 0.59672 0.59063 0.93162 1.4675 0.34098 0.87073 0.34098 1.9911 0 1.1204-0.34098 1.9972-0.3349 0.87073-0.93162 1.4675-0.59672 0.59063-1.4309 0.90117-0.8281 0.31054-1.8145 0.31054-0.98033 0-1.8145-0.31054-0.8281-0.31054-1.4248-0.90117-0.59672-0.59672-0.93771-1.4675-0.3349-0.87682-0.3349-1.9972zm3.5194 0q0 1.4614 0.19485 2.1007 0.20094 0.63326 0.79766 0.63326 0.60281 0 0.79766-0.63326 0.20094-0.63935 0.20094-2.1007t-0.20094-2.0946q-0.19485-0.63935-0.79766-0.63935-0.59672 0-0.79766 0.63935-0.19485 0.63326-0.19485 2.0946z" style="font-variant-caps:normal;font-variant-east-asian:normal;font-variant-ligatures:normal;font-variant-numeric:normal"/>
   <path d="m11.312 56.473q0-1.0457 0.31257-1.8584 0.31825-0.81837 0.8752-1.3696 0.55694-0.55694 1.3298-0.84678 0.77858-0.28984 1.6936-0.28984 0.92066 0 1.6936 0.28984 0.77858 0.28984 1.3355 0.84678 0.55694 0.55126 0.86952 1.3696 0.31825 0.81268 0.31825 1.8584t-0.31825 1.8641q-0.31257 0.81268-0.86952 1.3696-0.55694 0.55126-1.3355 0.8411-0.7729 0.28984-1.6936 0.28984-0.91498 0-1.6936-0.28984-0.7729-0.28984-1.3298-0.8411-0.55694-0.55694-0.8752-1.3696-0.31257-0.81837-0.31257-1.8641zm3.2848 0q0 1.3639 0.18186 1.9607 0.18754 0.59104 0.74449 0.59104 0.56263 0 0.74449-0.59104 0.18754-0.59673 0.18754-1.9607t-0.18754-1.955q-0.18186-0.59673-0.74449-0.59673-0.55694 0-0.74449 0.59673-0.18186 0.59104-0.18186 1.955z" style="font-variant-caps:normal;font-variant-east-asian:normal;font-variant-ligatures:normal;font-variant-numeric:normal"/>
   <path d="m11.613 65.588q0-0.971 0.29024-1.7256 0.29552-0.75991 0.81268-1.2718 0.51716-0.51716 1.2349-0.7863 0.72297-0.26913 1.5726-0.26913 0.8549 0 1.5726 0.26913 0.72297 0.26914 1.2401 0.7863 0.51716 0.51188 0.8074 1.2718 0.29552 0.75463 0.29552 1.7256 0 0.971-0.29552 1.7309-0.29024 0.75463-0.8074 1.2718-0.51716 0.51188-1.2401 0.78102-0.71769 0.26914-1.5726 0.26914-0.84962 0-1.5726-0.26914-0.71769-0.26913-1.2349-0.78102-0.51716-0.51716-0.81268-1.2718-0.29024-0.75991-0.29024-1.7309zm3.0502 0q0 1.2665 0.16887 1.8206 0.17415 0.54882 0.69131 0.54882 0.52244 0 0.69131-0.54882 0.17415-0.5541 0.17415-1.8206 0-1.2665-0.17415-1.8153-0.16887-0.5541-0.69131-0.5541-0.51716 0-0.69131 0.5541-0.16887 0.54882-0.16887 1.8153z" style="font-variant-caps:normal;font-variant-east-asian:normal;font-variant-ligatures:normal;font-variant-numeric:normal"/>
  </g>
  <g transform="matrix(1.309 0 0 .76393 0 .52917)" stroke="#e0e0e0" stroke-opacity=".94" stroke-width=".63501" style="font-variant-caps:normal;font-variant-east-asian:normal;font-variant-ligatures:normal;font-variant-numeric:normal" aria-label="$">
   <path d="m11.229 38.721q-0.49102-0.11718-1.0155-0.4129v0.39058h-1.4507v-2.4104h1.4507q0.12276 0.5245 0.50776 0.82022 0.385 0.29573 0.86486 0.29573 0.3292 0 0.47986-0.12275 0.15623-0.12833 0.15623-0.27341 0-0.23993-0.26225-0.37384t-0.65283-0.23993q-0.385-0.10602-0.84254-0.23435-0.45754-0.12833-0.84812-0.37384-0.385-0.24551-0.65283-0.64167-0.26225-0.40174-0.26225-1.0546 0-0.47986 0.20645-0.84254 0.20645-0.36826 0.55239-0.61935 0.35152-0.25109 0.80906-0.385 0.45754-0.13949 0.95972-0.13949v-0.9374h1.1327v1.0769q0.27341 0.07812 0.49102 0.17855 0.21761 0.09486 0.36268 0.18413v-0.40174h1.4675v2.3546h-1.4675q-0.03348-0.22877-0.16181-0.41848-0.12275-0.19529-0.3013-0.3292-0.17297-0.13949-0.39058-0.21761-0.21761-0.0837-0.43522-0.0837-0.27341 0-0.45196 0.10602-0.17855 0.10044-0.17855 0.29573 0 0.23993 0.26783 0.36826 0.27341 0.12275 0.66399 0.23435 0.39616 0.10602 0.86486 0.23993 0.4687 0.12833 0.85928 0.37384 0.39616 0.24551 0.66399 0.65841 0.26783 0.40732 0.26783 1.0713 0 0.49102-0.20645 0.8537-0.20087 0.3571-0.55239 0.59703-0.34594 0.23993-0.80348 0.36268-0.45754 0.11717-0.95972 0.13949v0.91508h-1.1327z" fill="#ff0" stroke="#000" stroke-opacity="1" stroke-width=".63501" style="font-variant-caps:normal;font-variant-east-asian:normal;font-variant-ligatures:normal;font-variant-numeric:normal"/>
  </g>
  <g transform="matrix(.63102 -.19313 -.069428 1.606 0 0)" fill="#ff0" stroke="#000" stroke-width=".47626" aria-label="EXPRESS">
   <path d="m11.998 12.806q-0.45695 0.23664-1.1016 0.37536-0.64463 0.13056-1.3137 0.13056-0.96287 0-1.6401-0.22032-0.66911-0.22848-1.0118-0.62831-0.34272-0.40799-0.34272-0.93023 0-0.43247 0.22848-0.77519 0.23664-0.34272 0.66911-0.53039-0.3264-0.17952-0.49775-0.46511-0.1632-0.29376-0.1632-0.64463 0-0.48143 0.31008-0.88127 0.31824-0.40799 0.96287-0.65279 0.65279-0.2448 1.5993-0.2448 0.57935 0 1.1342 0.10608 0.56303 0.097918 1.0037 0.26928l-0.52223 1.4035q-0.76703-0.31008-1.5422-0.31008-0.50591 0-0.75887 0.11424-0.2448 0.11424-0.2448 0.31824 0 0.17136 0.1224 0.26112 0.1224 0.089759 0.40799 0.089759h1.6728v1.4198h-1.8033q-0.31824 0-0.48143 0.10608-0.15504 0.09792-0.15504 0.2856 0 0.44063 1.1261 0.44063 0.43247 0 0.91391-0.11424 0.48959-0.1224 0.86495-0.31824z"/>
   <path d="m16.127 13.181-0.98735-1.5259-0.96286 1.5259h-2.195l2.0644-2.8804-1.991-2.8315h2.1624l0.97103 1.4361 0.94655-1.4361h2.0726l-1.9829 2.758 2.1052 2.9539z"/>
   <path d="m21.317 7.4695q0.79151 0 1.379 0.26112 0.58751 0.26112 0.90575 0.75071 0.31824 0.48959 0.31824 1.1424 0 0.65279-0.31824 1.1424-0.31824 0.48959-0.90575 0.75071-0.58751 0.26112-1.379 0.26112h-0.82415v1.4035h-1.9257v-5.7119zm-0.1224 2.8233q0.39167 0 0.58751-0.17136 0.19584-0.17952 0.19584-0.49775 0-0.31824-0.19584-0.48959-0.19584-0.17952-0.58751-0.17952h-0.70175v1.3382z"/>
   <path d="m26.996 11.745h-0.52223v1.4361h-1.9257v-5.7119h2.7499q0.79151 0 1.379 0.26112 0.58751 0.26112 0.90575 0.75071t0.31824 1.1424q0 0.61199-0.27744 1.0689-0.27744 0.45695-0.79967 0.72623l1.1995 1.7625h-2.0563zm0.96287-2.1216q0-0.31824-0.19584-0.48959-0.19584-0.17952-0.58751-0.17952h-0.70175v1.3382h0.70175q0.39167 0 0.58751-0.17136 0.19584-0.17952 0.19584-0.49775z"/>
   <path d="m35.784 12.806q-0.45695 0.23664-1.1016 0.37536-0.64463 0.13056-1.3137 0.13056-0.96286 0-1.6401-0.22032-0.66911-0.22848-1.0118-0.62831-0.34272-0.40799-0.34272-0.93023 0-0.43247 0.22848-0.77519 0.23664-0.34272 0.66911-0.53039-0.3264-0.17952-0.49775-0.46511-0.1632-0.29376-0.1632-0.64463 0-0.48143 0.31008-0.88127 0.31824-0.40799 0.96286-0.65279 0.65279-0.2448 1.5993-0.2448 0.57935 0 1.1342 0.10608 0.56303 0.097918 1.0037 0.26928l-0.52223 1.4035q-0.76703-0.31008-1.5422-0.31008-0.50591 0-0.75887 0.11424-0.2448 0.11424-0.2448 0.31824 0 0.17136 0.1224 0.26112 0.1224 0.089759 0.40799 0.089759h1.6728v1.4198h-1.8033q-0.31824 0-0.48143 0.10608-0.15504 0.09792-0.15504 0.2856 0 0.44063 1.1261 0.44063 0.43247 0 0.91391-0.11424 0.48959-0.1224 0.86495-0.31824z"/>
   <path d="m38.428 13.312q-0.70991 0-1.3872-0.15504-0.66911-0.1632-1.1016-0.43247l0.62015-1.4035q0.40799 0.23664 0.91391 0.38352 0.50591 0.13872 0.97102 0.13872 0.39983 0 0.57119-0.07344 0.17136-0.0816 0.17136-0.23664 0-0.17952-0.22848-0.26928-0.22032-0.08976-0.73439-0.19584-0.66095-0.13872-1.1016-0.29376-0.44063-0.1632-0.76703-0.52223-0.3264-0.36719-0.3264-0.98735 0-0.53855 0.30192-0.97919 0.30192-0.44063 0.89759-0.69359 0.60383-0.25296 1.4606-0.25296 0.58751 0 1.1505 0.13056 0.57119 0.1224 1.0037 0.36719l-0.57935 1.3953q-0.84047-0.42431-1.5912-0.42431-0.74255 0-0.74255 0.35903 0 0.17136 0.22032 0.26112 0.22032 0.081599 0.72623 0.17952 0.65279 0.1224 1.1016 0.2856 0.44879 0.15504 0.77519 0.51407 0.33456 0.35904 0.33456 0.97918 0 0.53855-0.30192 0.97919-0.30192 0.43247-0.90575 0.69359-0.59567 0.25296-1.4525 0.25296z"/>
   <path d="m43.789 13.312q-0.70991 0-1.3872-0.15504-0.66911-0.1632-1.1016-0.43247l0.62015-1.4035q0.40799 0.23664 0.91391 0.38352 0.50591 0.13872 0.97102 0.13872 0.39984 0 0.57119-0.07344 0.17136-0.0816 0.17136-0.23664 0-0.17952-0.22848-0.26928-0.22032-0.08976-0.73439-0.19584-0.66095-0.13872-1.1016-0.29376-0.44063-0.1632-0.76703-0.52223-0.3264-0.36719-0.3264-0.98735 0-0.53855 0.30192-0.97919 0.30192-0.44063 0.89759-0.69359 0.60383-0.25296 1.4606-0.25296 0.58751 0 1.1505 0.13056 0.57119 0.1224 1.0037 0.36719l-0.57935 1.3953q-0.84047-0.42431-1.5912-0.42431-0.74255 0-0.74255 0.35903 0 0.17136 0.22032 0.26112 0.22032 0.081599 0.72623 0.17952 0.65279 0.1224 1.1016 0.2856 0.44879 0.15504 0.77519 0.51407 0.33456 0.35904 0.33456 0.97918 0 0.53855-0.30192 0.97919-0.30192 0.43247-0.90575 0.69359-0.59567 0.25296-1.4525 0.25296z"/>
  </g>
 </g>
 <g fill="#e8f9ff" stroke="#000">
  <path transform="matrix(.26459 0 0 .26459 -.00032476 0)" d="m80.477 4.4883-75.139 22.973c-0.064943 0.019853-0.10978 0.062405-0.099609 0.095703l1.2715 4.1602c0.010182 0.033297 0.071761 0.043317 0.13672 0.023437l84.465-25.822c0.064856-0.019854 0.10786-0.062406 0.097656-0.095703l-0.082031-0.27148-10.65-1.0625z" style="paint-order:markers fill stroke"/>
  <path transform="matrix(.26459 0 0 .26459 -.00032476 0)" d="m99.525 6.5664-92.691 28.338c-0.078613 0.024034-0.13321 0.070218-0.12305 0.10352l1.2715 4.1602c0.010178 0.033259 0.081543 0.041767 0.16016 0.017578l102.22-31.252c0.07861-0.024045 0.13325-0.070218 0.12305-0.10352l-0.07031-0.23047-10.891-1.0332z" style="paint-order:markers fill stroke"/>
  <path transform="matrix(.26459 0 0 .26459 -.00032476 0)" d="m107.53 50.564-95.297 29.135c-0.075374 0.023017-0.12735 0.068303-0.11719 0.10156l1.2715 4.1602c0.010182 0.033259 0.078923 0.042586 0.1543 0.019531l93.346-28.539 0.64258-4.877z" style="paint-order:markers fill stroke"/>
  <path transform="matrix(.26459 0 0 .26459 -.00032476 0)" d="m106.36 59.238-93.119 28.469c-0.075374 0.023017-0.12931 0.068303-0.11914 0.10156l1.2715 4.1602c0.010182 0.033259 0.078923 0.040633 0.1543 0.017578l91.17-27.873 0.64258-4.875z" style="paint-order:markers fill stroke"/>
 </g>
</svg>
