<svg width="116.69" height="271.51" version="1.1" viewBox="0 0 30.874 71.838" xmlns="http://www.w3.org/2000/svg">
 <g filter="url(#filter872)" stroke="#e0e0e0" stroke-opacity=".94" stroke-width=".33073" style="font-variant-caps:normal;font-variant-east-asian:normal;font-variant-ligatures:normal;font-variant-numeric:normal" aria-label="$">
  <path d="m14.811 12.616q-0.54571-0.13023-1.1286-0.45889v0.43409h-1.6123v-2.6789h1.6123q0.13643 0.58292 0.56432 0.91159 0.42789 0.32867 0.9612 0.32867 0.36588 0 0.53331-0.13643 0.17364-0.14263 0.17364-0.30386 0-0.26666-0.29146-0.41548-0.29146-0.14883-0.72555-0.26666-0.42789-0.11782-0.93639-0.26045t-0.94259-0.41549q-0.42789-0.27286-0.72555-0.71315-0.29146-0.44649-0.29146-1.172 0-0.53331 0.22945-0.93639 0.22945-0.40928 0.61393-0.68834 0.39068-0.27906 0.89918-0.42789 0.5085-0.15503 1.0666-0.15503v-1.0418h1.2589v1.1968q0.30386 0.086818 0.54571 0.19844 0.24185 0.10542 0.40308 0.20464v-0.44649h1.6309v2.6169h-1.6309q-0.037208-0.25425-0.17984-0.4651-0.13643-0.21704-0.33487-0.36587-0.19224-0.15503-0.43409-0.24185-0.24185-0.093019-0.4837-0.093019-0.30386 0-0.5023 0.11782-0.19844 0.11162-0.19844 0.32867 0 0.26665 0.29766 0.40928 0.30386 0.13643 0.73795 0.26045 0.44029 0.11782 0.9612 0.26665 0.52091 0.14263 0.955 0.41549 0.44029 0.27286 0.73795 0.73175 0.29766 0.45269 0.29766 1.1906 0 0.54571-0.22945 0.9488-0.22325 0.39688-0.61393 0.66354-0.38448 0.26666-0.89298 0.40308-0.5085 0.13023-1.0666 0.15503v1.017h-1.2589z" stroke="#e0e0e0" stroke-opacity=".94" stroke-width=".33073" style="font-variant-caps:normal;font-variant-east-asian:normal;font-variant-ligatures:normal;font-variant-numeric:normal"/>
 </g>
 <defs>
  <filter id="filter860" color-interpolation-filters="sRGB">
   <feFlood flood-color="rgb(0,0,0)" flood-opacity=".32941" result="flood"/>
   <feComposite in="flood" in2="SourceGraphic" operator="in" result="composite1"/>
   <feGaussianBlur in="composite1" result="blur"/>
   <feOffset dx="0.8" dy="0.8" result="offset"/>
   <feComposite in="SourceGraphic" in2="offset" result="composite2"/>
  </filter>
  <filter id="filter872" color-interpolation-filters="sRGB">
   <feFlood flood-color="rgb(0,0,0)" flood-opacity=".32941" result="flood"/>
   <feComposite in="flood" in2="SourceGraphic" operator="in" result="composite1"/>
   <feGaussianBlur in="composite1" result="blur"/>
   <feOffset dx="0.8" dy="0.8" result="offset"/>
   <feComposite in="SourceGraphic" in2="offset" result="composite2"/>
  </filter>
 </defs>
 <g transform="matrix(.90678 0 0 1 1.0271 1.9627)" filter="url(#filter860)" stroke="#e0e0e0" stroke-opacity=".94" stroke-width=".34732" aria-label=" 5 5 0">
  <path d="m14.589 26.386q1.3953 0 2.0878-0.73382 0.70281-0.74415 0.70281-1.8914 0-1.1989-0.77516-1.8294-0.76482-0.6408-2.0774-0.6408-0.86818 0-1.3953 0.1757-0.52711 0.1757-0.78549 0.28939h-2.5839v-8.258h0.44442q0.80616 0.1447 1.4263 0.23772 0.63046 0.08268 1.2609 0.12403 0.6408 0.04134 1.3643 0.05168 0.73382 0.01034 1.726 0.01034 1.1679 0 2.0568-0.02067 0.88885-0.02067 1.571-0.06201 0.69248-0.04134 1.2403-0.12402 0.54778-0.09302 1.0439-0.21704l0.50644 0.20671q-0.21704 0.89918-0.56845 1.664-0.34107 0.75449-1.0335 1.2919-0.68214 0.53744-1.8397 0.84751-1.1576 0.31006-2.9559 0.31006-1.0542 0-1.6433-0.05168-0.57878-0.05168-0.9612-0.1447v1.3746q0.19637-0.06201 0.40308-0.10335 0.21704-0.04134 0.4961-0.08268 0.28939-0.04134 0.6718-0.06201 0.38241-0.02067 0.90952-0.02067 1.9844 0 3.328 0.43409 1.3539 0.43409 2.1498 1.1886 0.80616 0.74415 1.1472 1.7364 0.34107 0.98187 0.34107 2.0774 0 1.1266-0.43409 2.0671-0.43409 0.94053-1.3333 1.6433-0.89918 0.69248-2.2841 1.0852-1.3746 0.39275-3.2763 0.39275-3.1937 0-4.992-1.1059-1.7984-1.1162-1.7984-3.1523 0-0.73382 0.22738-1.2816 0.23772-0.55811 0.62013-0.89918 0.38241-0.3514 0.86818-0.51677 0.48577-0.1757 0.97153-0.1757 1.2092 0 1.7984 0.50644t0.58912 1.3126-0.4651 1.2196q-0.4651 0.41342-1.0956 0.59946 0.50644 0.25839 1.0749 0.39275 0.56845 0.13436 1.2713 0.13436z" style="font-variant-caps:normal;font-variant-east-asian:normal;font-variant-ligatures:normal;font-variant-numeric:normal"/>
  <path d="m14.654 42.927q1.3255 0 1.9834-0.69712 0.66767-0.70694 0.66767-1.7968 0-1.139-0.7364-1.7379-0.72658-0.60876-1.9735-0.60876-0.82477 0-1.3255 0.16692t-0.74622 0.27492h-2.4547v-7.8451h0.4222q0.76586 0.13746 1.355 0.22583 0.59894 0.07855 1.1979 0.11782 0.60876 0.03927 1.2961 0.04909 0.69712 0.0098 1.6397 0.0098 1.1095 0 1.9539-0.01964t1.4924-0.05891q0.65785-0.03927 1.1782-0.11782 0.52039-0.08837 0.99168-0.20619l0.48111 0.19637q-0.20619 0.85422-0.54002 1.5808-0.32402 0.71676-0.98187 1.2273-0.64803 0.51057-1.7477 0.80513t-2.8081 0.29456q-1.0015 0-1.5612-0.04909-0.54984-0.04909-0.91314-0.13746v1.3059q0.18655-0.05891 0.38293-0.09819 0.20619-0.03927 0.4713-0.07855 0.27492-0.03927 0.63821-0.05891t0.86404-0.01964q1.8852 0 3.1616 0.41238 1.2862 0.41238 2.0423 1.1291 0.76585 0.70694 1.0899 1.6495 0.32402 0.93277 0.32402 1.9735 0 1.0702-0.41238 1.9637-0.41238 0.8935-1.2666 1.5612-0.85422 0.65785-2.1699 1.031-1.3059 0.37311-3.1125 0.37311-3.034 0-4.7424-1.0506-1.7084-1.0604-1.7084-2.9947 0-0.69712 0.21601-1.2175 0.22583-0.53021 0.58912-0.85422 0.36329-0.33383 0.82477-0.49093 0.46148-0.16692 0.92295-0.16692 1.1488 0 1.7084 0.48111t0.55966 1.247q0 0.76586-0.44184 1.1586-0.44184 0.39275-1.0408 0.56948 0.48111 0.24547 1.0211 0.37311 0.54003 0.12764 1.2077 0.12764z" style="font-variant-caps:normal;font-variant-east-asian:normal;font-variant-ligatures:normal;font-variant-numeric:normal"/>
  <path d="m8.9939 54.154q0-1.7116 0.5116-3.0417 0.52091-1.3395 1.4325-2.2418 0.91159-0.91159 2.1766-1.386 1.2744-0.4744 2.772-0.4744 1.5069 0 2.772 0.4744 1.2744 0.4744 2.1859 1.386 0.91159 0.90228 1.4232 2.2418 0.52091 1.3302 0.52091 3.0417t-0.52091 3.051q-0.5116 1.3302-1.4232 2.2418-0.91159 0.90228-2.1859 1.3767-1.2651 0.4744-2.772 0.4744-1.4976 0-2.772-0.4744-1.2651-0.4744-2.1766-1.3767-0.91159-0.91159-1.4325-2.2418-0.5116-1.3395-0.5116-3.051zm5.3765 0q0 2.2325 0.29766 3.2092 0.30696 0.9674 1.2185 0.9674 0.92089 0 1.2186-0.9674 0.30696-0.9767 0.30696-3.2092t-0.30696-3.1999q-0.29766-0.9767-1.2186-0.9767-0.91159 0-1.2185 0.9767-0.29766 0.9674-0.29766 3.1999z" style="font-variant-caps:normal;font-variant-east-asian:normal;font-variant-ligatures:normal;font-variant-numeric:normal"/>
 </g>
</svg>
