<svg width="116.69" height="271.51" version="1.1" viewBox="0 0 30.874 71.838" xmlns="http://www.w3.org/2000/svg">
 <g filter="url(#filter872)" stroke="#e0e0e0" stroke-opacity=".94" stroke-width=".33073" style="font-variant-caps:normal;font-variant-east-asian:normal;font-variant-ligatures:normal;font-variant-numeric:normal" aria-label="$">
  <path d="m14.811 12.616q-0.54571-0.13023-1.1286-0.45889v0.43409h-1.6123v-2.6789h1.6123q0.13643 0.58292 0.56432 0.91159 0.42789 0.32867 0.9612 0.32867 0.36588 0 0.53331-0.13643 0.17364-0.14263 0.17364-0.30386 0-0.26666-0.29146-0.41548-0.29146-0.14883-0.72555-0.26666-0.42789-0.11782-0.93639-0.26045t-0.94259-0.41549q-0.42789-0.27286-0.72555-0.71315-0.29146-0.44649-0.29146-1.172 0-0.53331 0.22945-0.93639 0.22945-0.40928 0.61393-0.68834 0.39068-0.27906 0.89918-0.42789 0.5085-0.15503 1.0666-0.15503v-1.0418h1.2589v1.1968q0.30386 0.086818 0.54571 0.19844 0.24185 0.10542 0.40308 0.20464v-0.44649h1.6309v2.6169h-1.6309q-0.037208-0.25425-0.17984-0.4651-0.13643-0.21704-0.33487-0.36587-0.19224-0.15503-0.43409-0.24185-0.24185-0.093019-0.4837-0.093019-0.30386 0-0.5023 0.11782-0.19844 0.11162-0.19844 0.32867 0 0.26665 0.29766 0.40928 0.30386 0.13643 0.73795 0.26045 0.44029 0.11782 0.9612 0.26665 0.52091 0.14263 0.955 0.41549 0.44029 0.27286 0.73795 0.73175 0.29766 0.45269 0.29766 1.1906 0 0.54571-0.22945 0.9488-0.22325 0.39688-0.61393 0.66354-0.38448 0.26666-0.89298 0.40308-0.5085 0.13023-1.0666 0.15503v1.017h-1.2589z" stroke="#e0e0e0" stroke-opacity=".94" stroke-width=".33073" style="font-variant-caps:normal;font-variant-east-asian:normal;font-variant-ligatures:normal;font-variant-numeric:normal"/>
 </g>
 <defs>
  <filter id="filter860" color-interpolation-filters="sRGB">
   <feFlood flood-color="rgb(0,0,0)" flood-opacity=".32941" result="flood"/>
   <feComposite in="flood" in2="SourceGraphic" operator="in" result="composite1"/>
   <feGaussianBlur in="composite1" result="blur"/>
   <feOffset dx="0.8" dy="0.8" result="offset"/>
   <feComposite in="SourceGraphic" in2="offset" result="composite2"/>
  </filter>
  <filter id="filter872" color-interpolation-filters="sRGB">
   <feFlood flood-color="rgb(0,0,0)" flood-opacity=".32941" result="flood"/>
   <feComposite in="flood" in2="SourceGraphic" operator="in" result="composite1"/>
   <feGaussianBlur in="composite1" result="blur"/>
   <feOffset dx="0.8" dy="0.8" result="offset"/>
   <feComposite in="SourceGraphic" in2="offset" result="composite2"/>
  </filter>
 </defs>
 <g transform="matrix(.90678 0 0 1 1.0271 1.9627)" filter="url(#filter860)" stroke="#e0e0e0" stroke-opacity=".94" stroke-width=".34732" aria-label=" 6 5 0">
  <path d="m17.581 15.865q-0.6718 0-1.2919 0.27906-0.60979 0.27906-1.0749 0.84751-0.4651 0.56845-0.73382 1.4366-0.25839 0.86818-0.25839 2.0361 0.54778-0.34107 1.2919-0.57878 0.75449-0.24805 1.8811-0.24805 2.7699 0 4.2789 1.1886 1.5193 1.1782 1.5193 3.359 0 1.1886-0.4961 2.1498-0.4961 0.9612-1.3953 1.6433-0.89918 0.6718-2.1808 1.0335-1.2816 0.36174-2.8319 0.36174-1.664 0-3.08-0.4961-1.4056-0.4961-2.4185-1.4573-1.0129-0.97153-1.5917-2.4185-0.56845-1.447-0.56845-3.359 0-1.9017 0.59946-3.4107 0.60979-1.5193 1.664-2.5632 1.0646-1.0439 2.5012-1.602 1.4366-0.56845 3.111-0.56845 1.4986 0 2.6459 0.28939 1.1472 0.27906 1.9224 0.77516 0.78549 0.48577 1.1782 1.1369 0.39275 0.65113 0.39275 1.3953 0 0.66147-0.21704 1.1059-0.20671 0.44442-0.57878 0.72348-0.37208 0.26872-0.83717 0.38241-0.4651 0.11369-0.97153 0.11369-1.0852 0-1.6743-0.43409-0.58912-0.43409-0.58912-1.2092 0-0.42375 0.12402-0.70281 0.12403-0.27906 0.3204-0.45476 0.20671-0.1757 0.42375-0.26872 0.22738-0.10335 0.42375-0.1447-0.23772-0.12403-0.54778-0.22738-0.29973-0.11369-0.94053-0.11369zm-1.1369 10.697q0.80616 0 1.1782-0.58912 0.38241-0.59946 0.38241-1.5503t-0.38241-1.54q-0.37208-0.59946-1.1782-0.59946t-1.1886 0.59946q-0.38241 0.58912-0.38241 1.54t0.38241 1.5503q0.38241 0.58912 1.1886 0.58912z" style="font-variant-caps:normal;font-variant-east-asian:normal;font-variant-ligatures:normal;font-variant-numeric:normal"/>
  <path d="m14.654 42.927q1.3255 0 1.9834-0.69712 0.66767-0.70694 0.66767-1.7968 0-1.139-0.7364-1.7379-0.72658-0.60876-1.9735-0.60876-0.82477 0-1.3255 0.16692t-0.74622 0.27492h-2.4547v-7.8451h0.4222q0.76586 0.13746 1.355 0.22583 0.59894 0.07855 1.1979 0.11782 0.60876 0.03927 1.2961 0.04909 0.69712 0.0098 1.6397 0.0098 1.1095 0 1.9539-0.01964t1.4924-0.05891q0.65785-0.03927 1.1782-0.11782 0.52039-0.08837 0.99168-0.20619l0.48111 0.19637q-0.20619 0.85422-0.54002 1.5808-0.32402 0.71676-0.98187 1.2273-0.64803 0.51057-1.7477 0.80513t-2.8081 0.29456q-1.0015 0-1.5612-0.04909-0.54984-0.04909-0.91314-0.13746v1.3059q0.18655-0.05891 0.38293-0.09819 0.20619-0.03927 0.4713-0.07855 0.27492-0.03927 0.63821-0.05891t0.86404-0.01964q1.8852 0 3.1616 0.41238 1.2862 0.41238 2.0423 1.1291 0.76585 0.70694 1.0899 1.6495 0.32402 0.93277 0.32402 1.9735 0 1.0702-0.41238 1.9637-0.41238 0.8935-1.2666 1.5612-0.85422 0.65785-2.1699 1.031-1.3059 0.37311-3.1125 0.37311-3.034 0-4.7424-1.0506-1.7084-1.0604-1.7084-2.9947 0-0.69712 0.21601-1.2175 0.22583-0.53021 0.58912-0.85422 0.36329-0.33383 0.82477-0.49093 0.46148-0.16692 0.92295-0.16692 1.1488 0 1.7084 0.48111t0.55966 1.247q0 0.76586-0.44184 1.1586-0.44184 0.39275-1.0408 0.56948 0.48111 0.24547 1.0211 0.37311 0.54003 0.12764 1.2077 0.12764z" style="font-variant-caps:normal;font-variant-east-asian:normal;font-variant-ligatures:normal;font-variant-numeric:normal"/>
  <path d="m8.9939 54.154q0-1.7116 0.5116-3.0417 0.52091-1.3395 1.4325-2.2418 0.91159-0.91159 2.1766-1.386 1.2744-0.4744 2.772-0.4744 1.5069 0 2.772 0.4744 1.2744 0.4744 2.1859 1.386 0.91159 0.90228 1.4232 2.2418 0.52091 1.3302 0.52091 3.0417t-0.52091 3.051q-0.5116 1.3302-1.4232 2.2418-0.91159 0.90228-2.1859 1.3767-1.2651 0.4744-2.772 0.4744-1.4976 0-2.772-0.4744-1.2651-0.4744-2.1766-1.3767-0.91159-0.91159-1.4325-2.2418-0.5116-1.3395-0.5116-3.051zm5.3765 0q0 2.2325 0.29766 3.2092 0.30696 0.9674 1.2185 0.9674 0.92089 0 1.2186-0.9674 0.30696-0.9767 0.30696-3.2092t-0.30696-3.1999q-0.29766-0.9767-1.2186-0.9767-0.91159 0-1.2185 0.9767-0.29766 0.9674-0.29766 3.1999z" style="font-variant-caps:normal;font-variant-east-asian:normal;font-variant-ligatures:normal;font-variant-numeric:normal"/>
 </g>
</svg>
