<svg width="116.69" height="271.51" version="1.1" viewBox="0 0 30.874 71.838" xmlns="http://www.w3.org/2000/svg" xmlns:xlink="http://www.w3.org/1999/xlink">
 <defs>
  <linearGradient id="linearGradient889" x1="-160.98" x2="-87.718" y1="96.79" y2="106.81" gradientUnits="userSpaceOnUse">
   <stop stop-color="#660579" offset="0"/>
   <stop stop-color="#5e05ab" offset=".50132"/>
   <stop stop-color="#582cb0" offset="1"/>
  </linearGradient>
  <radialGradient id="radialGradient1109" cx="15.639" cy="12.495" r="8.8755" gradientTransform="matrix(1 0 0 .97339 0 .33246)" gradientUnits="userSpaceOnUse">
   <stop stop-color="#791ae6" offset="0"/>
   <stop stop-color="#8808f9" offset=".50132"/>
   <stop stop-color="#582cb0" offset="1"/>
  </radialGradient>
  <linearGradient id="linearGradient1155" x1="4.4114" x2="24.349" y1="2.0021" y2="20.54" gradientUnits="userSpaceOnUse">
   <stop stop-color="#ddd" offset="0"/>
   <stop stop-color="#999" offset="1"/>
  </linearGradient>
 </defs>
 <g transform="translate(-101.62 -74.108)">
  <path transform="rotate(-97.5)" d="m-159.18 90.941c3e-5 4.0928-0.53642 8.1678-1.5957 12.121l69.004 18.488c2.6751-9.9837 4.0313-20.274 4.0312-30.609z" color="#000000" color-rendering="auto" dominant-baseline="auto" fill="url(#linearGradient889)" image-rendering="auto" shape-rendering="auto" solid-color="#000000" stop-color="#000000" style="font-feature-settings:normal;font-variant-alternates:normal;font-variant-caps:normal;font-variant-east-asian:normal;font-variant-ligatures:normal;font-variant-numeric:normal;font-variant-position:normal;font-variation-settings:normal;inline-size:0;isolation:auto;mix-blend-mode:normal;shape-margin:0;shape-padding:0;text-decoration-color:#000000;text-decoration-line:none;text-decoration-style:solid;text-indent:0;text-orientation:mixed;text-transform:none;white-space:normal"/>
 </g>
 <g stroke="#e0e0e0" stroke-opacity=".94">
  <g transform="matrix(.99426 0 0 1.0058 0 -1.0583)" stroke-width=".33073" aria-label=" 1 0 0 0">
   <path d="m12.59 33.711q0.27928 0 0.59754-0.04752 0.32475-0.05345 0.58455-0.17226 0.26629-0.12474 0.44166-0.33263 0.17536-0.21384 0.17536-0.54647h3.0072v5.9043q0 0.39797 0.20784 0.52271 0.21433 0.1188 0.54558 0.1188h0.44166v2.2037h-5.865v-2.2037h0.5196q0.34423 0 0.50661-0.19602 0.16887-0.20196 0.16887-0.43361v-2.8571h-1.3315z" style="font-variant-caps:normal;font-variant-east-asian:normal;font-variant-ligatures:normal;font-variant-numeric:normal"/>
   <path d="m11.011 46.735q0-1.1204 0.3349-1.9911 0.34098-0.87682 0.93771-1.4675 0.59672-0.59672 1.4248-0.90726 0.8342-0.31054 1.8145-0.31054 0.98642 0 1.8145 0.31054 0.8342 0.31054 1.4309 0.90726 0.59672 0.59063 0.93162 1.4675 0.34098 0.87073 0.34098 1.9911 0 1.1204-0.34098 1.9972-0.3349 0.87073-0.93162 1.4675-0.59672 0.59063-1.4309 0.90117-0.8281 0.31054-1.8145 0.31054-0.98033 0-1.8145-0.31054-0.8281-0.31054-1.4248-0.90117-0.59672-0.59672-0.93771-1.4675-0.3349-0.87682-0.3349-1.9972zm3.5194 0q0 1.4614 0.19485 2.1007 0.20094 0.63326 0.79766 0.63326 0.60281 0 0.79766-0.63326 0.20094-0.63935 0.20094-2.1007t-0.20094-2.0946q-0.19485-0.63935-0.79766-0.63935-0.59672 0-0.79766 0.63935-0.19485 0.63326-0.19485 2.0946z" style="font-variant-caps:normal;font-variant-east-asian:normal;font-variant-ligatures:normal;font-variant-numeric:normal"/>
   <path d="m11.312 56.473q0-1.0457 0.31257-1.8584 0.31825-0.81837 0.8752-1.3696 0.55694-0.55694 1.3298-0.84678 0.77858-0.28984 1.6936-0.28984 0.92066 0 1.6936 0.28984 0.77858 0.28984 1.3355 0.84678 0.55694 0.55126 0.86952 1.3696 0.31825 0.81268 0.31825 1.8584t-0.31825 1.8641q-0.31257 0.81268-0.86952 1.3696-0.55694 0.55126-1.3355 0.8411-0.7729 0.28984-1.6936 0.28984-0.91498 0-1.6936-0.28984-0.7729-0.28984-1.3298-0.8411-0.55694-0.55694-0.8752-1.3696-0.31257-0.81837-0.31257-1.8641zm3.2848 0q0 1.3639 0.18186 1.9607 0.18754 0.59104 0.74449 0.59104 0.56263 0 0.74449-0.59104 0.18754-0.59673 0.18754-1.9607t-0.18754-1.955q-0.18186-0.59673-0.74449-0.59673-0.55694 0-0.74449 0.59673-0.18186 0.59104-0.18186 1.955z" style="font-variant-caps:normal;font-variant-east-asian:normal;font-variant-ligatures:normal;font-variant-numeric:normal"/>
   <path d="m11.613 65.588q0-0.971 0.29024-1.7256 0.29552-0.75991 0.81268-1.2718 0.51716-0.51716 1.2349-0.7863 0.72297-0.26913 1.5726-0.26913 0.8549 0 1.5726 0.26913 0.72297 0.26914 1.2401 0.7863 0.51716 0.51188 0.8074 1.2718 0.29552 0.75463 0.29552 1.7256 0 0.971-0.29552 1.7309-0.29024 0.75463-0.8074 1.2718-0.51716 0.51188-1.2401 0.78102-0.71769 0.26914-1.5726 0.26914-0.84962 0-1.5726-0.26914-0.71769-0.26913-1.2349-0.78102-0.51716-0.51716-0.81268-1.2718-0.29024-0.75991-0.29024-1.7309zm3.0502 0q0 1.2665 0.16887 1.8206 0.17415 0.54882 0.69131 0.54882 0.52244 0 0.69131-0.54882 0.17415-0.5541 0.17415-1.8206 0-1.2665-0.17415-1.8153-0.16887-0.5541-0.69131-0.5541-0.51716 0-0.69131 0.5541-0.16887 0.54882-0.16887 1.8153z" style="font-variant-caps:normal;font-variant-east-asian:normal;font-variant-ligatures:normal;font-variant-numeric:normal"/>
  </g>
  <g transform="matrix(1.309 0 0 .76393 0 .52917)" stroke-width=".33073" style="font-variant-caps:normal;font-variant-east-asian:normal;font-variant-ligatures:normal;font-variant-numeric:normal" aria-label="$">
   <path d="m11.229 38.721q-0.49102-0.11718-1.0155-0.4129v0.39058h-1.4507v-2.4104h1.4507q0.12276 0.5245 0.50776 0.82022 0.385 0.29573 0.86486 0.29573 0.3292 0 0.47986-0.12275 0.15623-0.12833 0.15623-0.27341 0-0.23993-0.26225-0.37384t-0.65283-0.23993q-0.385-0.10602-0.84254-0.23435-0.45754-0.12833-0.84812-0.37384-0.385-0.24551-0.65283-0.64167-0.26225-0.40174-0.26225-1.0546 0-0.47986 0.20645-0.84254 0.20645-0.36826 0.55239-0.61935 0.35152-0.25109 0.80906-0.385 0.45754-0.13949 0.95972-0.13949v-0.9374h1.1327v1.0769q0.27341 0.07812 0.49102 0.17855 0.21761 0.09486 0.36268 0.18413v-0.40174h1.4675v2.3546h-1.4675q-0.03348-0.22877-0.16181-0.41848-0.12275-0.19529-0.3013-0.3292-0.17297-0.13949-0.39058-0.21761-0.21761-0.0837-0.43522-0.0837-0.27341 0-0.45196 0.10602-0.17855 0.10044-0.17855 0.29573 0 0.23993 0.26783 0.36826 0.27341 0.12275 0.66399 0.23435 0.39616 0.10602 0.86486 0.23993 0.4687 0.12833 0.85928 0.37384 0.39616 0.24551 0.66399 0.65841 0.26783 0.40732 0.26783 1.0713 0 0.49102-0.20645 0.8537-0.20087 0.3571-0.55239 0.59703-0.34594 0.23993-0.80348 0.36268-0.45754 0.11717-0.95972 0.13949v0.91508h-1.1327z" stroke="#e0e0e0" stroke-opacity=".94" stroke-width=".33073" style="font-variant-caps:normal;font-variant-east-asian:normal;font-variant-ligatures:normal;font-variant-numeric:normal"/>
  </g>
  <g transform="matrix(.89102 0 0 .9623 -88.859 -69.97)" fill="none" stroke-width=".30831">
   <path transform="rotate(-97.5)" d="m-159.18 90.941c3e-5 4.0928-0.53642 8.1678-1.5957 12.121l69.004 18.488c2.6751-9.9837 4.0313-20.274 4.0312-30.609z" color="#000000" color-rendering="auto" dominant-baseline="auto" fill="none" image-rendering="auto" shape-rendering="auto" solid-color="#000000" stop-color="#000000" stroke="#e0e0e0" stroke-opacity=".94" stroke-width=".30831" style="font-feature-settings:normal;font-variant-alternates:normal;font-variant-caps:normal;font-variant-east-asian:normal;font-variant-ligatures:normal;font-variant-numeric:normal;font-variant-position:normal;font-variation-settings:normal;inline-size:0;isolation:auto;mix-blend-mode:normal;shape-margin:0;shape-padding:0;text-decoration-color:#000000;text-decoration-line:none;text-decoration-style:solid;text-indent:0;text-orientation:mixed;text-transform:none;white-space:normal"/>
  </g>
 </g>
 <ellipse transform="matrix(.99987 .016009 -.016007 .99987 0 0)" cx="15.639" cy="12.495" rx="8.439" ry="8.2028" fill="url(#radialGradient1109)" stroke="#0c2579" stroke-opacity=".94118" stroke-width="1.0054" style="paint-order:markers fill stroke"/>
 <g transform="matrix(1.5561 0 0 1.1183 -11.307 .75026)" stroke-width=".20057" aria-label="?">
  <path d="m21.196 8.4143q0 0.63391-0.24805 1.1024-0.24805 0.46165-0.63391 0.80616-0.37897 0.33762-0.80616 0.59256-0.4272 0.24805-0.81305 0.48232-0.37896 0.23427-0.62702 0.47543-0.24805 0.24116-0.24805 0.55122h-1.9431q0-0.55122 0.11024-0.96464 0.11024-0.42031 0.2825-0.73726 0.17226-0.31695 0.37208-0.57878 0.20671-0.26183 0.37208-0.52366 0.17226-0.26183 0.2825-0.53744 0.11714-0.27561 0.11714-0.62702 0-0.3514-0.15848-0.60634-0.15159-0.25494-0.39964-0.37897-0.24805-0.13092-0.565-0.13092t-0.62702 0.15848q0.42031 0.12403 0.66147 0.40653 0.24116 0.2825 0.24116 0.80616 0 0.24116-0.11024 0.46854-0.10335 0.22049-0.31006 0.40653-0.19982 0.18604-0.50988 0.28939-0.31006 0.10335-0.7097 0.10335-0.29628 0-0.60634-0.075793-0.31006-0.075793-0.565-0.26872-0.24805-0.19982-0.41342-0.53055-0.16537-0.33762-0.16537-0.82683 0-0.60634 0.30317-1.0818 0.31006-0.47543 0.8475-0.79927 0.54433-0.32384 1.2954-0.48921 0.75793-0.17226 1.6606-0.17226 1.9637 0 2.9353 0.70281 0.97842 0.69592 0.97842 1.9775zm-6.0841 6.153q0-0.3514 0.13781-0.67525 0.1447-0.32384 0.37896-0.55811t0.55122-0.37208q0.31695-0.1447 0.68214-0.1447 0.3514 0 0.67525 0.1447 0.32384 0.1378 0.55811 0.37208 0.23427 0.23427 0.37208 0.55811 0.1447 0.32384 0.1447 0.67525 0 0.36518-0.1447 0.68214-0.13781 0.31695-0.37208 0.55122-0.23427 0.23427-0.55811 0.37208-0.32384 0.1447-0.67525 0.1447-0.36518 0-0.68214-0.1447-0.31695-0.13781-0.55122-0.37208-0.23427-0.23427-0.37896-0.55122-0.13781-0.31695-0.13781-0.68214z" stroke="#e0e0e0" stroke-opacity=".94" stroke-width=".20057"/>
 </g>
 <ellipse transform="matrix(.99987 .016013 -.016003 .99987 0 0)" cx="15.64" cy="12.561" rx="10.483" ry="10.193" fill="none" stroke="url(#linearGradient1155)" stroke-opacity=".94118" stroke-width="1.1377" style="paint-order:markers fill stroke"/>
</svg>
