<svg width="116.69" height="271.51" version="1.1" viewBox="0 0 30.874 71.838" xmlns="http://www.w3.org/2000/svg">
 <g filter="url(#filter872)" stroke="#e0e0e0" stroke-opacity=".94" stroke-width=".33073" style="font-variant-caps:normal;font-variant-east-asian:normal;font-variant-ligatures:normal;font-variant-numeric:normal" aria-label="$">
  <path d="m14.811 12.616q-0.54571-0.13023-1.1286-0.45889v0.43409h-1.6123v-2.6789h1.6123q0.13643 0.58292 0.56432 0.91159 0.42789 0.32867 0.9612 0.32867 0.36588 0 0.53331-0.13643 0.17364-0.14263 0.17364-0.30386 0-0.26666-0.29146-0.41548-0.29146-0.14883-0.72555-0.26666-0.42789-0.11782-0.93639-0.26045t-0.94259-0.41549q-0.42789-0.27286-0.72555-0.71315-0.29146-0.44649-0.29146-1.172 0-0.53331 0.22945-0.93639 0.22945-0.40928 0.61393-0.68834 0.39068-0.27906 0.89918-0.42789 0.5085-0.15503 1.0666-0.15503v-1.0418h1.2589v1.1968q0.30386 0.086818 0.54571 0.19844 0.24185 0.10542 0.40308 0.20464v-0.44649h1.6309v2.6169h-1.6309q-0.037208-0.25425-0.17984-0.4651-0.13643-0.21704-0.33487-0.36587-0.19224-0.15503-0.43409-0.24185-0.24185-0.093019-0.4837-0.093019-0.30386 0-0.5023 0.11782-0.19844 0.11162-0.19844 0.32867 0 0.26665 0.29766 0.40928 0.30386 0.13643 0.73795 0.26045 0.44029 0.11782 0.9612 0.26665 0.52091 0.14263 0.955 0.41549 0.44029 0.27286 0.73795 0.73175 0.29766 0.45269 0.29766 1.1906 0 0.54571-0.22945 0.9488-0.22325 0.39688-0.61393 0.66354-0.38448 0.26666-0.89298 0.40308-0.5085 0.13023-1.0666 0.15503v1.017h-1.2589z" stroke="#e0e0e0" stroke-opacity=".94" stroke-width=".33073" style="font-variant-caps:normal;font-variant-east-asian:normal;font-variant-ligatures:normal;font-variant-numeric:normal"/>
 </g>
 <defs>
  <filter id="filter860" color-interpolation-filters="sRGB">
   <feFlood flood-color="rgb(0,0,0)" flood-opacity=".32941" result="flood"/>
   <feComposite in="flood" in2="SourceGraphic" operator="in" result="composite1"/>
   <feGaussianBlur in="composite1" result="blur"/>
   <feOffset dx="0.8" dy="0.8" result="offset"/>
   <feComposite in="SourceGraphic" in2="offset" result="composite2"/>
  </filter>
  <filter id="filter872" color-interpolation-filters="sRGB">
   <feFlood flood-color="rgb(0,0,0)" flood-opacity=".32941" result="flood"/>
   <feComposite in="flood" in2="SourceGraphic" operator="in" result="composite1"/>
   <feGaussianBlur in="composite1" result="blur"/>
   <feOffset dx="0.8" dy="0.8" result="offset"/>
   <feComposite in="SourceGraphic" in2="offset" result="composite2"/>
  </filter>
 </defs>
 <g transform="matrix(.90678 0 0 1 1.0271 1.9627)" filter="url(#filter860)" stroke="#e0e0e0" stroke-opacity=".94" stroke-width=".34732" aria-label=" 7 0 0">
  <path d="m22.516 13.704q0 1.4056-0.36174 2.5115-0.36174 1.0956-0.89918 2.1084-0.53744 1.0129-1.1782 2.0464-0.63046 1.0232-1.1679 2.2531-0.53744 1.2196-0.89918 2.7596-0.36174 1.5296-0.36174 3.5451h-5.7362q0-1.6743 0.25839-2.9043 0.26872-1.2403 0.73382-2.2014 0.4651-0.97153 1.1059-1.726 0.65113-0.76482 1.4056-1.4676 0.75449-0.71315 1.5813-1.4573 0.83717-0.74415 1.6847-1.6537l-0.08268-0.08268q-0.44442 0.40308-0.90952 0.6408-0.4651 0.22738-0.97153 0.22738-0.34107 0-0.75449-0.08268t-0.8165-0.19637q-0.40308-0.12403-0.72348-0.20671-0.31006-0.08268-0.43409-0.08268-0.21704 0-0.43409 0.05168-0.20671 0.05168-0.39275 0.26872-0.1757 0.20671-0.27906 0.60979-0.10336 0.40308-0.10336 1.0956h-3.1937v-6.0566h3.1937v0.9612q0.25839-0.44442 0.78549-0.80616t1.54-0.36174q0.59946 0 1.1472 0.1447 0.54778 0.13436 1.0542 0.28939t0.97153 0.28939q0.47543 0.12402 0.84751 0.12402 0.34107 0 0.6718-0.1757 0.33073-0.18604 0.43409-0.4651z" style="font-variant-caps:normal;font-variant-east-asian:normal;font-variant-ligatures:normal;font-variant-numeric:normal"/>
  <path d="m8.6107 38.224q0-1.8066 0.54003-3.2107 0.54984-1.4139 1.5121-2.3663 0.96223-0.96223 2.2976-1.463 1.3452-0.50075 2.926-0.50075 1.5906 0 2.926 0.50075 1.3452 0.50075 2.3074 1.463 0.96223 0.95241 1.5023 2.3663 0.54984 1.4041 0.54984 3.2107t-0.54984 3.2205q-0.54003 1.4041-1.5023 2.3663-0.96223 0.95241-2.3074 1.4532-1.3353 0.50075-2.926 0.50075-1.5808 0-2.926-0.50075-1.3353-0.50075-2.2976-1.4532-0.96223-0.96223-1.5121-2.3663-0.54003-1.4139-0.54003-3.2205zm5.6752 0q0 2.3565 0.3142 3.3874 0.32402 1.0211 1.2862 1.0211 0.97205 0 1.2862-1.0211 0.32402-1.031 0.32402-3.3874t-0.32402-3.3776q-0.3142-1.031-1.2862-1.031-0.96223 0-1.2862 1.031-0.3142 1.0211-0.3142 3.3776z" style="font-variant-caps:normal;font-variant-east-asian:normal;font-variant-ligatures:normal;font-variant-numeric:normal"/>
  <path d="m8.9939 54.154q0-1.7116 0.5116-3.0417 0.52091-1.3395 1.4325-2.2418 0.91159-0.91159 2.1766-1.386 1.2744-0.4744 2.772-0.4744 1.5069 0 2.772 0.4744 1.2744 0.4744 2.1859 1.386 0.91159 0.90228 1.4232 2.2418 0.52091 1.3302 0.52091 3.0417t-0.52091 3.051q-0.5116 1.3302-1.4232 2.2418-0.91159 0.90228-2.1859 1.3767-1.2651 0.4744-2.772 0.4744-1.4976 0-2.772-0.4744-1.2651-0.4744-2.1766-1.3767-0.91159-0.91159-1.4325-2.2418-0.5116-1.3395-0.5116-3.051zm5.3765 0q0 2.2325 0.29766 3.2092 0.30696 0.9674 1.2185 0.9674 0.92089 0 1.2186-0.9674 0.30696-0.9767 0.30696-3.2092t-0.30696-3.1999q-0.29766-0.9767-1.2186-0.9767-0.91159 0-1.2185 0.9767-0.29766 0.9674-0.29766 3.1999z" style="font-variant-caps:normal;font-variant-east-asian:normal;font-variant-ligatures:normal;font-variant-numeric:normal"/>
 </g>
</svg>
