<svg width="116.69" height="271.51" version="1.1" viewBox="0 0 30.874 71.838" xmlns="http://www.w3.org/2000/svg" xmlns:xlink="http://www.w3.org/1999/xlink">
 <defs>
  <linearGradient id="linearGradient936">
   <stop stop-color="#4fd6ff" offset="0"/>
   <stop stop-color="#4fd6ff" offset=".62818"/>
   <stop stop-color="#2452e9" offset=".64665"/>
   <stop stop-color="#2452e9" stop-opacity=".29951" offset="1"/>
  </linearGradient>
  <linearGradient id="linearGradient928" x1="15.048" x2="15.048" y1="11.491" y2="21.796" gradientTransform="translate(-.46355 .7841)" gradientUnits="userSpaceOnUse">
   <stop stop-color="#aaa" offset="0"/>
   <stop stop-color="#888" offset="1"/>
  </linearGradient>
  <radialGradient id="radialGradient938-4-5-8" cx="16.005" cy="28.412" r="2.1167" gradientTransform="matrix(.5 0 0 .5 7.4539 55.258)" gradientUnits="userSpaceOnUse" xlink:href="#linearGradient936"/>
  <radialGradient id="radialGradient3023" cx="16.005" cy="28.412" r="2.1167" gradientTransform="matrix(.5 0 0 .5 7.4539 11.142)" gradientUnits="userSpaceOnUse" xlink:href="#linearGradient936"/>
  <radialGradient id="radialGradient3023-8" cx="16.005" cy="28.412" r="2.1167" gradientTransform="matrix(.5 0 0 .5 7.4539 13.899)" gradientUnits="userSpaceOnUse" xlink:href="#linearGradient936"/>
  <radialGradient id="radialGradient3023-8-9" cx="16.005" cy="28.412" r="2.1167" gradientTransform="matrix(.5 0 0 .5 7.4539 16.656)" gradientUnits="userSpaceOnUse" xlink:href="#linearGradient936"/>
  <radialGradient id="radialGradient3023-8-9-6" cx="16.005" cy="28.412" r="2.1167" gradientTransform="matrix(.5 0 0 .5 7.4539 19.414)" gradientUnits="userSpaceOnUse" xlink:href="#linearGradient936"/>
  <radialGradient id="radialGradient3023-8-9-6-0" cx="16.005" cy="28.412" r="2.1167" gradientTransform="matrix(.5 0 0 .5 7.4539 22.171)" gradientUnits="userSpaceOnUse" xlink:href="#linearGradient936"/>
  <radialGradient id="radialGradient3023-8-9-6-0-9" cx="16.005" cy="28.412" r="2.1167" gradientTransform="matrix(.5 0 0 .5 7.4539 24.928)" gradientUnits="userSpaceOnUse" xlink:href="#linearGradient936"/>
  <radialGradient id="radialGradient3023-8-9-6-0-9-4" cx="16.005" cy="28.412" r="2.1167" gradientTransform="matrix(.5 0 0 .5 7.4539 27.685)" gradientUnits="userSpaceOnUse" xlink:href="#linearGradient936"/>
  <radialGradient id="radialGradient3023-8-9-6-0-9-4-3" cx="16.005" cy="28.412" r="2.1167" gradientTransform="matrix(.5 0 0 .5 7.4539 30.443)" gradientUnits="userSpaceOnUse" xlink:href="#linearGradient936"/>
  <radialGradient id="radialGradient3023-8-9-6-0-9-4-3-9" cx="16.005" cy="28.412" r="2.1167" gradientTransform="matrix(.5 0 0 .5 7.4539 33.2)" gradientUnits="userSpaceOnUse" xlink:href="#linearGradient936"/>
  <radialGradient id="radialGradient3023-8-9-6-0-9-4-3-9-2" cx="16.005" cy="28.412" r="2.1167" gradientTransform="matrix(.5 0 0 .5 7.4539 35.957)" gradientUnits="userSpaceOnUse" xlink:href="#linearGradient936"/>
  <radialGradient id="radialGradient3023-8-9-6-0-9-4-3-9-2-0" cx="16.005" cy="28.412" r="2.1167" gradientTransform="matrix(.5 0 0 .5 7.4539 38.714)" gradientUnits="userSpaceOnUse" xlink:href="#linearGradient936"/>
  <radialGradient id="radialGradient3023-8-9-6-0-9-4-3-9-2-0-1" cx="16.005" cy="28.412" r="2.1167" gradientTransform="matrix(.5 0 0 .5 7.4539 41.472)" gradientUnits="userSpaceOnUse" xlink:href="#linearGradient936"/>
  <radialGradient id="radialGradient3023-8-9-6-0-9-4-3-9-2-0-1-4" cx="16.005" cy="28.412" r="2.1167" gradientTransform="matrix(.5 0 0 .5 7.4539 44.229)" gradientUnits="userSpaceOnUse" xlink:href="#linearGradient936"/>
  <radialGradient id="radialGradient3023-8-9-6-0-9-4-3-9-2-0-1-4-1" cx="16.005" cy="28.412" r="2.1167" gradientTransform="matrix(.5 0 0 .5 7.4539 46.986)" gradientUnits="userSpaceOnUse" xlink:href="#linearGradient936"/>
  <radialGradient id="radialGradient3023-8-9-6-0-9-4-3-9-2-0-1-4-1-3" cx="16.005" cy="28.412" r="2.1167" gradientTransform="matrix(.5 0 0 .5 7.4539 49.744)" gradientUnits="userSpaceOnUse" xlink:href="#linearGradient936"/>
  <radialGradient id="radialGradient3023-8-9-6-0-9-4-3-9-2-0-1-4-1-3-7" cx="16.005" cy="28.412" r="2.1167" gradientTransform="matrix(.5 0 0 .5 7.4539 52.501)" gradientUnits="userSpaceOnUse" xlink:href="#linearGradient936"/>
 </defs>
 <g transform="translate(-101.62 -74.108)" fill="#0e1bac">
  <path transform="rotate(-97.5)" d="m-159.18 90.941c3e-5 4.0928-0.53642 8.1678-1.5957 12.121l69.004 18.488c2.6751-9.9837 4.0313-20.274 4.0312-30.609z" color="#000000" color-rendering="auto" dominant-baseline="auto" fill="#0e1bac" image-rendering="auto" shape-rendering="auto" solid-color="#000000" stop-color="#000000" style="font-feature-settings:normal;font-variant-alternates:normal;font-variant-caps:normal;font-variant-east-asian:normal;font-variant-ligatures:normal;font-variant-numeric:normal;font-variant-position:normal;font-variation-settings:normal;inline-size:0;isolation:auto;mix-blend-mode:normal;shape-margin:0;shape-padding:0;text-decoration-color:#000000;text-decoration-line:none;text-decoration-style:solid;text-indent:0;text-orientation:mixed;text-transform:none;white-space:normal"/>
 </g>
 <g transform="matrix(.76216 0 0 1.2866 .076581 .032945)" fill="#f00" stroke="#000" stroke-width=".2672" aria-label="JACKPOT">
  <path d="m4.0427 7.6634q-0.57538 0-1.0455-0.18946-0.46311-0.18244-0.76484-0.5403l0.89114-1.0525q0.19647 0.24559 0.38593 0.36488 0.18946 0.11929 0.39295 0.11929 0.25962 0 0.39295-0.15437 0.14034-0.15437 0.14034-0.4561v-2.5682h-1.67v-1.249h3.305v3.7189q0 1.0034-0.51925 1.5016-0.51223 0.50522-1.5086 0.50522z"/>
  <path d="m9.2071 1.6882q0.71572 0 1.263 0.28769 0.54732 0.28068 0.84904 0.82799 0.30874 0.5403 0.30874 1.2911v2.6173h-1.656v-0.98938h-1.5577v0.98938h-1.6279v-2.6173q0-0.75081 0.30173-1.2911 0.30874-0.54732 0.85606-0.82799 0.54732-0.28769 1.263-0.28769zm0.76484 2.7857v-0.51925q0-0.4561-0.21752-0.68765-0.21051-0.23857-0.56135-0.23857t-0.56837 0.23857q-0.21051 0.23156-0.21051 0.68765v0.51925z"/>
  <path d="m14.926 6.6876q-0.77887 0-1.4034-0.32278-0.6245-0.32979-0.98236-0.91219-0.35084-0.58942-0.35084-1.3332t0.35084-1.3262q0.35786-0.58942 0.98236-0.91219 0.6245-0.32979 1.4034-0.32979 0.71572 0 1.2771 0.25261 0.56135 0.25261 0.92623 0.72976l-1.0455 0.93325q-0.4561-0.57538-1.0736-0.57538-0.51925 0-0.83501 0.33681-0.31576 0.32979-0.31576 0.89114t0.31576 0.89816q0.31576 0.32979 0.83501 0.32979 0.61748 0 1.0736-0.57538l1.0455 0.93325q-0.36488 0.47715-0.92623 0.72976-0.56135 0.25261-1.2771 0.25261z"/>
  <path d="m19.606 4.8102-0.3719 0.414v1.2139h-1.6279v-4.9118h1.6279v1.7823l1.6139-1.7823h1.8033l-1.9647 2.1612 2.063 2.7506h-1.9156z"/>
  <path d="m25.339 1.6636q0.68064 0 1.1859 0.22454 0.50522 0.22454 0.77887 0.64555t0.27366 0.98236-0.27366 0.98236-0.77887 0.64555q-0.50522 0.22454-1.1859 0.22454h-0.7087v1.2069h-1.656v-4.9118zm-0.10525 2.4278q0.33681 0 0.50522-0.14735 0.1684-0.15437 0.1684-0.42803t-0.1684-0.42101q-0.1684-0.15437-0.50522-0.15437h-0.60345v1.1508z"/>
  <path d="m30.763 6.8246q-0.79291 0-1.4244-0.32979-0.63152-0.32979-0.98938-0.91219-0.35786-0.58942-0.35786-1.3262t0.35786-1.3192q0.35786-0.58942 0.98938-0.91921 0.63152-0.32979 1.4244-0.32979 0.79291 0 1.4244 0.32979 0.63152 0.32979 0.98938 0.91921 0.35786 0.5824 0.35786 1.3192t-0.35786 1.3262q-0.35786 0.5824-0.98938 0.91219-0.63152 0.32979-1.4244 0.32979zm0-1.3402q0.30874 0 0.55433-0.14735 0.25261-0.15437 0.39996-0.42803 0.14736-0.28068 0.14736-0.65257t-0.14736-0.64555q-0.14735-0.28068-0.39996-0.42803-0.24559-0.15437-0.55433-0.15437-0.30874 0-0.56135 0.15437-0.24559 0.14735-0.39294 0.42803-0.14735 0.27366-0.14735 0.64555t0.14735 0.65257q0.14736 0.27366 0.39294 0.42803 0.25261 0.14735 0.56135 0.14735z"/>
  <path d="m38.046 3.6568q-0.56837-0.31576-1.1508-0.43505v3.6277h-1.656v-3.6277q-0.5824 0.11929-1.1508 0.43505l-0.54732-1.1788q0.52627-0.31576 1.1788-0.48416 0.65257-0.16841 1.3472-0.16841t1.3472 0.16841q0.65257 0.16841 1.1788 0.48416z"/>
 </g>
 <g fill="url(#linearGradient928)" stroke="#000" stroke-width=".26459" aria-label="$">
  <path d="m19.221 18.306q0 1.0075-0.73167 1.7632-0.71968 0.74367-2.0631 0.98356v1.3314h-1.6912v-1.2714q-0.8996-0.04798-1.7272-0.27588-0.81563-0.2279-1.3554-0.56375l0.91159-2.0631q0.59973 0.34784 1.3434 0.56375 0.74367 0.20391 1.4274 0.20391 0.58774 0 0.83962-0.10795 0.25189-0.11995 0.25189-0.34784 0-0.26388-0.33585-0.39582-0.32386-0.13194-1.0795-0.28787-0.97156-0.20391-1.6193-0.43181-0.64771-0.23989-1.1275-0.76765-0.47978-0.53976-0.47978-1.4513 0-1.0555 0.75566-1.8112 0.76765-0.75566 2.195-0.95957v-1.3074h1.6912v1.2834q1.4394 0.13194 2.4349 0.69569l-0.85162 2.0511q-1.2354-0.62372-2.3389-0.62372-1.0915 0-1.0915 0.52776 0 0.25189 0.32385 0.38383 0.32385 0.11995 1.0675 0.26388 0.95957 0.17992 1.6193 0.41981 0.6597 0.2279 1.1395 0.75566 0.49178 0.52776 0.49178 1.4394z" fill="url(#linearGradient928)" stroke="#000" stroke-width=".26459"/>
 </g>
 <g>
  <path d="m16.495 25.364a1.0583 1.0583 0 0 1-1.0583 1.0583 1.0583 1.0583 0 0 1-1.0583-1.0583 1.0583 1.0583 0 0 1 1.0583-1.0583 1.0583 1.0583 0 0 1 1.0583 1.0583z" fill="url(#radialGradient3023)" style="paint-order:markers fill stroke"/>
  <path d="m16.495 69.48a1.0583 1.0583 0 0 1-1.0583 1.0583 1.0583 1.0583 0 0 1-1.0583-1.0583 1.0583 1.0583 0 0 1 1.0583-1.0583 1.0583 1.0583 0 0 1 1.0583 1.0583z" fill="url(#radialGradient938-4-5-8)" style="paint-order:markers fill stroke"/>
  <path d="m16.495 28.121a1.0583 1.0583 0 0 1-1.0583 1.0583 1.0583 1.0583 0 0 1-1.0583-1.0583 1.0583 1.0583 0 0 1 1.0583-1.0583 1.0583 1.0583 0 0 1 1.0583 1.0583z" fill="url(#radialGradient3023-8)" style="paint-order:markers fill stroke"/>
  <path d="m16.495 30.878a1.0583 1.0583 0 0 1-1.0583 1.0583 1.0583 1.0583 0 0 1-1.0583-1.0583 1.0583 1.0583 0 0 1 1.0583-1.0583 1.0583 1.0583 0 0 1 1.0583 1.0583z" fill="url(#radialGradient3023-8-9)" style="paint-order:markers fill stroke"/>
  <path d="m16.495 33.636a1.0583 1.0583 0 0 1-1.0583 1.0583 1.0583 1.0583 0 0 1-1.0583-1.0583 1.0583 1.0583 0 0 1 1.0583-1.0583 1.0583 1.0583 0 0 1 1.0583 1.0583z" fill="url(#radialGradient3023-8-9-6)" style="paint-order:markers fill stroke"/>
  <path d="m16.495 36.393a1.0583 1.0583 0 0 1-1.0583 1.0583 1.0583 1.0583 0 0 1-1.0583-1.0583 1.0583 1.0583 0 0 1 1.0583-1.0583 1.0583 1.0583 0 0 1 1.0583 1.0583z" fill="url(#radialGradient3023-8-9-6-0)" style="paint-order:markers fill stroke"/>
  <path d="m16.495 39.15a1.0583 1.0583 0 0 1-1.0583 1.0583 1.0583 1.0583 0 0 1-1.0583-1.0583 1.0583 1.0583 0 0 1 1.0583-1.0583 1.0583 1.0583 0 0 1 1.0583 1.0583z" fill="url(#radialGradient3023-8-9-6-0-9)" style="paint-order:markers fill stroke"/>
  <path d="m16.495 41.908a1.0583 1.0583 0 0 1-1.0583 1.0583 1.0583 1.0583 0 0 1-1.0583-1.0583 1.0583 1.0583 0 0 1 1.0583-1.0583 1.0583 1.0583 0 0 1 1.0583 1.0583z" fill="url(#radialGradient3023-8-9-6-0-9-4)" style="paint-order:markers fill stroke"/>
  <path d="m16.495 44.665a1.0583 1.0583 0 0 1-1.0583 1.0583 1.0583 1.0583 0 0 1-1.0583-1.0583 1.0583 1.0583 0 0 1 1.0583-1.0583 1.0583 1.0583 0 0 1 1.0583 1.0583z" fill="url(#radialGradient3023-8-9-6-0-9-4-3)" style="paint-order:markers fill stroke"/>
  <path d="m16.495 47.422a1.0583 1.0583 0 0 1-1.0583 1.0583 1.0583 1.0583 0 0 1-1.0583-1.0583 1.0583 1.0583 0 0 1 1.0583-1.0583 1.0583 1.0583 0 0 1 1.0583 1.0583z" fill="url(#radialGradient3023-8-9-6-0-9-4-3-9)" style="paint-order:markers fill stroke"/>
  <path d="m16.495 50.179a1.0583 1.0583 0 0 1-1.0583 1.0583 1.0583 1.0583 0 0 1-1.0583-1.0583 1.0583 1.0583 0 0 1 1.0583-1.0583 1.0583 1.0583 0 0 1 1.0583 1.0583z" fill="url(#radialGradient3023-8-9-6-0-9-4-3-9-2)" style="paint-order:markers fill stroke"/>
  <path d="m16.495 52.937a1.0583 1.0583 0 0 1-1.0583 1.0583 1.0583 1.0583 0 0 1-1.0583-1.0583 1.0583 1.0583 0 0 1 1.0583-1.0583 1.0583 1.0583 0 0 1 1.0583 1.0583z" fill="url(#radialGradient3023-8-9-6-0-9-4-3-9-2-0)" style="paint-order:markers fill stroke"/>
  <path d="m16.495 55.694a1.0583 1.0583 0 0 1-1.0583 1.0583 1.0583 1.0583 0 0 1-1.0583-1.0583 1.0583 1.0583 0 0 1 1.0583-1.0583 1.0583 1.0583 0 0 1 1.0583 1.0583z" fill="url(#radialGradient3023-8-9-6-0-9-4-3-9-2-0-1)" style="paint-order:markers fill stroke"/>
  <path d="m16.495 58.451a1.0583 1.0583 0 0 1-1.0583 1.0583 1.0583 1.0583 0 0 1-1.0583-1.0583 1.0583 1.0583 0 0 1 1.0583-1.0583 1.0583 1.0583 0 0 1 1.0583 1.0583z" fill="url(#radialGradient3023-8-9-6-0-9-4-3-9-2-0-1-4)" style="paint-order:markers fill stroke"/>
  <path d="m16.495 61.209a1.0583 1.0583 0 0 1-1.0583 1.0583 1.0583 1.0583 0 0 1-1.0583-1.0583 1.0583 1.0583 0 0 1 1.0583-1.0583 1.0583 1.0583 0 0 1 1.0583 1.0583z" fill="url(#radialGradient3023-8-9-6-0-9-4-3-9-2-0-1-4-1)" style="paint-order:markers fill stroke"/>
  <path d="m16.495 63.966a1.0583 1.0583 0 0 1-1.0583 1.0583 1.0583 1.0583 0 0 1-1.0583-1.0583 1.0583 1.0583 0 0 1 1.0583-1.0583 1.0583 1.0583 0 0 1 1.0583 1.0583z" fill="url(#radialGradient3023-8-9-6-0-9-4-3-9-2-0-1-4-1-3)" style="paint-order:markers fill stroke"/>
  <path d="m16.495 66.723a1.0583 1.0583 0 0 1-1.0583 1.0583 1.0583 1.0583 0 0 1-1.0583-1.0583 1.0583 1.0583 0 0 1 1.0583-1.0583 1.0583 1.0583 0 0 1 1.0583 1.0583z" fill="url(#radialGradient3023-8-9-6-0-9-4-3-9-2-0-1-4-1-3-7)" style="paint-order:markers fill stroke"/>
 </g>
 <g transform="rotate(-7.5 16.573 103.39)">
  <path d="m16.495 36.393a1.0583 1.0583 0 0 1-1.0583 1.0583 1.0583 1.0583 0 0 1-1.0583-1.0583 1.0583 1.0583 0 0 1 1.0583-1.0583 1.0583 1.0583 0 0 1 1.0583 1.0583z" fill="url(#radialGradient3023-8-9-6-0)" style="paint-order:markers fill stroke"/>
  <path d="m16.495 69.48a1.0583 1.0583 0 0 1-1.0583 1.0583 1.0583 1.0583 0 0 1-1.0583-1.0583 1.0583 1.0583 0 0 1 1.0583-1.0583 1.0583 1.0583 0 0 1 1.0583 1.0583z" fill="url(#radialGradient938-4-5-8)" style="paint-order:markers fill stroke"/>
  <path d="m16.495 39.15a1.0583 1.0583 0 0 1-1.0583 1.0583 1.0583 1.0583 0 0 1-1.0583-1.0583 1.0583 1.0583 0 0 1 1.0583-1.0583 1.0583 1.0583 0 0 1 1.0583 1.0583z" fill="url(#radialGradient3023-8-9-6-0-9)" style="paint-order:markers fill stroke"/>
  <path d="m16.495 41.908a1.0583 1.0583 0 0 1-1.0583 1.0583 1.0583 1.0583 0 0 1-1.0583-1.0583 1.0583 1.0583 0 0 1 1.0583-1.0583 1.0583 1.0583 0 0 1 1.0583 1.0583z" fill="url(#radialGradient3023-8-9-6-0-9-4)" style="paint-order:markers fill stroke"/>
  <path d="m16.495 44.665a1.0583 1.0583 0 0 1-1.0583 1.0583 1.0583 1.0583 0 0 1-1.0583-1.0583 1.0583 1.0583 0 0 1 1.0583-1.0583 1.0583 1.0583 0 0 1 1.0583 1.0583z" fill="url(#radialGradient3023-8-9-6-0-9-4-3)" style="paint-order:markers fill stroke"/>
  <path d="m16.495 47.422a1.0583 1.0583 0 0 1-1.0583 1.0583 1.0583 1.0583 0 0 1-1.0583-1.0583 1.0583 1.0583 0 0 1 1.0583-1.0583 1.0583 1.0583 0 0 1 1.0583 1.0583z" fill="url(#radialGradient3023-8-9-6-0-9-4-3-9)" style="paint-order:markers fill stroke"/>
  <path d="m16.495 50.179a1.0583 1.0583 0 0 1-1.0583 1.0583 1.0583 1.0583 0 0 1-1.0583-1.0583 1.0583 1.0583 0 0 1 1.0583-1.0583 1.0583 1.0583 0 0 1 1.0583 1.0583z" fill="url(#radialGradient3023-8-9-6-0-9-4-3-9-2)" style="paint-order:markers fill stroke"/>
  <path d="m16.495 52.937a1.0583 1.0583 0 0 1-1.0583 1.0583 1.0583 1.0583 0 0 1-1.0583-1.0583 1.0583 1.0583 0 0 1 1.0583-1.0583 1.0583 1.0583 0 0 1 1.0583 1.0583z" fill="url(#radialGradient3023-8-9-6-0-9-4-3-9-2-0)" style="paint-order:markers fill stroke"/>
  <path d="m16.495 55.694a1.0583 1.0583 0 0 1-1.0583 1.0583 1.0583 1.0583 0 0 1-1.0583-1.0583 1.0583 1.0583 0 0 1 1.0583-1.0583 1.0583 1.0583 0 0 1 1.0583 1.0583z" fill="url(#radialGradient3023-8-9-6-0-9-4-3-9-2-0-1)" style="paint-order:markers fill stroke"/>
  <path d="m16.495 58.451a1.0583 1.0583 0 0 1-1.0583 1.0583 1.0583 1.0583 0 0 1-1.0583-1.0583 1.0583 1.0583 0 0 1 1.0583-1.0583 1.0583 1.0583 0 0 1 1.0583 1.0583z" fill="url(#radialGradient3023-8-9-6-0-9-4-3-9-2-0-1-4)" style="paint-order:markers fill stroke"/>
  <path d="m16.495 61.209a1.0583 1.0583 0 0 1-1.0583 1.0583 1.0583 1.0583 0 0 1-1.0583-1.0583 1.0583 1.0583 0 0 1 1.0583-1.0583 1.0583 1.0583 0 0 1 1.0583 1.0583z" fill="url(#radialGradient3023-8-9-6-0-9-4-3-9-2-0-1-4-1)" style="paint-order:markers fill stroke"/>
  <path d="m16.495 63.966a1.0583 1.0583 0 0 1-1.0583 1.0583 1.0583 1.0583 0 0 1-1.0583-1.0583 1.0583 1.0583 0 0 1 1.0583-1.0583 1.0583 1.0583 0 0 1 1.0583 1.0583z" fill="url(#radialGradient3023-8-9-6-0-9-4-3-9-2-0-1-4-1-3)" style="paint-order:markers fill stroke"/>
  <path d="m16.495 66.723a1.0583 1.0583 0 0 1-1.0583 1.0583 1.0583 1.0583 0 0 1-1.0583-1.0583 1.0583 1.0583 0 0 1 1.0583-1.0583 1.0583 1.0583 0 0 1 1.0583 1.0583z" fill="url(#radialGradient3023-8-9-6-0-9-4-3-9-2-0-1-4-1-3-7)" style="paint-order:markers fill stroke"/>
 </g>
 <g transform="rotate(-3.7537 17.148 103.2)">
  <path d="m16.495 30.878a1.0583 1.0583 0 0 1-1.0583 1.0583 1.0583 1.0583 0 0 1-1.0583-1.0583 1.0583 1.0583 0 0 1 1.0583-1.0583 1.0583 1.0583 0 0 1 1.0583 1.0583z" fill="url(#radialGradient3023-8-9)" style="paint-order:markers fill stroke"/>
  <path d="m16.495 69.48a1.0583 1.0583 0 0 1-1.0583 1.0583 1.0583 1.0583 0 0 1-1.0583-1.0583 1.0583 1.0583 0 0 1 1.0583-1.0583 1.0583 1.0583 0 0 1 1.0583 1.0583z" fill="url(#radialGradient938-4-5-8)" style="paint-order:markers fill stroke"/>
  <path d="m16.495 33.636a1.0583 1.0583 0 0 1-1.0583 1.0583 1.0583 1.0583 0 0 1-1.0583-1.0583 1.0583 1.0583 0 0 1 1.0583-1.0583 1.0583 1.0583 0 0 1 1.0583 1.0583z" fill="url(#radialGradient3023-8-9-6)" style="paint-order:markers fill stroke"/>
  <path d="m16.495 36.393a1.0583 1.0583 0 0 1-1.0583 1.0583 1.0583 1.0583 0 0 1-1.0583-1.0583 1.0583 1.0583 0 0 1 1.0583-1.0583 1.0583 1.0583 0 0 1 1.0583 1.0583z" fill="url(#radialGradient3023-8-9-6-0)" style="paint-order:markers fill stroke"/>
  <path d="m16.495 39.15a1.0583 1.0583 0 0 1-1.0583 1.0583 1.0583 1.0583 0 0 1-1.0583-1.0583 1.0583 1.0583 0 0 1 1.0583-1.0583 1.0583 1.0583 0 0 1 1.0583 1.0583z" fill="url(#radialGradient3023-8-9-6-0-9)" style="paint-order:markers fill stroke"/>
  <path d="m16.495 41.908a1.0583 1.0583 0 0 1-1.0583 1.0583 1.0583 1.0583 0 0 1-1.0583-1.0583 1.0583 1.0583 0 0 1 1.0583-1.0583 1.0583 1.0583 0 0 1 1.0583 1.0583z" fill="url(#radialGradient3023-8-9-6-0-9-4)" style="paint-order:markers fill stroke"/>
  <path d="m16.495 44.665a1.0583 1.0583 0 0 1-1.0583 1.0583 1.0583 1.0583 0 0 1-1.0583-1.0583 1.0583 1.0583 0 0 1 1.0583-1.0583 1.0583 1.0583 0 0 1 1.0583 1.0583z" fill="url(#radialGradient3023-8-9-6-0-9-4-3)" style="paint-order:markers fill stroke"/>
  <path d="m16.495 47.422a1.0583 1.0583 0 0 1-1.0583 1.0583 1.0583 1.0583 0 0 1-1.0583-1.0583 1.0583 1.0583 0 0 1 1.0583-1.0583 1.0583 1.0583 0 0 1 1.0583 1.0583z" fill="url(#radialGradient3023-8-9-6-0-9-4-3-9)" style="paint-order:markers fill stroke"/>
  <path d="m16.495 50.179a1.0583 1.0583 0 0 1-1.0583 1.0583 1.0583 1.0583 0 0 1-1.0583-1.0583 1.0583 1.0583 0 0 1 1.0583-1.0583 1.0583 1.0583 0 0 1 1.0583 1.0583z" fill="url(#radialGradient3023-8-9-6-0-9-4-3-9-2)" style="paint-order:markers fill stroke"/>
  <path d="m16.495 52.937a1.0583 1.0583 0 0 1-1.0583 1.0583 1.0583 1.0583 0 0 1-1.0583-1.0583 1.0583 1.0583 0 0 1 1.0583-1.0583 1.0583 1.0583 0 0 1 1.0583 1.0583z" fill="url(#radialGradient3023-8-9-6-0-9-4-3-9-2-0)" style="paint-order:markers fill stroke"/>
  <path d="m16.495 55.694a1.0583 1.0583 0 0 1-1.0583 1.0583 1.0583 1.0583 0 0 1-1.0583-1.0583 1.0583 1.0583 0 0 1 1.0583-1.0583 1.0583 1.0583 0 0 1 1.0583 1.0583z" fill="url(#radialGradient3023-8-9-6-0-9-4-3-9-2-0-1)" style="paint-order:markers fill stroke"/>
  <path d="m16.495 58.451a1.0583 1.0583 0 0 1-1.0583 1.0583 1.0583 1.0583 0 0 1-1.0583-1.0583 1.0583 1.0583 0 0 1 1.0583-1.0583 1.0583 1.0583 0 0 1 1.0583 1.0583z" fill="url(#radialGradient3023-8-9-6-0-9-4-3-9-2-0-1-4)" style="paint-order:markers fill stroke"/>
  <path d="m16.495 61.209a1.0583 1.0583 0 0 1-1.0583 1.0583 1.0583 1.0583 0 0 1-1.0583-1.0583 1.0583 1.0583 0 0 1 1.0583-1.0583 1.0583 1.0583 0 0 1 1.0583 1.0583z" fill="url(#radialGradient3023-8-9-6-0-9-4-3-9-2-0-1-4-1)" style="paint-order:markers fill stroke"/>
  <path d="m16.495 63.966a1.0583 1.0583 0 0 1-1.0583 1.0583 1.0583 1.0583 0 0 1-1.0583-1.0583 1.0583 1.0583 0 0 1 1.0583-1.0583 1.0583 1.0583 0 0 1 1.0583 1.0583z" fill="url(#radialGradient3023-8-9-6-0-9-4-3-9-2-0-1-4-1-3)" style="paint-order:markers fill stroke"/>
  <path d="m16.495 66.723a1.0583 1.0583 0 0 1-1.0583 1.0583 1.0583 1.0583 0 0 1-1.0583-1.0583 1.0583 1.0583 0 0 1 1.0583-1.0583 1.0583 1.0583 0 0 1 1.0583 1.0583z" fill="url(#radialGradient3023-8-9-6-0-9-4-3-9-2-0-1-4-1-3-7)" style="paint-order:markers fill stroke"/>
 </g>
 <g transform="rotate(7.5 13.908 103.41)">
  <path d="m16.495 36.393a1.0583 1.0583 0 0 1-1.0583 1.0583 1.0583 1.0583 0 0 1-1.0583-1.0583 1.0583 1.0583 0 0 1 1.0583-1.0583 1.0583 1.0583 0 0 1 1.0583 1.0583z" fill="url(#radialGradient3023-8-9-6-0)" style="paint-order:markers fill stroke"/>
  <path d="m16.495 69.48a1.0583 1.0583 0 0 1-1.0583 1.0583 1.0583 1.0583 0 0 1-1.0583-1.0583 1.0583 1.0583 0 0 1 1.0583-1.0583 1.0583 1.0583 0 0 1 1.0583 1.0583z" fill="url(#radialGradient938-4-5-8)" style="paint-order:markers fill stroke"/>
  <path d="m16.495 39.15a1.0583 1.0583 0 0 1-1.0583 1.0583 1.0583 1.0583 0 0 1-1.0583-1.0583 1.0583 1.0583 0 0 1 1.0583-1.0583 1.0583 1.0583 0 0 1 1.0583 1.0583z" fill="url(#radialGradient3023-8-9-6-0-9)" style="paint-order:markers fill stroke"/>
  <path d="m16.495 41.908a1.0583 1.0583 0 0 1-1.0583 1.0583 1.0583 1.0583 0 0 1-1.0583-1.0583 1.0583 1.0583 0 0 1 1.0583-1.0583 1.0583 1.0583 0 0 1 1.0583 1.0583z" fill="url(#radialGradient3023-8-9-6-0-9-4)" style="paint-order:markers fill stroke"/>
  <path d="m16.495 44.665a1.0583 1.0583 0 0 1-1.0583 1.0583 1.0583 1.0583 0 0 1-1.0583-1.0583 1.0583 1.0583 0 0 1 1.0583-1.0583 1.0583 1.0583 0 0 1 1.0583 1.0583z" fill="url(#radialGradient3023-8-9-6-0-9-4-3)" style="paint-order:markers fill stroke"/>
  <path d="m16.495 47.422a1.0583 1.0583 0 0 1-1.0583 1.0583 1.0583 1.0583 0 0 1-1.0583-1.0583 1.0583 1.0583 0 0 1 1.0583-1.0583 1.0583 1.0583 0 0 1 1.0583 1.0583z" fill="url(#radialGradient3023-8-9-6-0-9-4-3-9)" style="paint-order:markers fill stroke"/>
  <path d="m16.495 50.179a1.0583 1.0583 0 0 1-1.0583 1.0583 1.0583 1.0583 0 0 1-1.0583-1.0583 1.0583 1.0583 0 0 1 1.0583-1.0583 1.0583 1.0583 0 0 1 1.0583 1.0583z" fill="url(#radialGradient3023-8-9-6-0-9-4-3-9-2)" style="paint-order:markers fill stroke"/>
  <path d="m16.495 52.937a1.0583 1.0583 0 0 1-1.0583 1.0583 1.0583 1.0583 0 0 1-1.0583-1.0583 1.0583 1.0583 0 0 1 1.0583-1.0583 1.0583 1.0583 0 0 1 1.0583 1.0583z" fill="url(#radialGradient3023-8-9-6-0-9-4-3-9-2-0)" style="paint-order:markers fill stroke"/>
  <path d="m16.495 55.694a1.0583 1.0583 0 0 1-1.0583 1.0583 1.0583 1.0583 0 0 1-1.0583-1.0583 1.0583 1.0583 0 0 1 1.0583-1.0583 1.0583 1.0583 0 0 1 1.0583 1.0583z" fill="url(#radialGradient3023-8-9-6-0-9-4-3-9-2-0-1)" style="paint-order:markers fill stroke"/>
  <path d="m16.495 58.451a1.0583 1.0583 0 0 1-1.0583 1.0583 1.0583 1.0583 0 0 1-1.0583-1.0583 1.0583 1.0583 0 0 1 1.0583-1.0583 1.0583 1.0583 0 0 1 1.0583 1.0583z" fill="url(#radialGradient3023-8-9-6-0-9-4-3-9-2-0-1-4)" style="paint-order:markers fill stroke"/>
  <path d="m16.495 61.209a1.0583 1.0583 0 0 1-1.0583 1.0583 1.0583 1.0583 0 0 1-1.0583-1.0583 1.0583 1.0583 0 0 1 1.0583-1.0583 1.0583 1.0583 0 0 1 1.0583 1.0583z" fill="url(#radialGradient3023-8-9-6-0-9-4-3-9-2-0-1-4-1)" style="paint-order:markers fill stroke"/>
  <path d="m16.495 63.966a1.0583 1.0583 0 0 1-1.0583 1.0583 1.0583 1.0583 0 0 1-1.0583-1.0583 1.0583 1.0583 0 0 1 1.0583-1.0583 1.0583 1.0583 0 0 1 1.0583 1.0583z" fill="url(#radialGradient3023-8-9-6-0-9-4-3-9-2-0-1-4-1-3)" style="paint-order:markers fill stroke"/>
  <path d="m16.495 66.723a1.0583 1.0583 0 0 1-1.0583 1.0583 1.0583 1.0583 0 0 1-1.0583-1.0583 1.0583 1.0583 0 0 1 1.0583-1.0583 1.0583 1.0583 0 0 1 1.0583 1.0583z" fill="url(#radialGradient3023-8-9-6-0-9-4-3-9-2-0-1-4-1-3-7)" style="paint-order:markers fill stroke"/>
 </g>
 <g transform="rotate(3.7474 13.848 103.28)">
  <path d="m16.495 30.878a1.0583 1.0583 0 0 1-1.0583 1.0583 1.0583 1.0583 0 0 1-1.0583-1.0583 1.0583 1.0583 0 0 1 1.0583-1.0583 1.0583 1.0583 0 0 1 1.0583 1.0583z" fill="url(#radialGradient3023-8-9)" style="paint-order:markers fill stroke"/>
  <path d="m16.495 69.48a1.0583 1.0583 0 0 1-1.0583 1.0583 1.0583 1.0583 0 0 1-1.0583-1.0583 1.0583 1.0583 0 0 1 1.0583-1.0583 1.0583 1.0583 0 0 1 1.0583 1.0583z" fill="url(#radialGradient938-4-5-8)" style="paint-order:markers fill stroke"/>
  <path d="m16.495 33.636a1.0583 1.0583 0 0 1-1.0583 1.0583 1.0583 1.0583 0 0 1-1.0583-1.0583 1.0583 1.0583 0 0 1 1.0583-1.0583 1.0583 1.0583 0 0 1 1.0583 1.0583z" fill="url(#radialGradient3023-8-9-6)" style="paint-order:markers fill stroke"/>
  <path d="m16.495 36.393a1.0583 1.0583 0 0 1-1.0583 1.0583 1.0583 1.0583 0 0 1-1.0583-1.0583 1.0583 1.0583 0 0 1 1.0583-1.0583 1.0583 1.0583 0 0 1 1.0583 1.0583z" fill="url(#radialGradient3023-8-9-6-0)" style="paint-order:markers fill stroke"/>
  <path d="m16.495 39.15a1.0583 1.0583 0 0 1-1.0583 1.0583 1.0583 1.0583 0 0 1-1.0583-1.0583 1.0583 1.0583 0 0 1 1.0583-1.0583 1.0583 1.0583 0 0 1 1.0583 1.0583z" fill="url(#radialGradient3023-8-9-6-0-9)" style="paint-order:markers fill stroke"/>
  <path d="m16.495 41.908a1.0583 1.0583 0 0 1-1.0583 1.0583 1.0583 1.0583 0 0 1-1.0583-1.0583 1.0583 1.0583 0 0 1 1.0583-1.0583 1.0583 1.0583 0 0 1 1.0583 1.0583z" fill="url(#radialGradient3023-8-9-6-0-9-4)" style="paint-order:markers fill stroke"/>
  <path d="m16.495 44.665a1.0583 1.0583 0 0 1-1.0583 1.0583 1.0583 1.0583 0 0 1-1.0583-1.0583 1.0583 1.0583 0 0 1 1.0583-1.0583 1.0583 1.0583 0 0 1 1.0583 1.0583z" fill="url(#radialGradient3023-8-9-6-0-9-4-3)" style="paint-order:markers fill stroke"/>
  <path d="m16.495 47.422a1.0583 1.0583 0 0 1-1.0583 1.0583 1.0583 1.0583 0 0 1-1.0583-1.0583 1.0583 1.0583 0 0 1 1.0583-1.0583 1.0583 1.0583 0 0 1 1.0583 1.0583z" fill="url(#radialGradient3023-8-9-6-0-9-4-3-9)" style="paint-order:markers fill stroke"/>
  <path d="m16.495 50.179a1.0583 1.0583 0 0 1-1.0583 1.0583 1.0583 1.0583 0 0 1-1.0583-1.0583 1.0583 1.0583 0 0 1 1.0583-1.0583 1.0583 1.0583 0 0 1 1.0583 1.0583z" fill="url(#radialGradient3023-8-9-6-0-9-4-3-9-2)" style="paint-order:markers fill stroke"/>
  <path d="m16.495 52.937a1.0583 1.0583 0 0 1-1.0583 1.0583 1.0583 1.0583 0 0 1-1.0583-1.0583 1.0583 1.0583 0 0 1 1.0583-1.0583 1.0583 1.0583 0 0 1 1.0583 1.0583z" fill="url(#radialGradient3023-8-9-6-0-9-4-3-9-2-0)" style="paint-order:markers fill stroke"/>
  <path d="m16.495 55.694a1.0583 1.0583 0 0 1-1.0583 1.0583 1.0583 1.0583 0 0 1-1.0583-1.0583 1.0583 1.0583 0 0 1 1.0583-1.0583 1.0583 1.0583 0 0 1 1.0583 1.0583z" fill="url(#radialGradient3023-8-9-6-0-9-4-3-9-2-0-1)" style="paint-order:markers fill stroke"/>
  <path d="m16.495 58.451a1.0583 1.0583 0 0 1-1.0583 1.0583 1.0583 1.0583 0 0 1-1.0583-1.0583 1.0583 1.0583 0 0 1 1.0583-1.0583 1.0583 1.0583 0 0 1 1.0583 1.0583z" fill="url(#radialGradient3023-8-9-6-0-9-4-3-9-2-0-1-4)" style="paint-order:markers fill stroke"/>
  <path d="m16.495 61.209a1.0583 1.0583 0 0 1-1.0583 1.0583 1.0583 1.0583 0 0 1-1.0583-1.0583 1.0583 1.0583 0 0 1 1.0583-1.0583 1.0583 1.0583 0 0 1 1.0583 1.0583z" fill="url(#radialGradient3023-8-9-6-0-9-4-3-9-2-0-1-4-1)" style="paint-order:markers fill stroke"/>
  <path d="m16.495 63.966a1.0583 1.0583 0 0 1-1.0583 1.0583 1.0583 1.0583 0 0 1-1.0583-1.0583 1.0583 1.0583 0 0 1 1.0583-1.0583 1.0583 1.0583 0 0 1 1.0583 1.0583z" fill="url(#radialGradient3023-8-9-6-0-9-4-3-9-2-0-1-4-1-3)" style="paint-order:markers fill stroke"/>
  <path d="m16.495 66.723a1.0583 1.0583 0 0 1-1.0583 1.0583 1.0583 1.0583 0 0 1-1.0583-1.0583 1.0583 1.0583 0 0 1 1.0583-1.0583 1.0583 1.0583 0 0 1 1.0583 1.0583z" fill="url(#radialGradient3023-8-9-6-0-9-4-3-9-2-0-1-4-1-3-7)" style="paint-order:markers fill stroke"/>
 </g>
</svg>
