<svg width="116.69" height="271.51" version="1.1" viewBox="0 0 30.874 71.838" xmlns="http://www.w3.org/2000/svg" xmlns:xlink="http://www.w3.org/1999/xlink">
 <defs>
  <filter id="filter861" color-interpolation-filters="sRGB">
   <feFlood flood-color="rgb(0,0,0)" flood-opacity=".32941" result="flood"/>
   <feComposite in="flood" in2="SourceGraphic" operator="in" result="composite1"/>
   <feGaussianBlur in="composite1" result="blur"/>
   <feOffset dx="0.8" dy="0.8" result="offset"/>
   <feComposite in="SourceGraphic" in2="offset" result="composite2"/>
  </filter>
  <filter id="filter873" color-interpolation-filters="sRGB">
   <feFlood flood-color="rgb(0,0,0)" flood-opacity=".32941" result="flood"/>
   <feComposite in="flood" in2="SourceGraphic" operator="in" result="composite1"/>
   <feGaussianBlur in="composite1" result="blur"/>
   <feOffset dx="0.8" dy="0.8" result="offset"/>
   <feComposite in="SourceGraphic" in2="offset" result="composite2"/>
  </filter>
  <linearGradient id="linearGradient889" x1="-160.98" x2="-87.718" y1="96.79" y2="106.81" gradientUnits="userSpaceOnUse">
   <stop stop-color="#9f9f9f" stop-opacity=".6" offset="0"/>
   <stop stop-opacity="0" offset=".50132"/>
   <stop stop-color="#9f9f9f" stop-opacity=".6" offset="1"/>
  </linearGradient>
 </defs>
 <g transform="translate(-101.62 -74.108)">
  <path transform="rotate(-97.5)" d="m-159.18 90.941c3e-5 4.0928-0.53642 8.1678-1.5957 12.121l69.004 18.488c2.6751-9.9837 4.0313-20.274 4.0312-30.609h-71.439z" color="#000000" color-rendering="auto" dominant-baseline="auto" fill="url(#linearGradient889)" image-rendering="auto" shape-rendering="auto" solid-color="#000000" stop-color="#000000" style="font-feature-settings:normal;font-variant-alternates:normal;font-variant-caps:normal;font-variant-east-asian:normal;font-variant-ligatures:normal;font-variant-numeric:normal;font-variant-position:normal;font-variation-settings:normal;inline-size:0;isolation:auto;mix-blend-mode:normal;shape-margin:0;shape-padding:0;text-decoration-color:#000000;text-decoration-line:none;text-decoration-style:solid;text-indent:0;text-orientation:mixed;text-transform:none;white-space:normal"/>
 </g>
 <g transform="matrix(.90678 0 0 1 1.1295 1.2406)" filter="url(#filter861)" stroke="#e0e0e0" stroke-opacity=".94" stroke-width=".34732" aria-label=" 5 0 0 0">
  <path d="m14.797 24.453q1.1722 0 1.754-0.61649 0.59044-0.62517 0.59044-1.589 0-1.0072-0.65122-1.5369-0.64254-0.53834-1.7453-0.53834-0.72937 0-1.1722 0.14761-0.44283 0.14761-0.6599 0.24312h-2.1707v-6.9377h0.37337q0.67727 0.12156 1.1982 0.19971 0.52966 0.06946 1.0593 0.1042 0.53834 0.03473 1.1462 0.04342 0.61649 0.0087 1.4501 0.0087 0.98117 0 1.7279-0.01736 0.74673-0.01737 1.3198-0.0521 0.58176-0.03473 1.042-0.1042 0.4602-0.07815 0.87698-0.18234l0.42546 0.17363q-0.18234 0.75542-0.47756 1.398-0.28654 0.63386-0.8683 1.0854-0.57308 0.45151-1.5456 0.712t-2.4833 0.26049q-0.88566 0-1.3806-0.04341-0.48624-0.04341-0.80752-0.12156v1.1548q0.16498-0.0521 0.33864-0.08683 0.18234-0.03473 0.41678-0.06946 0.24312-0.03473 0.56439-0.0521 0.32127-0.01737 0.7641-0.01737 1.6671 0 2.7959 0.36468 1.1375 0.36468 1.8061 0.99854 0.67727 0.62517 0.96381 1.4587 0.28654 0.82488 0.28654 1.7453 0 0.94644-0.36468 1.7366-0.36468 0.79015-1.1201 1.3806-0.75542 0.58176-1.9189 0.91171-1.1548 0.32995-2.7525 0.32995-2.683 0-4.1939-0.92908-1.5108-0.93776-1.5108-2.6483 0-0.61649 0.19103-1.0767 0.19971-0.46888 0.52098-0.75542 0.32127-0.29522 0.72937-0.43415 0.4081-0.14761 0.8162-0.14761 1.0159 0 1.5108 0.42546t0.49493 1.1027-0.39073 1.0246q-0.39073 0.34732-0.92039 0.50361 0.42546 0.21707 0.90303 0.32995 0.47756 0.11288 1.068 0.11288z" style="font-variant-caps:normal;font-variant-east-asian:normal;font-variant-ligatures:normal;font-variant-numeric:normal"/>
  <path d="m9.8552 34.322q0-1.4978 0.44772-2.6619 0.45586-1.1722 1.2536-1.9618 0.79775-0.79775 1.9048-1.2129 1.1152-0.41515 2.4258-0.41515 1.3187 0 2.4258 0.41515 1.1152 0.41516 1.913 1.2129 0.79775 0.78961 1.2455 1.9618 0.45586 1.1641 0.45586 2.6619t-0.45586 2.67q-0.44772 1.1641-1.2455 1.9618-0.79775 0.78961-1.913 1.2048-1.1071 0.41516-2.4258 0.41516-1.3106 0-2.4258-0.41516-1.1071-0.41515-1.9048-1.2048-0.79775-0.79775-1.2536-1.9618-0.44772-1.1722-0.44772-2.67zm4.7051 0q0 1.9537 0.26049 2.8084 0.26863 0.84659 1.0664 0.84659 0.80589 0 1.0664-0.84659 0.26863-0.85473 0.26863-2.8084t-0.26863-2.8003q-0.26049-0.85473-1.0664-0.85473-0.79775 0-1.0664 0.85473-0.26049 0.84659-0.26049 2.8003z" style="font-variant-caps:normal;font-variant-east-asian:normal;font-variant-ligatures:normal;font-variant-numeric:normal"/>
  <path d="m10.258 47.451q0-1.398 0.41786-2.4844 0.42546-1.094 1.17-1.831 0.74456-0.74456 1.7778-1.132 1.0409-0.38748 2.2641-0.38748 1.2308 0 2.2641 0.38748 1.0409 0.38748 1.7854 1.132 0.74456 0.73696 1.1624 1.831 0.42546 1.0865 0.42546 2.4844t-0.42546 2.492q-0.41787 1.0865-1.1624 1.831-0.74456 0.73696-1.7854 1.1244-1.0333 0.38748-2.2641 0.38748-1.2232 0-2.2641-0.38748-1.0333-0.38748-1.7778-1.1244-0.74456-0.74456-1.17-1.831-0.41786-1.094-0.41786-2.492zm4.3914 0q0 1.8234 0.24312 2.6212 0.25072 0.79015 0.99528 0.79015 0.75216 0 0.99528-0.79015 0.25072-0.79774 0.25072-2.6212t-0.25072-2.6136q-0.24312-0.79774-0.99528-0.79774-0.74456 0-0.99528 0.79774-0.24312 0.79015-0.24312 2.6136z" style="font-variant-caps:normal;font-variant-east-asian:normal;font-variant-ligatures:normal;font-variant-numeric:normal"/>
  <path d="m10.66 59.679q0-1.2981 0.38802-2.3069 0.39507-1.0159 1.0865-1.7002 0.69138-0.69138 1.6508-1.0512 0.96652-0.3598 2.1024-0.3598 1.1429 0 2.1024 0.3598 0.96652 0.3598 1.6579 1.0512 0.69138 0.68432 1.0794 1.7002 0.39507 1.0088 0.39507 2.3069 0 1.2981-0.39507 2.314-0.38802 1.0088-1.0794 1.7002-0.69138 0.68432-1.6579 1.0441-0.95946 0.3598-2.1024 0.3598-1.1358 0-2.1024-0.3598-0.95946-0.3598-1.6508-1.0441-0.69138-0.69138-1.0865-1.7002-0.38802-1.0159-0.38802-2.314zm4.0777 0q0 1.6932 0.22576 2.4339 0.23281 0.73371 0.92419 0.73371 0.69843 0 0.92419-0.73371 0.23281-0.74076 0.23281-2.4339t-0.23281-2.4269q-0.22576-0.74076-0.92419-0.74076-0.69138 0-0.92419 0.74076-0.22576 0.73371-0.22576 2.4269z" style="font-variant-caps:normal;font-variant-east-asian:normal;font-variant-ligatures:normal;font-variant-numeric:normal"/>
 </g>
 <g filter="url(#filter873)" stroke="#e0e0e0" stroke-opacity=".94" stroke-width=".33073" style="font-variant-caps:normal;font-variant-east-asian:normal;font-variant-ligatures:normal;font-variant-numeric:normal" aria-label="$">
  <path d="m14.811 12.616q-0.54571-0.13023-1.1286-0.45889v0.43409h-1.6123v-2.6789h1.6123q0.13643 0.58292 0.56432 0.91159 0.42789 0.32867 0.9612 0.32867 0.36588 0 0.53331-0.13643 0.17364-0.14263 0.17364-0.30386 0-0.26666-0.29146-0.41548-0.29146-0.14883-0.72555-0.26666-0.42789-0.11782-0.93639-0.26045t-0.94259-0.41549q-0.42789-0.27286-0.72555-0.71315-0.29146-0.44649-0.29146-1.172 0-0.53331 0.22945-0.93639 0.22945-0.40928 0.61393-0.68834 0.39068-0.27906 0.89918-0.42789 0.5085-0.15503 1.0666-0.15503v-1.0418h1.2589v1.1968q0.30386 0.086818 0.54571 0.19844 0.24185 0.10542 0.40308 0.20464v-0.44649h1.6309v2.6169h-1.6309q-0.037208-0.25425-0.17984-0.4651-0.13643-0.21704-0.33487-0.36587-0.19224-0.15503-0.43409-0.24185-0.24185-0.093019-0.4837-0.093019-0.30386 0-0.5023 0.11782-0.19844 0.11162-0.19844 0.32867 0 0.26665 0.29766 0.40928 0.30386 0.13643 0.73795 0.26045 0.44029 0.11782 0.9612 0.26665 0.52091 0.14263 0.955 0.41549 0.44029 0.27286 0.73795 0.73175 0.29766 0.45269 0.29766 1.1906 0 0.54571-0.22945 0.9488-0.22325 0.39688-0.61393 0.66354-0.38448 0.26666-0.89298 0.40308-0.5085 0.13023-1.0666 0.15503v1.017h-1.2589z" stroke="#e0e0e0" stroke-opacity=".94" stroke-width=".33073" style="font-variant-caps:normal;font-variant-east-asian:normal;font-variant-ligatures:normal;font-variant-numeric:normal"/>
 </g>
</svg>
