<svg width="116.69" height="271.51" version="1.1" viewBox="0 0 30.874 71.838" xmlns="http://www.w3.org/2000/svg" xmlns:xlink="http://www.w3.org/1999/xlink">
 <defs>
  <linearGradient id="linearGradient889" x1="-160.98" x2="-87.718" y1="96.79" y2="106.81" gradientUnits="userSpaceOnUse">
   <stop stop-color="#a40050" stop-opacity=".6" offset="0"/>
   <stop stop-opacity="0" offset=".50132"/>
   <stop stop-color="#a40050" stop-opacity=".6" offset="1"/>
  </linearGradient>
 </defs>
 <g transform="translate(-101.62 -74.108)">
  <path transform="rotate(-97.5)" d="m-159.18 90.941c3e-5 4.0928-0.53642 8.1678-1.5957 12.121l69.004 18.488c2.6751-9.9837 4.0313-20.274 4.0312-30.609h-71.439z" color="#000000" color-rendering="auto" dominant-baseline="auto" fill="url(#linearGradient889)" image-rendering="auto" shape-rendering="auto" solid-color="#000000" stop-color="#000000" style="font-feature-settings:normal;font-variant-alternates:normal;font-variant-caps:normal;font-variant-east-asian:normal;font-variant-ligatures:normal;font-variant-numeric:normal;font-variant-position:normal;font-variation-settings:normal;inline-size:0;isolation:auto;mix-blend-mode:normal;shape-margin:0;shape-padding:0;text-decoration-color:#000000;text-decoration-line:none;text-decoration-style:solid;text-indent:0;text-orientation:mixed;text-transform:none;white-space:normal"/>
 </g>
 <g>
  <g transform="scale(.96356 1.0378)" fill-opacity=".4" aria-label=" 3 5 0 0">
   <path d="m16.209 17.533q-0.86729 0-1.2883 0.19367-0.42102 0.18525-0.63152 0.35365 0.17683 0.01684 0.38733 0.09262 0.21893 0.06736 0.39576 0.21051 0.18525 0.13472 0.30313 0.37891 0.1263 0.23577 0.1263 0.59784 0 0.67362-0.48838 1.0778-0.47996 0.40418-1.4146 0.40418-0.44628 0-0.85045-0.13472-0.40418-0.14314-0.71573-0.42102-0.31155-0.28629-0.4968-0.69889-0.17683-0.42102-0.17683-0.98518 0-0.79151 0.39576-1.4399t1.1367-1.1115q0.74099-0.47154 1.7935-0.71573 1.0525-0.25261 2.3661-0.25261 1.0862 0 2.1388 0.16841 1.0525 0.15999 1.8693 0.55574 0.81677 0.39576 1.3136 1.0441 0.50522 0.64836 0.50522 1.5914 0 1.1788-0.69889 1.8946-0.69889 0.71573-2.1135 0.9515v0.09262q1.4146 0.16841 2.2819 0.91781 0.87571 0.74941 0.87571 2.164 0 0.60626-0.31997 1.2378-0.31997 0.6231-1.0525 1.1367-0.73257 0.50522-1.9198 0.83361-1.1873 0.32839-2.9134 0.32839-1.642 0-2.7871-0.34523-1.1452-0.34523-1.8609-0.88413-0.71573-0.54732-1.0357-1.2378-0.31997-0.69047-0.31997-1.3978 0-0.56416 0.16841-1.0104 0.17683-0.4547 0.47996-0.75783 0.30313-0.30313 0.70731-0.4547t0.85045-0.15157q0.57258 0 0.95992 0.15157 0.38733 0.15157 0.61468 0.38733 0.23577 0.23577 0.33681 0.52206 0.10946 0.27787 0.10946 0.5389 0 0.70731-0.42944 1.0862-0.42102 0.37891-0.93465 0.5389 0.84203 0.51364 2.2735 0.51364 1.1788 0 1.7262-0.44628 0.55574-0.44628 0.55574-1.2799 0-0.4126-0.16841-0.70731-0.15999-0.29471-0.42944-0.47154-0.26945-0.18525-0.61468-0.26945-0.34523-0.0842-0.69047-0.0842h-0.59784v-1.8272h0.59784q0.83361 0 1.2462-0.4126 0.4126-0.4126 0.4126-0.96834 0-0.42944-0.16841-0.72415-0.15999-0.29471-0.42944-0.46312-0.26103-0.17683-0.6231-0.24419-0.36207-0.06736-0.75783-0.06736z" style="font-variant-caps:normal;font-variant-east-asian:normal;font-variant-ligatures:normal;font-variant-numeric:normal"/>
   <path d="m16.124 38.935q1.0657 0 1.5946-0.56048 0.5368-0.56837 0.5368-1.4446 0-0.91571-0.59205-1.3972-0.58416-0.48943-1.5867-0.48943-0.6631 0-1.0657 0.1342-0.4026 0.1342-0.59995 0.22103h-1.9735v-6.3073h0.33944q0.61574 0.11052 1.0894 0.18156 0.48154 0.06315 0.96307 0.09473 0.48943 0.03158 1.042 0.03947 0.56048 0.0079 1.3183 0.0079 0.89203 0 1.5709-0.01579t1.1999-0.04736q0.5289-0.03158 0.94729-0.09473 0.41838-0.07105 0.7973-0.16578l0.38681 0.15788q-0.16578 0.68678-0.43417 1.2709-0.2605 0.57626-0.7894 0.98676-0.52101 0.41049-1.4051 0.64731t-2.2577 0.23682q-0.80519 0-1.2552-0.03947-0.44207-0.03947-0.73415-0.11052v1.0499q0.14999-0.04736 0.30787-0.07894 0.16578-0.03158 0.37891-0.06315 0.22103-0.03158 0.51311-0.04736 0.29208-0.01579 0.69468-0.01579 1.5157 0 2.5419 0.33155 1.0341 0.33155 1.642 0.90782 0.61574 0.56837 0.87624 1.3262 0.2605 0.74993 0.2605 1.5867 0 0.86045-0.33155 1.5788t-1.0183 1.2552q-0.68678 0.5289-1.7446 0.82887-1.0499 0.29997-2.5024 0.29997-2.4393 0-3.8128-0.84466-1.3736-0.85256-1.3736-2.4077 0-0.56048 0.17367-0.97886 0.18156-0.42628 0.47364-0.68678 0.29208-0.2684 0.6631-0.3947 0.37102-0.1342 0.74204-0.1342 0.9236 0 1.3736 0.38681 0.44996 0.38681 0.44996 1.0025t-0.35523 0.9315q-0.35523 0.31576-0.83677 0.45786 0.38681 0.19735 0.82098 0.29997 0.43417 0.10262 0.97097 0.10262z" style="font-variant-caps:normal;font-variant-east-asian:normal;font-variant-ligatures:normal;font-variant-numeric:normal"/>
   <path d="m11.656 47.885q0-1.3557 0.40522-2.4092 0.41259-1.061 1.1346-1.7756 0.72204-0.72204 1.724-1.0978 1.0094-0.37575 2.1956-0.37575 1.1936 0 2.1956 0.37575 1.0094 0.37575 1.7314 1.0978 0.72204 0.71467 1.1273 1.7756 0.41259 1.0536 0.41259 2.4092 0 1.3557-0.41259 2.4166-0.40522 1.0536-1.1273 1.7756-0.72204 0.71467-1.7314 1.0904-1.002 0.37575-2.1956 0.37575-1.1862 0-2.1956-0.37575-1.002-0.37575-1.724-1.0904-0.72204-0.72204-1.1346-1.7756-0.40522-1.061-0.40522-2.4166zm4.2585 0q0 1.7683 0.23577 2.5419 0.24314 0.76624 0.96517 0.76624 0.7294 0 0.96517-0.76624 0.24314-0.77361 0.24314-2.5419t-0.24314-2.5345q-0.23577-0.77361-0.96517-0.77361-0.72204 0-0.96517 0.77361-0.23577 0.76624-0.23577 2.5345z" style="font-variant-caps:normal;font-variant-east-asian:normal;font-variant-ligatures:normal;font-variant-numeric:normal"/>
   <path d="m12.046 59.744q0-1.2588 0.37628-2.2372 0.38312-0.98518 1.0536-1.6488 0.67047-0.67047 1.6009-1.0194 0.93729-0.34892 2.0388-0.34892 1.1083 0 2.0388 0.34892 0.93729 0.34892 1.6078 1.0194 0.67047 0.66363 1.0468 1.6488 0.38312 0.97834 0.38312 2.2372 0 1.2588-0.38312 2.244-0.37628 0.97834-1.0468 1.6488-0.67047 0.66362-1.6078 1.0125-0.93044 0.34892-2.0388 0.34892-1.1015 0-2.0388-0.34892-0.93044-0.34892-1.6009-1.0125-0.67047-0.67047-1.0536-1.6488-0.37628-0.98518-0.37628-2.244zm3.9544 0q0 1.642 0.21893 2.3603 0.22577 0.71152 0.89624 0.71152 0.67731 0 0.89624-0.71152 0.22577-0.71836 0.22577-2.3603t-0.22577-2.3535q-0.21893-0.71836-0.89624-0.71836-0.67047 0-0.89624 0.71836-0.21893 0.71152-0.21893 2.3535z" style="font-variant-caps:normal;font-variant-east-asian:normal;font-variant-ligatures:normal;font-variant-numeric:normal"/>
  </g>
  <g transform="scale(1.0064 .9936)" fill-opacity=".4" style="font-variant-caps:normal;font-variant-east-asian:normal;font-variant-ligatures:normal;font-variant-numeric:normal" aria-label="$">
   <path d="m15.58 13.73q-0.56832-0.13562-1.1754-0.47791v0.45207h-1.6791v-2.7899h1.6791q0.14208 0.60707 0.5877 0.94936t1.001 0.34228q0.38103 0 0.55541-0.14208 0.18083-0.14854 0.18083-0.31645 0-0.2777-0.30354-0.4327-0.30354-0.155-0.75561-0.2777-0.44562-0.12271-0.97519-0.27124-0.52957-0.14854-0.98165-0.4327-0.44562-0.28416-0.75561-0.74269-0.30354-0.46499-0.30354-1.2206 0-0.55541 0.23895-0.97519 0.23895-0.42624 0.63936-0.71686 0.40687-0.29062 0.93644-0.44562 0.52957-0.16146 1.1108-0.16146v-1.085h1.311v1.2464q0.31645 0.090415 0.56832 0.20666 0.25187 0.10979 0.41978 0.21312v-0.46499h1.6985v2.7254h-1.6985q-0.038749-0.26479-0.18729-0.48437-0.14208-0.22604-0.34874-0.38103-0.2002-0.16146-0.45207-0.25187-0.25187-0.096873-0.50374-0.096873-0.31645 0-0.52312 0.12271-0.20666 0.11625-0.20666 0.34228 0 0.2777 0.30999 0.42624 0.31645 0.14208 0.76853 0.27124 0.45853 0.12271 1.001 0.2777 0.54249 0.14854 0.99456 0.4327 0.45853 0.28416 0.76853 0.76207 0.30999 0.47145 0.30999 1.24 0 0.56832-0.23895 0.9881-0.2325 0.41332-0.63936 0.69103-0.40041 0.2777-0.92998 0.41978-0.52957 0.13562-1.1108 0.16146v1.0591h-1.311z" fill-opacity=".4" style="font-variant-caps:normal;font-variant-east-asian:normal;font-variant-ligatures:normal;font-variant-numeric:normal"/>
  </g>
  <g stroke="#e0e0e0" stroke-opacity=".94" stroke-width=".33073" style="font-variant-caps:normal;font-variant-east-asian:normal;font-variant-ligatures:normal;font-variant-numeric:normal" aria-label="$">
   <path d="m14.811 12.616q-0.54571-0.13023-1.1286-0.45889v0.43409h-1.6123v-2.6789h1.6123q0.13643 0.58292 0.56432 0.91159 0.42789 0.32867 0.9612 0.32867 0.36588 0 0.53331-0.13643 0.17364-0.14263 0.17364-0.30386 0-0.26666-0.29146-0.41548-0.29146-0.14883-0.72555-0.26666-0.42789-0.11782-0.93639-0.26045t-0.94259-0.41548q-0.42789-0.27286-0.72555-0.71315-0.29146-0.44649-0.29146-1.172 0-0.53331 0.22945-0.93639 0.22945-0.40928 0.61392-0.68834 0.39068-0.27906 0.89918-0.42789 0.5085-0.15503 1.0666-0.15503v-1.0418h1.2589v1.1968q0.30386 0.086818 0.54571 0.19844 0.24185 0.10542 0.40308 0.20464v-0.44649h1.6309v2.6169h-1.6309q-0.037208-0.25425-0.17984-0.4651-0.13643-0.21704-0.33487-0.36587-0.19224-0.15503-0.43409-0.24185-0.24185-0.093019-0.4837-0.093019-0.30386 0-0.5023 0.11782-0.19844 0.11162-0.19844 0.32867 0 0.26665 0.29766 0.40928 0.30386 0.13643 0.73795 0.26045 0.44029 0.11782 0.9612 0.26665 0.52091 0.14263 0.955 0.41549 0.44029 0.27286 0.73795 0.73175 0.29766 0.45269 0.29766 1.1906 0 0.54571-0.22945 0.94879-0.22325 0.39688-0.61393 0.66354-0.38448 0.26665-0.89298 0.40308-0.5085 0.13023-1.0666 0.15503v1.017h-1.2589z" stroke="#e0e0e0" stroke-opacity=".94" stroke-width=".33073" style="font-variant-caps:normal;font-variant-east-asian:normal;font-variant-ligatures:normal;font-variant-numeric:normal"/>
  </g>
  <g transform="scale(.95225 1.0501)" stroke="#e0e0e0" stroke-opacity=".94" stroke-width=".33073" aria-label=" 3 5 0 0">
   <path d="m15.426 16.562q-0.85164 0-1.2651 0.19017-0.41342 0.1819-0.62013 0.34727 0.17364 0.01654 0.38034 0.09095 0.21498 0.06615 0.38861 0.20671 0.1819 0.13229 0.29766 0.37208 0.12402 0.23151 0.12402 0.58705 0 0.66147-0.47956 1.0584-0.4713 0.39688-1.3891 0.39688-0.43822 0-0.8351-0.13229-0.39688-0.14056-0.70281-0.41342-0.30593-0.28112-0.48783-0.68627-0.17364-0.41342-0.17364-0.9674 0-0.77723 0.38861-1.4139 0.38861-0.63666 1.1162-1.0914 0.72762-0.46303 1.7612-0.70281 1.0335-0.24805 2.3234-0.24805 1.0666 0 2.1002 0.16537 1.0335 0.1571 1.8356 0.54571t1.2899 1.0253q0.4961 0.63666 0.4961 1.5627 0 1.1576-0.68627 1.8604-0.68627 0.70281-2.0754 0.93432v0.09095q1.3891 0.16537 2.2407 0.90125 0.85991 0.73588 0.85991 2.125 0 0.59532-0.3142 1.2154-0.3142 0.61186-1.0335 1.1162-0.71935 0.4961-1.8852 0.81857t-2.8609 0.32247q-1.6123 0-2.7368-0.339t-1.8273-0.86818q-0.70281-0.53744-1.017-1.2154-0.3142-0.67801-0.3142-1.3725 0-0.55398 0.16537-0.9922 0.17364-0.44649 0.4713-0.74415 0.29766-0.29766 0.69454-0.44649 0.39688-0.14883 0.8351-0.14883 0.56225 0 0.94259 0.14883 0.38034 0.14883 0.60359 0.38034 0.23151 0.23151 0.33073 0.51264 0.10749 0.27286 0.10749 0.52918 0 0.69454-0.42169 1.0666-0.41342 0.37208-0.91779 0.52918 0.82684 0.50437 2.2325 0.50437 1.1576 0 1.695-0.43822 0.54571-0.43822 0.54571-1.2568 0-0.40515-0.16537-0.69454-0.1571-0.28939-0.42169-0.46303-0.26459-0.1819-0.60359-0.26459-0.339-0.08268-0.678-0.08268h-0.58705v-1.7942h0.58705q0.81857 0 1.2237-0.40515 0.40515-0.40515 0.40515-0.95086 0-0.42169-0.16537-0.71108-0.1571-0.28939-0.42169-0.45476-0.25632-0.17364-0.61186-0.23978-0.35554-0.06615-0.74415-0.06615z" style="font-variant-caps:normal;font-variant-east-asian:normal;font-variant-ligatures:normal;font-variant-numeric:normal"/>
   <path d="m15.342 37.578q1.0465 0 1.5658-0.55036 0.52711-0.55811 0.52711-1.4185 0-0.89918-0.58137-1.372-0.57362-0.4806-1.5581-0.4806-0.65113 0-1.0465 0.13178-0.39533 0.13178-0.58912 0.21704h-1.9379v-6.1935h0.33332q0.60462 0.10852 1.0697 0.17829 0.47285 0.06201 0.94569 0.09302 0.4806 0.03101 1.0232 0.03876 0.55036 0.0078 1.2945 0.0078 0.87593 0 1.5426-0.0155 0.66664-0.0155 1.1782-0.04651 0.51935-0.03101 0.93019-0.09302 0.41083-0.06976 0.78291-0.16278l0.37983 0.15503q-0.16278 0.67439-0.42634 1.248-0.2558 0.56586-0.77516 0.96894-0.5116 0.40308-1.3798 0.63563t-2.2169 0.23255q-0.79066 0-1.2325-0.03876-0.43409-0.03876-0.7209-0.10852v1.031q0.14728-0.04651 0.30231-0.07752 0.16278-0.03101 0.37208-0.06201 0.21704-0.03101 0.50385-0.04651t0.68214-0.0155q1.4883 0 2.496 0.32557 1.0155 0.32556 1.6123 0.89143 0.60462 0.55811 0.86042 1.3023 0.2558 0.7364 0.2558 1.5581 0 0.84492-0.32557 1.5503-0.32556 0.70539-0.99995 1.2325-0.67439 0.51936-1.7131 0.81391-1.031 0.29456-2.4572 0.29456-2.3952 0-3.744-0.82942-1.3488-0.83717-1.3488-2.3642 0-0.55036 0.17054-0.96119 0.17829-0.41858 0.46509-0.67439 0.28681-0.26355 0.65113-0.38758 0.36432-0.13178 0.72865-0.13178 0.90693 0 1.3488 0.37983 0.44184 0.37983 0.44184 0.98445t-0.34882 0.91468q-0.34882 0.31006-0.82166 0.44959 0.37983 0.19379 0.80616 0.29456 0.42634 0.10077 0.95344 0.10077z" style="font-variant-caps:normal;font-variant-east-asian:normal;font-variant-ligatures:normal;font-variant-numeric:normal"/>
   <path d="m10.954 46.367q0-1.3312 0.39791-2.3658 0.40515-1.0418 1.1142-1.7436 0.70901-0.70901 1.6929-1.078 0.99116-0.36897 2.156-0.36897 1.172 0 2.156 0.36897 0.99116 0.36897 1.7002 1.078 0.70901 0.70177 1.1069 1.7436 0.40515 1.0346 0.40515 2.3658t-0.40515 2.373q-0.39791 1.0346-1.1069 1.7436-0.70901 0.70177-1.7002 1.0707-0.98393 0.36897-2.156 0.36897-1.1648 0-2.156-0.36897-0.98393-0.36897-1.6929-1.0707-0.70901-0.70901-1.1142-1.7436-0.39791-1.0418-0.39791-2.373zm4.1817 0q0 1.7363 0.23151 2.496 0.23875 0.75242 0.94776 0.75242 0.71624 0 0.94775-0.75242 0.23875-0.75965 0.23875-2.496 0-1.7363-0.23875-2.4888-0.23151-0.75965-0.94775-0.75965-0.70901 0-0.94776 0.75965-0.23151 0.75242-0.23151 2.4888z" style="font-variant-caps:normal;font-variant-east-asian:normal;font-variant-ligatures:normal;font-variant-numeric:normal"/>
   <path d="m11.337 58.011q0-1.2361 0.36949-2.1968 0.37621-0.96739 1.0346-1.619 0.65836-0.65837 1.572-1.001 0.92037-0.34262 2.002-0.34262 1.0883 0 2.002 0.34262 0.92037 0.34262 1.5787 1.001 0.65836 0.65165 1.0279 1.619 0.37621 0.96068 0.37621 2.1968t-0.37621 2.2035q-0.36949 0.96068-1.0279 1.619-0.65837 0.65165-1.5787 0.99427-0.91365 0.34262-2.002 0.34262-1.0816 0-2.002-0.34262-0.91365-0.34262-1.572-0.99427-0.65837-0.65837-1.0346-1.619-0.36949-0.9674-0.36949-2.2035zm3.883 0q0 1.6123 0.21498 2.3177 0.22169 0.69867 0.88006 0.69867 0.66508 0 0.88006-0.69867 0.2217-0.70539 0.2217-2.3177t-0.2217-2.311q-0.21498-0.70539-0.88006-0.70539-0.65837 0-0.88006 0.70539-0.21498 0.69867-0.21498 2.311z" style="font-variant-caps:normal;font-variant-east-asian:normal;font-variant-ligatures:normal;font-variant-numeric:normal"/>
  </g>
 </g>
</svg>
