<svg width="116.69" height="271.51" version="1.1" viewBox="0 0 30.874 71.838" xmlns="http://www.w3.org/2000/svg">
 <g>
  <g transform="scale(1.0064 .9936)" fill-opacity=".4" style="font-variant-caps:normal;font-variant-east-asian:normal;font-variant-ligatures:normal;font-variant-numeric:normal" aria-label="$">
   <path d="m15.58 13.73q-0.56832-0.13562-1.1754-0.47791v0.45207h-1.6791v-2.7899h1.6791q0.14208 0.60707 0.5877 0.94936t1.001 0.34228q0.38103 0 0.55541-0.14208 0.18083-0.14854 0.18083-0.31645 0-0.2777-0.30354-0.4327-0.30354-0.155-0.75561-0.2777-0.44562-0.12271-0.97519-0.27124-0.52957-0.14854-0.98165-0.4327-0.44562-0.28416-0.75561-0.74269-0.30354-0.46499-0.30354-1.2206 0-0.55541 0.23895-0.97519 0.23895-0.42624 0.63936-0.71686 0.40687-0.29062 0.93644-0.44562 0.52957-0.16146 1.1108-0.16146v-1.085h1.311v1.2464q0.31645 0.090415 0.56832 0.20666 0.25187 0.10979 0.41978 0.21312v-0.46499h1.6985v2.7254h-1.6985q-0.038749-0.26479-0.18729-0.48437-0.14208-0.22604-0.34874-0.38103-0.2002-0.16146-0.45207-0.25187-0.25187-0.096873-0.50374-0.096873-0.31645 0-0.52312 0.12271-0.20666 0.11625-0.20666 0.34228 0 0.2777 0.30999 0.42624 0.31645 0.14208 0.76853 0.27124 0.45853 0.12271 1.001 0.2777 0.54249 0.14854 0.99456 0.4327 0.45853 0.28416 0.76853 0.76207 0.30999 0.47145 0.30999 1.24 0 0.56832-0.23895 0.9881-0.2325 0.41332-0.63936 0.69103-0.40041 0.2777-0.92998 0.41978-0.52957 0.13562-1.1108 0.16146v1.0591h-1.311z" fill-opacity=".4" style="font-variant-caps:normal;font-variant-east-asian:normal;font-variant-ligatures:normal;font-variant-numeric:normal"/>
  </g>
  <g transform="scale(.96077 1.0408)" fill-opacity=".4" aria-label=" 5 5 0">
   <path d="m15.754 28.028q1.3498 0 2.0197-0.70991 0.67991-0.71991 0.67991-1.8298 0-1.1599-0.7499-1.7698-0.73991-0.61992-2.0097-0.61992-0.83989 0-1.3498 0.16998-0.50994 0.16998-0.7599 0.27996h-2.4997v-7.989h0.42994q0.7799 0.13998 1.3798 0.22997 0.60992 0.07999 1.2198 0.11998 0.61992 0.03999 1.3198 0.04999 0.70991 0.01 1.6698 0.01 1.1299 0 1.9897-0.02t1.5198-0.05999q0.66992-0.04 1.1998-0.11998 0.52993-0.08999 1.0099-0.20997l0.48994 0.19998q-0.20997 0.86989-0.54993 1.6098-0.32996 0.72991-0.99987 1.2498-0.65992 0.51993-1.7798 0.8199t-2.8596 0.29996q-1.0199 0-1.5898-0.04999-0.55993-0.04999-0.92988-0.13998v1.3298q0.18998-0.05999 0.38995-0.09999 0.20997-0.04 0.47994-0.07999 0.27996-0.03999 0.64992-0.05999t0.87989-0.02q1.9198 0 3.2196 0.41995 1.3098 0.41995 2.0797 1.1499 0.7799 0.71991 1.1099 1.6798 0.32996 0.94988 0.32996 2.0097 0 1.0899-0.41995 1.9997-0.41995 0.90988-1.2898 1.5898-0.86989 0.66992-2.2097 1.0499-1.3298 0.37995-3.1696 0.37995-3.0896 0-4.8294-1.0699-1.7398-1.0799-1.7398-3.0496 0-0.70991 0.21997-1.2398 0.22997-0.53993 0.59992-0.86989 0.36995-0.33996 0.83989-0.49994 0.46994-0.16998 0.93988-0.16998 1.1699 0 1.7398 0.48994 0.56993 0.48994 0.56993 1.2698t-0.44994 1.1798q-0.44994 0.39995-1.0599 0.57993 0.48994 0.24997 1.0399 0.37995 0.54993 0.12998 1.2298 0.12998z" style="font-variant-caps:normal;font-variant-east-asian:normal;font-variant-ligatures:normal;font-variant-numeric:normal"/>
   <path d="m15.817 44.029q1.2823 0 1.9188-0.67441 0.64592-0.68391 0.64592-1.7383 0-1.1019-0.71241-1.6813-0.70291-0.58892-1.9093-0.58892-0.7979 0-1.2823 0.16148-0.48444 0.16148-0.72191 0.26597h-2.3747v-7.5895h0.40845q0.7409 0.13298 1.3108 0.21847 0.57942 0.07599 1.1589 0.11398 0.58892 0.038 1.2538 0.04749 0.67441 0.0095 1.5863 0.0095 1.0734 0 1.8903-0.019t1.4438-0.05699q0.63642-0.038 1.1399-0.11398 0.50344-0.08549 0.95938-0.19948l0.46544 0.18998q-0.19947 0.82639-0.52243 1.5293-0.31346 0.69341-0.94988 1.1873-0.62692 0.49394-1.6908 0.7789-1.0639 0.28496-2.7167 0.28496-0.96888 0-1.5103-0.04749-0.53193-0.04749-0.88339-0.13298v1.2633q0.18048-0.05699 0.37045-0.09499 0.19948-0.038 0.45594-0.07599 0.26597-0.03799 0.61742-0.05699 0.35146-0.019 0.83589-0.019 1.8238 0 3.0586 0.39895 1.2443 0.39895 1.9757 1.0924 0.7409 0.68391 1.0544 1.5958 0.31346 0.90238 0.31346 1.9093 0 1.0354-0.39895 1.8998t-1.2253 1.5103q-0.82639 0.63642-2.0992 0.99737-1.2633 0.36095-3.0111 0.36095-2.9351 0-4.5879-1.0164-1.6528-1.0259-1.6528-2.8971 0-0.67441 0.20897-1.1778 0.21847-0.51293 0.56993-0.82639 0.35145-0.32296 0.7979-0.47494 0.44644-0.16148 0.89288-0.16148 1.1114 0 1.6528 0.46544 0.54143 0.46544 0.54143 1.2063 0 0.7409-0.42744 1.1209-0.42744 0.37995-1.0069 0.55093 0.46544 0.23747 0.98787 0.36095t1.1684 0.12348z" style="font-variant-caps:normal;font-variant-east-asian:normal;font-variant-ligatures:normal;font-variant-numeric:normal"/>
   <path d="m10.342 54.891q0-1.6558 0.49494-2.9426 0.50394-1.2958 1.3858-2.1687 0.88188-0.88189 2.1057-1.3408 1.2328-0.45894 2.6816-0.45894 1.4578 0 2.6817 0.45894 1.2328 0.45894 2.1147 1.3408 0.88188 0.87289 1.3768 2.1687 0.50394 1.2868 0.50394 2.9426 0 1.6558-0.50394 2.9516-0.49494 1.2868-1.3768 2.1687-0.88188 0.87289-2.1147 1.3318-1.2238 0.45894-2.6817 0.45894-1.4488 0-2.6816-0.45894-1.2238-0.45894-2.1057-1.3318-0.88188-0.88188-1.3858-2.1687-0.49494-1.2958-0.49494-2.9516zm5.2013 0q0 2.1597 0.28796 3.1046 0.29696 0.93588 1.1788 0.93588 0.89088 0 1.1788-0.93588 0.29696-0.94488 0.29696-3.1046t-0.29696-3.0956q-0.28796-0.94488-1.1788-0.94488-0.88188 0-1.1788 0.94488-0.28796 0.93588-0.28796 3.0956z" style="font-variant-caps:normal;font-variant-east-asian:normal;font-variant-ligatures:normal;font-variant-numeric:normal"/>
  </g>
  <g transform="scale(.95225 1.0501)" stroke="#e0e0e0" stroke-opacity=".94" stroke-width=".33073" aria-label=" 5 5 0">
   <path d="m14.981 26.995q1.3287 0 1.9881-0.69878 0.66925-0.70862 0.66925-1.8011 0-1.1417-0.73815-1.742-0.7283-0.6102-1.9782-0.6102-0.82672 0-1.3287 0.16731-0.50194 0.16731-0.74799 0.27558h-2.4605v-7.8637h0.4232q0.76767 0.13779 1.3582 0.22636 0.60036 0.07874 1.2007 0.1181 0.6102 0.03937 1.2991 0.04921 0.69878 0.0098 1.6436 0.0098 1.1121 0 1.9585-0.01968 0.84641-0.01968 1.496-0.05905 0.65941-0.03937 1.181-0.1181 0.52162-0.08858 0.99404-0.20668l0.48226 0.19684q-0.20668 0.85625-0.54131 1.5846-0.32478 0.71846-0.9842 1.2302-0.64957 0.51178-1.7519 0.80704-1.1023 0.29526-2.8148 0.29526-1.0039 0-1.5649-0.04921-0.55115-0.04921-0.9153-0.13779v1.309q0.187-0.05905 0.38384-0.09842 0.20668-0.03937 0.47241-0.07874 0.27557-0.03937 0.63973-0.05905t0.86609-0.01968q1.8897 0 3.1691 0.41336 1.2893 0.41336 2.0471 1.1318 0.76767 0.70862 1.0925 1.6534 0.32478 0.93498 0.32478 1.9782 0 1.0728-0.41336 1.9684-0.41336 0.89562-1.2696 1.5649-0.85625 0.65941-2.1751 1.0334-1.309 0.37399-3.1199 0.37399-3.0412 0-4.7537-1.0531-1.7125-1.0629-1.7125-3.0018 0-0.69878 0.21652-1.2204 0.22636-0.53146 0.59052-0.85625 0.36415-0.33463 0.82672-0.4921 0.46257-0.16731 0.92514-0.16731 1.1515 0 1.7125 0.48226t0.56099 1.2499-0.44289 1.1613q-0.44289 0.39368-1.0432 0.57083 0.48226 0.24605 1.0236 0.37399 0.54131 0.12794 1.2106 0.12794z" style="font-variant-caps:normal;font-variant-east-asian:normal;font-variant-ligatures:normal;font-variant-numeric:normal"/>
   <path d="m15.043 42.746q1.2622 0 1.8887-0.66384 0.63579-0.67319 0.63579-1.711 0-1.0846-0.70124-1.6549-0.69189-0.57969-1.8793-0.57969-0.78538 0-1.2622 0.15895t-0.71059 0.2618h-2.3375v-7.4705h0.40204q0.72928 0.1309 1.2903 0.21504 0.57034 0.0748 1.1407 0.1122 0.57969 0.0374 1.2342 0.04675 0.66384 0.0094 1.5614 0.0094 1.0565 0 1.8606-0.0187 0.80408-0.0187 1.4212-0.0561 0.62644-0.0374 1.122-0.1122 0.49554-0.08415 0.94433-0.19635l0.45814 0.187q-0.19635 0.81343-0.51424 1.5053-0.30854 0.68254-0.93498 1.1687-0.61709 0.48619-1.6643 0.76668t-2.674 0.28049q-0.95368 0-1.4866-0.04675-0.52359-0.04675-0.86953-0.1309v1.2435q0.17765-0.0561 0.36464-0.0935 0.19635-0.0374 0.44879-0.0748 0.2618-0.0374 0.60774-0.0561 0.34594-0.0187 0.82278-0.0187 1.7952 0 3.0106 0.39269 1.2248 0.39269 1.9448 1.0752 0.72928 0.67319 1.0378 1.5708 0.30854 0.88823 0.30854 1.8793 0 1.0191-0.39269 1.87t-1.2061 1.4866q-0.81343 0.62644-2.0663 0.98173-1.2435 0.35529-2.9639 0.35529-2.8891 0-4.516-1.0004-1.6269-1.0098-1.6269-2.8517 0-0.66384 0.2057-1.1594 0.21505-0.50489 0.56099-0.81343 0.34594-0.31789 0.78538-0.46749 0.43944-0.15895 0.87888-0.15895 1.0939 0 1.6269 0.45814 0.53294 0.45814 0.53294 1.1874 0 0.72928-0.42074 1.1033-0.42074 0.37399-0.99108 0.54229 0.45814 0.23374 0.97238 0.35529 0.51424 0.12155 1.15 0.12155z" style="font-variant-caps:normal;font-variant-east-asian:normal;font-variant-ligatures:normal;font-variant-numeric:normal"/>
   <path d="m9.6533 53.437q0-1.6298 0.48718-2.8965 0.49604-1.2755 1.3641-2.1347 0.86806-0.86806 2.0727-1.3198 1.2135-0.45175 2.6396-0.45175 1.435 0 2.6396 0.45175 1.2135 0.45175 2.0816 1.3198 0.86806 0.8592 1.3552 2.1347 0.49604 1.2667 0.49604 2.8965 0 1.6298-0.49604 2.9053-0.48718 1.2667-1.3552 2.1347-0.86806 0.8592-2.0816 1.3109-1.2047 0.45175-2.6396 0.45175-1.4261 0-2.6396-0.45175-1.2047-0.45175-2.0727-1.3109-0.86806-0.86806-1.3641-2.1347-0.48718-1.2755-0.48718-2.9053zm5.1198 0q0 2.1259 0.28345 3.0559 0.29231 0.92121 1.1604 0.92121 0.87692 0 1.1604-0.92121 0.29231-0.93006 0.29231-3.0559 0-2.1259-0.29231-3.0471-0.28345-0.93006-1.1604-0.93006-0.86806 0-1.1604 0.93006-0.28345 0.92121-0.28345 3.0471z" style="font-variant-caps:normal;font-variant-east-asian:normal;font-variant-ligatures:normal;font-variant-numeric:normal"/>
  </g>
  <g stroke="#e0e0e0" stroke-opacity=".94" stroke-width=".33073" style="font-variant-caps:normal;font-variant-east-asian:normal;font-variant-ligatures:normal;font-variant-numeric:normal" aria-label="$">
   <path d="m14.811 12.616q-0.54571-0.13023-1.1286-0.45889v0.43409h-1.6123v-2.6789h1.6123q0.13643 0.58292 0.56432 0.91159 0.42789 0.32867 0.9612 0.32867 0.36588 0 0.53331-0.13643 0.17364-0.14263 0.17364-0.30386 0-0.26666-0.29146-0.41548-0.29146-0.14883-0.72555-0.26666-0.42789-0.11782-0.93639-0.26045-0.5085-0.14263-0.94259-0.41549-0.42789-0.27286-0.72555-0.71315-0.29146-0.44649-0.29146-1.172 0-0.53331 0.22945-0.93639 0.22945-0.40928 0.61393-0.68834 0.39068-0.27906 0.89918-0.42789 0.5085-0.15503 1.0666-0.15503v-1.0418h1.2589v1.1968q0.30386 0.086818 0.54571 0.19844 0.24185 0.10542 0.40308 0.20464v-0.44649h1.6309v2.6169h-1.6309q-0.037207-0.25425-0.17984-0.4651-0.13643-0.21704-0.33487-0.36587-0.19224-0.15503-0.43409-0.24185-0.24185-0.093019-0.4837-0.093019-0.30386 0-0.5023 0.11782-0.19844 0.11162-0.19844 0.32867 0 0.26665 0.29766 0.40928 0.30386 0.13643 0.73795 0.26045 0.44029 0.11782 0.9612 0.26665 0.52091 0.14263 0.955 0.41549 0.44029 0.27286 0.73795 0.73175 0.29766 0.45269 0.29766 1.1906 0 0.54571-0.22945 0.94879-0.22325 0.39688-0.61393 0.66354-0.38448 0.26665-0.89298 0.40308-0.5085 0.13023-1.0666 0.15503v1.017h-1.2589z" stroke="#e0e0e0" stroke-opacity=".94" stroke-width=".33073" style="font-variant-caps:normal;font-variant-east-asian:normal;font-variant-ligatures:normal;font-variant-numeric:normal"/>
  </g>
 </g>
</svg>
