<svg width="116.69" height="271.51" version="1.1" viewBox="0 0 30.874 71.838" xmlns="http://www.w3.org/2000/svg">
 <defs>
  <filter id="filter914" color-interpolation-filters="sRGB">
   <feFlood flood-color="rgb(0,0,0)" flood-opacity=".25098" result="flood"/>
   <feComposite in="flood" in2="SourceGraphic" operator="in" result="composite1"/>
   <feGaussianBlur in="composite1" result="blur"/>
   <feOffset dx="0.4" dy="0.4" result="offset"/>
   <feComposite in="SourceGraphic" in2="offset" result="composite2"/>
  </filter>
  <filter id="filter926" color-interpolation-filters="sRGB">
   <feFlood flood-color="rgb(0,0,0)" flood-opacity=".25098" result="flood"/>
   <feComposite in="flood" in2="SourceGraphic" operator="in" result="composite1"/>
   <feGaussianBlur in="composite1" result="blur"/>
   <feOffset dx="0.4" dy="0.4" result="offset"/>
   <feComposite in="SourceGraphic" in2="offset" result="composite2"/>
  </filter>
  <filter id="filter938" color-interpolation-filters="sRGB">
   <feFlood flood-color="rgb(0,0,0)" flood-opacity=".25098" result="flood"/>
   <feComposite in="flood" in2="SourceGraphic" operator="in" result="composite1"/>
   <feGaussianBlur in="composite1" result="blur"/>
   <feOffset dx="0.6" dy="0.6" result="offset"/>
   <feComposite in="SourceGraphic" in2="offset" result="composite2"/>
  </filter>
 </defs>
 <g stroke="#e0e0e0" stroke-opacity=".94">
  <g transform="matrix(1.2035 0 0 .92079 -.9576 -1.0383)" filter="url(#filter938)" stroke-width=".31418" aria-label=" T U R N">
   <path d="m19.461 26.695v4.2396h-2.3803q0-0.48473-0.02894-0.83924-0.02171-0.36174-0.10852-0.57878-0.08682-0.22428-0.26769-0.32557-0.17364-0.10852-0.47026-0.10852h-0.44856v4.775q0 0.47026 0.27492 0.6439 0.27492 0.1664 0.91159 0.1664v2.6841h-6.6343v-2.6841q0.63666 0 0.90435-0.1664 0.27492-0.17364 0.27492-0.6439v-4.775h-0.44132q-0.29663 0-0.4775 0.10852-0.17364 0.10129-0.26769 0.32557-0.08682 0.21704-0.10852 0.57878-0.02171 0.35451-0.02171 0.83924h-2.3875v-4.2396z" style="font-variant-caps:normal;font-variant-east-asian:normal;font-variant-ligatures:normal;font-variant-numeric:normal"/>
   <path d="m14.113 38.971v2.4285q-0.49748 0-0.69385 0.1571-0.18983 0.15055-0.18983 0.50402v3.0241q0 0.24219 0.05237 0.46475 0.05237 0.22256 0.17674 0.39929 0.13092 0.17019 0.34038 0.27492 0.21601 0.09819 0.5433 0.09819 0.62839 0 0.9164-0.32729 0.28801-0.33383 0.28801-0.89677v-3.011q0-0.40584-0.24219-0.5433-0.24219-0.14401-0.66767-0.14401v-2.4285h4.3136v2.4285q-0.43856 0-0.67421 0.13092-0.23565 0.12437-0.23565 0.53021v3.1223q0 0.60221-0.1571 1.2568-0.15055 0.64803-0.60221 1.1913-0.44511 0.53675-1.2764 0.89677-0.83131 0.35347-2.1994 0.35347-0.99495 0-1.715-0.18328-0.71349-0.17674-1.211-0.47129t-0.79204-0.66767q-0.29456-0.37965-0.4582-0.77894-0.1571-0.40584-0.20946-0.78549-0.052366-0.3862-0.052366-0.70694v-3.1485q0-0.43202-0.24874-0.58257-0.24874-0.1571-0.82476-0.1571v-2.4285z" style="font-variant-caps:normal;font-variant-east-asian:normal;font-variant-ligatures:normal;font-variant-numeric:normal"/>
   <path d="m9.1436 58.02v-1.8941q0.45016 0 0.64454-0.11742 0.19439-0.12253 0.19439-0.45437v-2.5833q0-0.33695-0.19439-0.45437-0.19439-0.12253-0.64454-0.12253v-1.8941h5.4172q0.75197 0 1.2635 0.14805 0.51666 0.14805 0.82358 0.42374 0.31204 0.27569 0.43992 0.65858 0.133 0.3829 0.133 0.85258 0 0.85769-0.41435 1.3733-0.41435 0.51053-1.3249 0.55137v0.06126q0.43992 0.03063 0.72639 0.16337 0.29158 0.13274 0.45527 0.34716 0.16881 0.20932 0.23531 0.51053 0.07161 0.29611 0.07161 0.6739v0.27058q0 0.12763 0.0665 0.22463 0.0665 0.0919 0.20462 0.0919 0.14835 0 0.20973-0.0919 0.06138-0.097 0.06138-0.22463v-1.2967h0.58827v1.2967q0 0.36758-0.11254 0.679-0.10742 0.30632-0.35808 0.53606-0.25066 0.22974-0.65989 0.35227-0.40923 0.12763-1.0077 0.12763-0.5985 0-0.98216-0.13274-0.37854-0.12763-0.59339-0.35737-0.21485-0.22974-0.30181-0.53095-0.08185-0.30632-0.08185-0.64327v-0.39311q0-0.40842-0.04604-0.65858-0.04604-0.25526-0.15346-0.39311-0.10231-0.14295-0.27112-0.1889-0.16881-0.04595-0.40923-0.04595h-0.12277v0.73006q0 0.27058 0.14835 0.39311 0.15346 0.11742 0.54223 0.11742v1.8941zm3.857-4.0383h0.45016q0.4297 0 0.58827-0.20421 0.16369-0.20932 0.16369-0.5769 0-0.42884-0.16369-0.61774-0.15858-0.1889-0.58827-0.1889h-0.45016z" style="font-variant-caps:normal;font-variant-east-asian:normal;font-variant-ligatures:normal;font-variant-numeric:normal"/>
   <path d="m17.4 59.848v1.5597q-0.37141 0-0.48958 0.12192-0.11396 0.12192-0.11396 0.35314v4.1578h-2.5365l-2.2031-3.4347v1.4546q0 0.27326 0.16038 0.34894 0.16038 0.07147 0.53179 0.07147v1.5597h-2.9037v-1.5597q0.37141 0 0.53179-0.09669 0.16038-0.1009 0.16038-0.37416v-2.1273q0-0.27747-0.16038-0.37416-0.16038-0.1009-0.53179-0.1009v-1.5597h3.3173l2.1103 3.2918v-1.257q0-0.27747-0.11818-0.37416-0.11395-0.1009-0.48536-0.1009v-1.5597z" style="font-variant-caps:normal;font-variant-east-asian:normal;font-variant-ligatures:normal;font-variant-numeric:normal"/>
  </g>
  <g transform="matrix(1.0797 0 0 .92621 -.070805 0)" filter="url(#filter914)" stroke-width=".33073" aria-label=" LOSE">
   <path d="m5.6959 8.7515q-0.31712 0.032347-0.44756 0.1328-0.12711 0.096484-0.10926 0.33432l0.16717 2.227 0.72073-0.07352q0.14775-0.01507 0.24649-0.05419 0.098737-0.03912 0.14963-0.13509 0.050625-0.09957 0.059804-0.26755 0.012782-0.16834-0.00778-0.44222l1.2613-0.12865 0.16393 2.1838-5.2108 0.53151-0.10036-1.3369q0.31712-0.032346 0.44784-0.1292 0.13045-0.10046 0.11286-0.33469l-0.13688-1.8234q-0.017853-0.23784-0.16101-0.30676-0.14343-0.072519-0.46055-0.040173l-0.10036-1.3369 3.3045-0.33707z" style="font-variant-caps:normal;font-variant-east-asian:normal;font-variant-ligatures:normal;font-variant-numeric:normal"/>
   <path d="m8.4464 9.7339q-0.026091-0.69749 0.18199-1.2331 0.21156-0.5394 0.61753-0.91487 0.40597-0.37548 0.97397-0.58177 0.57161-0.20648 1.2691-0.24193 0.69388-0.03527 1.2787 0.11242 0.58486 0.14769 1.0137 0.48074 0.43247 0.33286 0.67988 0.84892 0.2509 0.51227 0.27699 1.2098 0.02596 0.69388-0.1856 1.2333-0.20808 0.5356-0.61391 0.91469-0.40236 0.37529-0.97397 0.58177-0.57161 0.20648-1.2655 0.24175-0.6975 0.03545-1.2824-0.11224-0.58124-0.14788-1.0137-0.48074-0.4326-0.33647-0.6835-0.84874-0.24742-0.51607-0.27337-1.2099zm2.4286-0.12345q0.01636 0.43729 0.05997 0.73198 0.04348 0.29108 0.12988 0.47135 0.08988 0.17647 0.23032 0.25261 0.1403 0.07252 0.35714 0.0615 0.206-0.01047 0.34397-0.09714 0.13784-0.09029 0.21058-0.27502 0.07623-0.18854 0.0978-0.48292 0.02144-0.298 0.0051-0.73529-0.01609-0.43006-0.05984-0.72837-0.04375-0.29831-0.13363-0.47478-0.08626-0.17666-0.23018-0.249-0.14405-0.075957-0.35005-0.065486-0.21684 0.011022-0.35106 0.10112-0.13436 0.086488-0.21072 0.27141-0.07275 0.18474-0.09405 0.48635-0.02131 0.30161-0.0052 0.73167z" style="font-variant-caps:normal;font-variant-east-asian:normal;font-variant-ligatures:normal;font-variant-numeric:normal"/>
   <path d="m20.258 8.9606-1.1926-0.060726q-0.022-0.18578-0.11724-0.34995-0.09162-0.16398-0.23184-0.28699-0.14022-0.12301-0.31501-0.19346-0.17465-0.074068-0.36257-0.083637-0.22768-0.011593-0.37187 0.067965-0.14419 0.079559-0.15002 0.23496-0.0056 0.14817 0.11742 0.24858 0.1231 0.096789 0.32652 0.17594 0.20356 0.07554 0.46507 0.15041 0.26152 0.074871 0.52918 0.17902 0.27128 0.10433 0.53022 0.24787 0.25908 0.13992 0.45749 0.35279 0.19855 0.20926 0.3142 0.50481 0.11566 0.29556 0.10049 0.70032-0.01611 0.43006-0.2118 0.72425-0.19569 0.29419-0.5138 0.47352-0.31811 0.17933-0.72626 0.24907-0.40815 0.06974-0.84182 0.04766-0.42283-0.02153-0.80587-0.1388-0.37942-0.11708-0.77231-0.35796l-0.01192 0.31803-1.1926-0.06073 0.07381-1.9696 1.1926 0.06073q0.08896 0.42817 0.39416 0.68993 0.30534 0.25814 0.69926 0.2782 0.26382 0.01343 0.39758-0.07752 0.13389-0.09457 0.13863-0.22105 0.0074-0.19877-0.20533-0.31823-0.20916-0.11928-0.52407-0.21859-0.31478-0.10293-0.69032-0.22706-0.37179-0.12756-0.68237-0.34252-0.31044-0.21858-0.51496-0.55849-0.2009-0.33973-0.18099-0.87098 0.01476-0.39392 0.19599-0.68884t0.47445-0.48638q0.29336-0.19507 0.66952-0.28092 0.37991-0.089281 0.79552-0.068119 0.57462 0.029259 0.9816 0.18395 0.40698 0.15469 0.62911 0.31446l0.01259-0.3361 1.1926 0.060726z" style="font-variant-caps:normal;font-variant-east-asian:normal;font-variant-ligatures:normal;font-variant-numeric:normal"/>
   <path d="m24.368 11.538q0.14775 0.01507 0.24694-2.33e-4 0.1028-0.01493 0.16559-0.07752 0.06668-0.06583 0.09749-0.18614 0.03081-0.12032 0.04515-0.31131l1.2613 0.12862-0.1474 1.964-5.1352-0.52369 0.10034-1.3369q0.31712 0.03234 0.46028-0.03658 0.14343-0.07253 0.16101-0.30676l0.13684-1.8234q0.01785-0.23784-0.11287-0.33469-0.13045-0.10045-0.44757-0.13279l0.10034-1.3369 5.1352 0.52369-0.1474 1.964-1.2613-0.12863q0.01433-0.19099 0.0019-0.31572-0.01242-0.12473-0.06855-0.19945-0.05252-0.07435-0.15153-0.10986-0.09513-0.038752-0.24288-0.053819l-0.64865-0.06615-0.07194 0.95857 1.1496 0.11723-0.04787 0.63784-1.1496-0.11723-0.07789 1.0378z" style="font-variant-caps:normal;font-variant-east-asian:normal;font-variant-ligatures:normal;font-variant-numeric:normal"/>
  </g>
  <g transform="matrix(1.0797 0 0 .92621 -.21712 .23867)" filter="url(#filter926)" stroke-width=".33073" aria-label=" A">
   <path d="m14.553 19.509h-1.1431l-0.05064 0.15555q-0.05788 0.15555 0.0072 0.26045 0.06511 0.10129 0.27492 0.10129h0.20619v1.3421h-2.2536v-1.3421h0.14831q0.26045 0 0.34727-0.10129 0.09044-0.1049 0.17364-0.30386l0.74157-1.8304q0.07958-0.20981 0.02532-0.30748-0.05064-0.10129-0.31471-0.10129h-0.07597v-1.3421h3.7187v1.3421h-0.07235q-0.26769 0-0.32195 0.1049-0.05064 0.1049 0.03256 0.30386l0.74157 1.8304q0.04341 0.10129 0.07597 0.17725 0.03617 0.07235 0.08682 0.12661 0.05064 0.05064 0.13384 0.07597 0.08682 0.02532 0.22066 0.02532h0.14831v1.3421h-3.2882v-1.3421h0.19896q0.20619 0 0.27492-0.10129 0.07235-0.1049 0.01447-0.26045zm-0.95861-0.56431h0.77051l-0.36174-1.1105h-0.02894z" stroke="#e0e0e0" stroke-opacity=".94" stroke-width=".33073" style="font-variant-caps:normal;font-variant-east-asian:normal;font-variant-ligatures:normal;font-variant-numeric:normal"/>
  </g>
 </g>
</svg>
