<svg width="116.69" height="271.51" version="1.1" viewBox="0 0 30.874 71.838" xmlns="http://www.w3.org/2000/svg">
 <g>
  <g transform="scale(1.0064 .9936)" fill-opacity=".4" style="font-variant-caps:normal;font-variant-east-asian:normal;font-variant-ligatures:normal;font-variant-numeric:normal" aria-label="$">
   <path d="m15.58 13.73q-0.56832-0.13562-1.1754-0.47791v0.45207h-1.6791v-2.7899h1.6791q0.14208 0.60707 0.5877 0.94936t1.001 0.34228q0.38103 0 0.55541-0.14208 0.18083-0.14854 0.18083-0.31645 0-0.2777-0.30354-0.4327-0.30354-0.155-0.75561-0.2777-0.44562-0.12271-0.97519-0.27124-0.52957-0.14854-0.98165-0.4327-0.44562-0.28416-0.75561-0.74269-0.30354-0.46499-0.30354-1.2206 0-0.55541 0.23895-0.97519 0.23895-0.42624 0.63936-0.71686 0.40687-0.29062 0.93644-0.44562 0.52957-0.16146 1.1108-0.16146v-1.085h1.311v1.2464q0.31645 0.090415 0.56832 0.20666 0.25187 0.10979 0.41978 0.21312v-0.46499h1.6985v2.7254h-1.6985q-0.038749-0.26479-0.18729-0.48437-0.14208-0.22604-0.34874-0.38103-0.2002-0.16146-0.45207-0.25187-0.25187-0.096873-0.50374-0.096873-0.31645 0-0.52312 0.12271-0.20666 0.11625-0.20666 0.34228 0 0.2777 0.30999 0.42624 0.31645 0.14208 0.76853 0.27124 0.45853 0.12271 1.001 0.2777 0.54249 0.14854 0.99456 0.4327 0.45853 0.28416 0.76853 0.76207 0.30999 0.47145 0.30999 1.24 0 0.56832-0.23895 0.9881-0.2325 0.41332-0.63936 0.69103-0.40041 0.2777-0.92998 0.41978-0.52957 0.13562-1.1108 0.16146v1.0591h-1.311z" fill-opacity=".4" style="font-variant-caps:normal;font-variant-east-asian:normal;font-variant-ligatures:normal;font-variant-numeric:normal"/>
  </g>
  <g transform="scale(.96077 1.0408)" fill-opacity=".4" aria-label=" 8 0 0">
   <path d="m17.014 15.559q1.2098 0 2.3797 0.18998 1.1798 0.17998 2.1097 0.63992 0.93988 0.45994 1.5098 1.2298 0.56993 0.7699 0.56993 1.9298 0 1.3998-0.7899 2.2797-0.7799 0.87989-2.3197 1.0999v0.10999q1.6798 0.13998 2.7097 1.0199 1.0399 0.87989 1.0399 2.5597 0 0.71991-0.33996 1.4798-0.33996 0.7499-1.1699 1.3798-0.82989 0.61992-2.2297 1.0199-1.3998 0.39995-3.5495 0.39995-2.0897 0-3.4796-0.39995-1.3798-0.39995-2.1897-1.0199-0.7999-0.62992-1.1299-1.3798-0.32996-0.7599-0.32996-1.4798 0-1.6798 1.0299-2.5597 1.0399-0.87989 2.7197-1.0199v-0.10999q-1.5398-0.21997-2.3397-1.0999-0.7999-0.87989-0.7999-2.2797 0-1.1599 0.53993-1.9298 0.54993-0.7699 1.4598-1.2298 0.90988-0.45994 2.1097-0.63992 1.1998-0.18998 2.4897-0.18998zm0 8.5589q-0.7799 0-1.1499 0.50994-0.36995 0.50994-0.36995 1.3498 0 0.83989 0.36995 1.3798 0.36995 0.52993 1.1499 0.52993t1.1499-0.52993q0.36995-0.53993 0.36995-1.3798 0-0.83989-0.36995-1.3498-0.36995-0.50994-1.1499-0.50994zm-0.02-5.6493q-0.65992 0-0.95988 0.45994-0.28996 0.45994-0.28996 1.2198 0 0.72991 0.28996 1.2198 0.29996 0.47994 0.95988 0.47994 0.66992 0 0.96988-0.47994 0.29996-0.48994 0.29996-1.2198 0-0.7599-0.29996-1.2198-0.29996-0.45994-0.96988-0.45994z" style="font-variant-caps:normal;font-variant-east-asian:normal;font-variant-ligatures:normal;font-variant-numeric:normal"/>
   <path d="m9.9708 39.479q0-1.7478 0.52243-3.1061 0.53193-1.3678 1.4628-2.2892 0.93088-0.93088 2.2227-1.4153 1.3013-0.48444 2.8306-0.48444 1.5388 0 2.8306 0.48444 1.3013 0.48444 2.2322 1.4153 0.93088 0.92138 1.4533 2.2892 0.53193 1.3583 0.53193 3.1061t-0.53193 3.1156q-0.52243 1.3583-1.4533 2.2892-0.93088 0.92138-2.2322 1.4058-1.2918 0.48444-2.8306 0.48444-1.5293 0-2.8306-0.48444-1.2918-0.48444-2.2227-1.4058-0.93088-0.93088-1.4628-2.2892-0.52243-1.3678-0.52243-3.1156zm5.4903 0q0 2.2797 0.30396 3.2771 0.31346 0.98787 1.2443 0.98787 0.94038 0 1.2443-0.98787 0.31346-0.99737 0.31346-3.2771t-0.31346-3.2676q-0.30396-0.99737-1.2443-0.99737-0.93088 0-1.2443 0.99737-0.30396 0.98787-0.30396 3.2676z" style="font-variant-caps:normal;font-variant-east-asian:normal;font-variant-ligatures:normal;font-variant-numeric:normal"/>
   <path d="m10.342 54.891q0-1.6558 0.49494-2.9426 0.50394-1.2958 1.3858-2.1687 0.88188-0.88189 2.1057-1.3408 1.2328-0.45894 2.6816-0.45894 1.4578 0 2.6817 0.45894 1.2328 0.45894 2.1147 1.3408 0.88188 0.87289 1.3768 2.1687 0.50394 1.2868 0.50394 2.9426 0 1.6558-0.50394 2.9516-0.49494 1.2868-1.3768 2.1687-0.88188 0.87289-2.1147 1.3318-1.2238 0.45894-2.6817 0.45894-1.4488 0-2.6816-0.45894-1.2238-0.45894-2.1057-1.3318-0.88188-0.88188-1.3858-2.1687-0.49494-1.2958-0.49494-2.9516zm5.2013 0q0 2.1597 0.28796 3.1046 0.29696 0.93588 1.1788 0.93588 0.89088 0 1.1788-0.93588 0.29696-0.94488 0.29696-3.1046t-0.29696-3.0956q-0.28796-0.94488-1.1788-0.94488-0.88188 0-1.1788 0.94488-0.28796 0.93588-0.28796 3.0956z" style="font-variant-caps:normal;font-variant-east-asian:normal;font-variant-ligatures:normal;font-variant-numeric:normal"/>
  </g>
  <g transform="scale(.95225 1.0501)" stroke="#e0e0e0" stroke-opacity=".94" stroke-width=".33073" aria-label=" 8 0 0">
   <path d="m16.221 14.722q1.1909 0 2.3424 0.187 1.1613 0.17716 2.0766 0.62988 0.92514 0.45273 1.4861 1.2106 0.56099 0.75783 0.56099 1.8995 0 1.3779-0.77751 2.244-0.76767 0.86609-2.2833 1.0826v0.10826q1.6534 0.13779 2.6672 1.0039 1.0236 0.86609 1.0236 2.5195 0 0.70862-0.33463 1.4566-0.33463 0.73814-1.1515 1.3582-0.81688 0.6102-2.1948 1.0039t-3.4939 0.39368q-2.057 0-3.425-0.39368-1.3582-0.39368-2.1554-1.0039-0.78736-0.62004-1.1121-1.3582-0.32478-0.74799-0.32478-1.4566 0-1.6534 1.0137-2.5195 1.0236-0.86609 2.677-1.0039v-0.10826q-1.5157-0.21652-2.303-1.0826-0.78736-0.86609-0.78736-2.244 0-1.1417 0.53147-1.8995 0.54131-0.75783 1.4369-1.2106 0.89562-0.45273 2.0766-0.62988 1.181-0.187 2.4506-0.187zm0 8.4247q-0.76767 0-1.1318 0.50194-0.36415 0.50194-0.36415 1.3287t0.36415 1.3582q0.36415 0.52162 1.1318 0.52162 0.76767 0 1.1318-0.52162 0.36415-0.53146 0.36415-1.3582t-0.36415-1.3287q-0.36415-0.50194-1.1318-0.50194zm-0.01968-5.5607q-0.64957 0-0.94483 0.45273-0.28542 0.45273-0.28542 1.2007 0 0.71846 0.28542 1.2007 0.29526 0.47241 0.94483 0.47241 0.65941 0 0.95467-0.47241 0.29526-0.48226 0.29526-1.2007 0-0.74799-0.29526-1.2007-0.29526-0.45273-0.95467-0.45273z" style="font-variant-caps:normal;font-variant-east-asian:normal;font-variant-ligatures:normal;font-variant-numeric:normal"/>
   <path d="m9.2884 38.267q0-1.7204 0.51424-3.0574 0.52359-1.3464 1.4399-2.2533 0.91628-0.91628 2.1879-1.3931 1.2809-0.47684 2.7862-0.47684 1.5147 0 2.7862 0.47684 1.2809 0.47684 2.1972 1.3931 0.91628 0.90693 1.4305 2.2533 0.52359 1.337 0.52359 3.0574t-0.52359 3.0667q-0.51424 1.337-1.4305 2.2533-0.91628 0.90693-2.1972 1.3838-1.2716 0.47684-2.7862 0.47684-1.5053 0-2.7862-0.47684-1.2716-0.47684-2.1879-1.3838-0.91628-0.91628-1.4399-2.2533-0.51424-1.3464-0.51424-3.0667zm5.4042 0q0 2.244 0.29919 3.2257 0.30854 0.97238 1.2248 0.97238 0.92563 0 1.2248-0.97238 0.30854-0.98173 0.30854-3.2257t-0.30854-3.2163q-0.29919-0.98173-1.2248-0.98173-0.91628 0-1.2248 0.98173-0.29919 0.97238-0.29919 3.2163z" style="font-variant-caps:normal;font-variant-east-asian:normal;font-variant-ligatures:normal;font-variant-numeric:normal"/>
   <path d="m9.6533 53.437q0-1.6298 0.48718-2.8965 0.49604-1.2755 1.3641-2.1347 0.86806-0.86806 2.0727-1.3198 1.2135-0.45175 2.6396-0.45175 1.435 0 2.6396 0.45175 1.2135 0.45175 2.0816 1.3198 0.86806 0.8592 1.3552 2.1347 0.49604 1.2667 0.49604 2.8965 0 1.6298-0.49604 2.9053-0.48718 1.2667-1.3552 2.1347-0.86806 0.8592-2.0816 1.3109-1.2047 0.45175-2.6396 0.45175-1.4261 0-2.6396-0.45175-1.2047-0.45175-2.0727-1.3109-0.86806-0.86806-1.3641-2.1347-0.48718-1.2755-0.48718-2.9053zm5.1198 0q0 2.1259 0.28345 3.0559 0.29231 0.92121 1.1604 0.92121 0.87692 0 1.1604-0.92121 0.29231-0.93006 0.29231-3.0559 0-2.1259-0.29231-3.0471-0.28345-0.93006-1.1604-0.93006-0.86806 0-1.1604 0.93006-0.28345 0.92121-0.28345 3.0471z" style="font-variant-caps:normal;font-variant-east-asian:normal;font-variant-ligatures:normal;font-variant-numeric:normal"/>
  </g>
  <g stroke="#e0e0e0" stroke-opacity=".94" stroke-width=".33073" style="font-variant-caps:normal;font-variant-east-asian:normal;font-variant-ligatures:normal;font-variant-numeric:normal" aria-label="$">
   <path d="m14.811 12.616q-0.54571-0.13023-1.1286-0.45889v0.43409h-1.6123v-2.6789h1.6123q0.13643 0.58292 0.56432 0.91159 0.42789 0.32867 0.9612 0.32867 0.36588 0 0.53331-0.13643 0.17364-0.14263 0.17364-0.30386 0-0.26666-0.29146-0.41548-0.29146-0.14883-0.72555-0.26666-0.42789-0.11782-0.93639-0.26045-0.5085-0.14263-0.94259-0.41549-0.42789-0.27286-0.72555-0.71315-0.29146-0.44649-0.29146-1.172 0-0.53331 0.22945-0.93639 0.22945-0.40928 0.61393-0.68834 0.39068-0.27906 0.89918-0.42789 0.5085-0.15503 1.0666-0.15503v-1.0418h1.2589v1.1968q0.30386 0.086818 0.54571 0.19844 0.24185 0.10542 0.40308 0.20464v-0.44649h1.6309v2.6169h-1.6309q-0.037207-0.25425-0.17984-0.4651-0.13643-0.21704-0.33487-0.36587-0.19224-0.15503-0.43409-0.24185-0.24185-0.093019-0.4837-0.093019-0.30386 0-0.5023 0.11782-0.19844 0.11162-0.19844 0.32867 0 0.26665 0.29766 0.40928 0.30386 0.13643 0.73795 0.26045 0.44029 0.11782 0.9612 0.26665 0.52091 0.14263 0.955 0.41549 0.44029 0.27286 0.73795 0.73175 0.29766 0.45269 0.29766 1.1906 0 0.54571-0.22945 0.94879-0.22325 0.39688-0.61393 0.66354-0.38448 0.26665-0.89298 0.40308-0.5085 0.13023-1.0666 0.15503v1.017h-1.2589z" stroke="#e0e0e0" stroke-opacity=".94" stroke-width=".33073" style="font-variant-caps:normal;font-variant-east-asian:normal;font-variant-ligatures:normal;font-variant-numeric:normal"/>
  </g>
 </g>
</svg>
