<svg width="116.69" height="271.51" version="1.1" viewBox="0 0 30.874 71.838" xmlns="http://www.w3.org/2000/svg" xmlns:xlink="http://www.w3.org/1999/xlink">
 <defs>
  <linearGradient id="linearGradient889" x1="-160.98" x2="-87.718" y1="96.79" y2="106.81" gradientUnits="userSpaceOnUse">
   <stop stop-color="#9f9f9f" stop-opacity=".6" offset="0"/>
   <stop stop-opacity="0" offset=".50132"/>
   <stop stop-color="#9f9f9f" stop-opacity=".6" offset="1"/>
  </linearGradient>
 </defs>
 <g transform="translate(-101.62 -74.108)">
  <path transform="rotate(-97.5)" d="m-159.18 90.941c3e-5 4.0928-0.53642 8.1678-1.5957 12.121l69.004 18.488c2.6751-9.9837 4.0313-20.274 4.0312-30.609h-71.439z" color="#000000" color-rendering="auto" dominant-baseline="auto" fill="url(#linearGradient889)" image-rendering="auto" shape-rendering="auto" solid-color="#000000" stop-color="#000000" style="font-feature-settings:normal;font-variant-alternates:normal;font-variant-caps:normal;font-variant-east-asian:normal;font-variant-ligatures:normal;font-variant-numeric:normal;font-variant-position:normal;font-variation-settings:normal;inline-size:0;isolation:auto;mix-blend-mode:normal;shape-margin:0;shape-padding:0;text-decoration-color:#000000;text-decoration-line:none;text-decoration-style:solid;text-indent:0;text-orientation:mixed;text-transform:none;white-space:normal"/>
 </g>
 <g>
  <g transform="scale(.96356 1.0378)" fill-opacity=".4" aria-label=" 5 0 0 0">
   <path d="m16.058 25.582q1.1367 0 1.7009-0.59784 0.57258-0.60626 0.57258-1.5409 0-0.97676-0.63152-1.4904-0.6231-0.52206-1.6925-0.52206-0.70731 0-1.1367 0.14315-0.42944 0.14314-0.63994 0.23577h-2.1051v-6.7278h0.36207q0.65678 0.11788 1.162 0.19367 0.51364 0.06736 1.0273 0.10104 0.52206 0.03368 1.1115 0.0421 0.59784 0.0084 1.4062 0.0084 0.9515 0 1.6756-0.01684t1.2799-0.05052q0.56416-0.03368 1.0104-0.10104 0.44628-0.07578 0.85045-0.17683l0.4126 0.16841q-0.17683 0.73257-0.46312 1.3557-0.27787 0.61468-0.84203 1.0525-0.55574 0.43786-1.4988 0.69047-0.94308 0.25261-2.4082 0.25261-0.85887 0-1.3388-0.0421-0.47154-0.0421-0.78309-0.11788v1.1199q0.15999-0.05052 0.32839-0.0842 0.17683-0.03368 0.40418-0.06736 0.23577-0.03368 0.54732-0.05052 0.31155-0.01684 0.74099-0.01684 1.6167 0 2.7113 0.35365 1.1031 0.35365 1.7514 0.96834 0.65678 0.60626 0.93465 1.4146 0.27787 0.79993 0.27787 1.6925 0 0.91781-0.35365 1.6841-0.35365 0.76625-1.0862 1.3388-0.73257 0.56416-1.8609 0.88413-1.1199 0.31997-2.6692 0.31997-2.6019 0-4.067-0.90097-1.4651-0.90939-1.4651-2.5682 0-0.59784 0.18525-1.0441 0.19367-0.4547 0.50522-0.73257 0.31155-0.28629 0.70731-0.42102 0.39576-0.14315 0.79151-0.14315 0.98518 0 1.4651 0.4126 0.47996 0.4126 0.47996 1.0694 0 0.65678-0.37891 0.9936-0.37891 0.33681-0.89255 0.48838 0.4126 0.21051 0.87571 0.31997t1.0357 0.10946z" style="font-variant-caps:normal;font-variant-east-asian:normal;font-variant-ligatures:normal;font-variant-numeric:normal"/>
   <path d="m11.265 35.154q0-1.4525 0.43417-2.5814 0.44207-1.1367 1.2157-1.9025 0.77362-0.77362 1.8472-1.1762 1.0815-0.4026 2.3524-0.4026 1.2788 0 2.3524 0.4026 1.0815 0.4026 1.8551 1.1762 0.77362 0.76572 1.2078 1.9025 0.44207 1.1288 0.44207 2.5814t-0.44207 2.5892q-0.43417 1.1288-1.2078 1.9025-0.77362 0.76572-1.8551 1.1683-1.0736 0.4026-2.3524 0.4026-1.2709 0-2.3524-0.4026-1.0736-0.4026-1.8472-1.1683-0.77362-0.77362-1.2157-1.9025-0.43417-1.1367-0.43417-2.5892zm4.5628 0q0 1.8946 0.25261 2.7234 0.2605 0.82098 1.0341 0.82098 0.78151 0 1.0341-0.82098 0.2605-0.82888 0.2605-2.7234t-0.2605-2.7156q-0.25261-0.82887-1.0341-0.82887-0.77362 0-1.0341 0.82887-0.25261 0.82098-0.25261 2.7156z" style="font-variant-caps:normal;font-variant-east-asian:normal;font-variant-ligatures:normal;font-variant-numeric:normal"/>
   <path d="m11.656 47.885q0-1.3557 0.40522-2.4092 0.41259-1.061 1.1346-1.7756 0.72204-0.72204 1.724-1.0978 1.0094-0.37575 2.1956-0.37575 1.1936 0 2.1956 0.37575 1.0094 0.37575 1.7314 1.0978 0.72204 0.71467 1.1273 1.7756 0.41259 1.0536 0.41259 2.4092 0 1.3557-0.41259 2.4166-0.40522 1.0536-1.1273 1.7756-0.72204 0.71467-1.7314 1.0904-1.002 0.37575-2.1956 0.37575-1.1862 0-2.1956-0.37575-1.002-0.37575-1.724-1.0904-0.72204-0.72204-1.1346-1.7756-0.40522-1.061-0.40522-2.4166zm4.2585 0q0 1.7683 0.23577 2.5419 0.24314 0.76624 0.96517 0.76624 0.7294 0 0.96517-0.76624 0.24314-0.77361 0.24314-2.5419t-0.24314-2.5345q-0.23577-0.77361-0.96517-0.77361-0.72204 0-0.96517 0.77361-0.23577 0.76624-0.23577 2.5345z" style="font-variant-caps:normal;font-variant-east-asian:normal;font-variant-ligatures:normal;font-variant-numeric:normal"/>
   <path d="m12.046 59.744q0-1.2588 0.37628-2.2372 0.38312-0.98518 1.0536-1.6488 0.67047-0.67047 1.6009-1.0194 0.93729-0.34892 2.0388-0.34892 1.1083 0 2.0388 0.34892 0.93729 0.34892 1.6078 1.0194 0.67047 0.66363 1.0468 1.6488 0.38312 0.97834 0.38312 2.2372 0 1.2588-0.38312 2.244-0.37628 0.97834-1.0468 1.6488-0.67047 0.66362-1.6078 1.0125-0.93044 0.34892-2.0388 0.34892-1.1015 0-2.0388-0.34892-0.93044-0.34892-1.6009-1.0125-0.67047-0.67047-1.0536-1.6488-0.37628-0.98518-0.37628-2.244zm3.9544 0q0 1.642 0.21893 2.3603 0.22577 0.71152 0.89624 0.71152 0.67731 0 0.89624-0.71152 0.22577-0.71836 0.22577-2.3603t-0.22577-2.3535q-0.21893-0.71836-0.89624-0.71836-0.67047 0-0.89624 0.71836-0.21893 0.71152-0.21893 2.3535z" style="font-variant-caps:normal;font-variant-east-asian:normal;font-variant-ligatures:normal;font-variant-numeric:normal"/>
  </g>
  <g transform="scale(1.0064 .9936)" fill-opacity=".4" style="font-variant-caps:normal;font-variant-east-asian:normal;font-variant-ligatures:normal;font-variant-numeric:normal" aria-label="$">
   <path d="m15.58 13.73q-0.56832-0.13562-1.1754-0.47791v0.45207h-1.6791v-2.7899h1.6791q0.14208 0.60707 0.5877 0.94936t1.001 0.34228q0.38103 0 0.55541-0.14208 0.18083-0.14854 0.18083-0.31645 0-0.2777-0.30354-0.4327-0.30354-0.155-0.75561-0.2777-0.44562-0.12271-0.97519-0.27124-0.52957-0.14854-0.98165-0.4327-0.44562-0.28416-0.75561-0.74269-0.30354-0.46499-0.30354-1.2206 0-0.55541 0.23895-0.97519 0.23895-0.42624 0.63936-0.71686 0.40687-0.29062 0.93644-0.44562 0.52957-0.16146 1.1108-0.16146v-1.085h1.311v1.2464q0.31645 0.090415 0.56832 0.20666 0.25187 0.10979 0.41978 0.21312v-0.46499h1.6985v2.7254h-1.6985q-0.038749-0.26479-0.18729-0.48437-0.14208-0.22604-0.34874-0.38103-0.2002-0.16146-0.45207-0.25187-0.25187-0.096873-0.50374-0.096873-0.31645 0-0.52312 0.12271-0.20666 0.11625-0.20666 0.34228 0 0.2777 0.30999 0.42624 0.31645 0.14208 0.76853 0.27124 0.45853 0.12271 1.001 0.2777 0.54249 0.14854 0.99456 0.4327 0.45853 0.28416 0.76853 0.76207 0.30999 0.47145 0.30999 1.24 0 0.56832-0.23895 0.9881-0.2325 0.41332-0.63936 0.69103-0.40041 0.2777-0.92998 0.41978-0.52957 0.13562-1.1108 0.16146v1.0591h-1.311z" fill-opacity=".4" style="font-variant-caps:normal;font-variant-east-asian:normal;font-variant-ligatures:normal;font-variant-numeric:normal"/>
  </g>
  <g stroke="#e0e0e0" stroke-opacity=".94" stroke-width=".33074" style="font-variant-caps:normal;font-variant-east-asian:normal;font-variant-ligatures:normal;font-variant-numeric:normal" aria-label="$">
   <path d="m14.811 12.616q-0.54571-0.13023-1.1286-0.45889v0.43409h-1.6123v-2.6789h1.6123q0.13643 0.58292 0.56432 0.91159 0.42789 0.32867 0.9612 0.32867 0.36588 0 0.53331-0.13643 0.17364-0.14263 0.17364-0.30386 0-0.26666-0.29146-0.41548-0.29146-0.14883-0.72555-0.26666-0.42789-0.11782-0.93639-0.26045t-0.94259-0.41549q-0.42789-0.27286-0.72555-0.71315-0.29146-0.44649-0.29146-1.172 0-0.53331 0.22945-0.93639 0.22945-0.40928 0.61392-0.68834 0.39068-0.27906 0.89918-0.42789 0.5085-0.15503 1.0666-0.15503v-1.0418h1.2589v1.1968q0.30386 0.086818 0.54571 0.19844 0.24185 0.10542 0.40308 0.20464v-0.44649h1.6309v2.6169h-1.6309q-0.037208-0.25425-0.17984-0.4651-0.13643-0.21704-0.33487-0.36587-0.19224-0.15503-0.43409-0.24185-0.24185-0.093019-0.4837-0.093019-0.30386 0-0.5023 0.11782-0.19844 0.11162-0.19844 0.32867 0 0.26665 0.29766 0.40928 0.30386 0.13643 0.73795 0.26045 0.44029 0.11782 0.9612 0.26665 0.52091 0.14263 0.955 0.41548 0.44029 0.27286 0.73795 0.73175 0.29766 0.45269 0.29766 1.1906 0 0.54571-0.22945 0.94879-0.22324 0.39688-0.61392 0.66354-0.38448 0.26665-0.89298 0.40308-0.5085 0.13023-1.0666 0.15503v1.017h-1.2589z" stroke="#e0e0e0" stroke-opacity=".94" stroke-width=".33074" style="font-variant-caps:normal;font-variant-east-asian:normal;font-variant-ligatures:normal;font-variant-numeric:normal"/>
  </g>
  <g transform="scale(.95225 1.0501)" stroke="#e0e0e0" stroke-opacity=".94" stroke-width=".33073" aria-label=" 5 0 0 0">
   <path d="m15.277 24.466q1.1162 0 1.6702-0.58705 0.56225-0.59532 0.56225-1.5131 0-0.95913-0.62013-1.4635-0.61186-0.51264-1.6619-0.51264-0.69454 0-1.1162 0.14056-0.42169 0.14056-0.6284 0.23151h-2.0671v-6.6064h0.35554q0.64493 0.11576 1.141 0.19017 0.50437 0.06615 1.0087 0.09922 0.51264 0.03307 1.0914 0.04134 0.58705 0.0083 1.3808 0.0083 0.93432 0 1.6454-0.01654t1.2568-0.04961q0.55398-0.03307 0.9922-0.09922 0.43822-0.07442 0.8351-0.17364l0.40515 0.16537q-0.17364 0.71935-0.45476 1.3312-0.27286 0.60359-0.82684 1.0335-0.54571 0.42996-1.4718 0.678-0.92606 0.24805-2.3648 0.24805-0.84337 0-1.3147-0.04134-0.46303-0.04134-0.76896-0.11576v1.0997q0.1571-0.04961 0.32247-0.08268 0.17364-0.03307 0.39688-0.06615 0.23151-0.03307 0.53744-0.04961t0.72762-0.01654q1.5875 0 2.6624 0.34727 1.0832 0.34727 1.7198 0.95086 0.64493 0.59532 0.91779 1.3891 0.27286 0.7855 0.27286 1.6619 0 0.90125-0.34727 1.6537-0.34727 0.75242-1.0666 1.3147-0.71935 0.55398-1.8273 0.86818-1.0997 0.3142-2.6211 0.3142-2.5549 0-3.9936-0.88472-1.4387-0.89298-1.4387-2.5218 0-0.58705 0.1819-1.0253 0.19017-0.44649 0.4961-0.71935 0.30593-0.28112 0.69454-0.41342 0.38861-0.14056 0.77723-0.14056 0.9674 0 1.4387 0.40515 0.4713 0.40515 0.4713 1.0501t-0.37208 0.97567q-0.37208 0.33073-0.87645 0.47956 0.40515 0.20671 0.85991 0.3142 0.45476 0.10749 1.017 0.10749z" style="font-variant-caps:normal;font-variant-east-asian:normal;font-variant-ligatures:normal;font-variant-numeric:normal"/>
   <path d="m10.571 33.865q0-1.4263 0.42634-2.5348 0.43409-1.1162 1.1937-1.8681 0.75965-0.75965 1.8139-1.155 1.062-0.39533 2.31-0.39533 1.2558 0 2.31 0.39533 1.062 0.39533 1.8216 1.155 0.75965 0.7519 1.186 1.8681 0.43409 1.1085 0.43409 2.5348 0 1.4263-0.43409 2.5425-0.42634 1.1085-1.186 1.8681-0.75965 0.7519-1.8216 1.1472-1.0542 0.39533-2.31 0.39533-1.248 0-2.31-0.39533-1.0542-0.39533-1.8139-1.1472-0.75965-0.75965-1.1937-1.8681-0.42634-1.1162-0.42634-2.5425zm4.4804 0q0 1.8604 0.24805 2.6743 0.2558 0.80616 1.0155 0.80616 0.7674 0 1.0155-0.80616 0.2558-0.81392 0.2558-2.6743t-0.2558-2.6665q-0.24805-0.81391-1.0155-0.81391-0.75965 0-1.0155 0.81391-0.24805 0.80616-0.24805 2.6665z" style="font-variant-caps:normal;font-variant-east-asian:normal;font-variant-ligatures:normal;font-variant-numeric:normal"/>
   <path d="m10.954 46.367q0-1.3312 0.39791-2.3658 0.40515-1.0418 1.1142-1.7436 0.70901-0.70901 1.6929-1.078 0.99116-0.36897 2.156-0.36897 1.172 0 2.156 0.36897 0.99116 0.36897 1.7002 1.078 0.70901 0.70177 1.1069 1.7436 0.40515 1.0346 0.40515 2.3658t-0.40515 2.373q-0.39791 1.0346-1.1069 1.7436-0.70901 0.70177-1.7002 1.0707-0.98393 0.36897-2.156 0.36897-1.1648 0-2.156-0.36897-0.98393-0.36897-1.6929-1.0707-0.70901-0.70901-1.1142-1.7436-0.39791-1.0418-0.39791-2.373zm4.1817 0q0 1.7363 0.23151 2.496 0.23875 0.75242 0.94776 0.75242 0.71624 0 0.94775-0.75242 0.23875-0.75965 0.23875-2.496 0-1.7363-0.23875-2.4888-0.23151-0.75965-0.94775-0.75965-0.70901 0-0.94776 0.75965-0.23151 0.75242-0.23151 2.4888z" style="font-variant-caps:normal;font-variant-east-asian:normal;font-variant-ligatures:normal;font-variant-numeric:normal"/>
   <path d="m11.337 58.011q0-1.2361 0.36949-2.1968 0.37621-0.96739 1.0346-1.619 0.65836-0.65837 1.572-1.001 0.92037-0.34262 2.002-0.34262 1.0883 0 2.002 0.34262 0.92037 0.34262 1.5787 1.001 0.65836 0.65165 1.0279 1.619 0.37621 0.96068 0.37621 2.1968t-0.37621 2.2035q-0.36949 0.96068-1.0279 1.619-0.65837 0.65165-1.5787 0.99427-0.91365 0.34262-2.002 0.34262-1.0816 0-2.002-0.34262-0.91365-0.34262-1.572-0.99427-0.65837-0.65837-1.0346-1.619-0.36949-0.9674-0.36949-2.2035zm3.883 0q0 1.6123 0.21498 2.3177 0.22169 0.69867 0.88006 0.69867 0.66508 0 0.88006-0.69867 0.2217-0.70539 0.2217-2.3177t-0.2217-2.311q-0.21498-0.70539-0.88006-0.70539-0.65837 0-0.88006 0.70539-0.21498 0.69867-0.21498 2.311z" style="font-variant-caps:normal;font-variant-east-asian:normal;font-variant-ligatures:normal;font-variant-numeric:normal"/>
  </g>
 </g>
</svg>
