<svg width="116.69" height="271.51" version="1.1" viewBox="0 0 30.874 71.838" xmlns="http://www.w3.org/2000/svg" xmlns:xlink="http://www.w3.org/1999/xlink">
 <defs>
  <linearGradient id="linearGradient1237" x1="2.675" x2="24.952" y1="18.912" y2="18.912" gradientUnits="userSpaceOnUse" xlink:href="#linearGradient1235"/>
  <linearGradient id="linearGradient1235">
   <stop stop-color="#ff0" offset="0"/>
   <stop stop-color="#e9e992" offset="1"/>
  </linearGradient>
 </defs>
 <path d="m25.094 22.632a9.6574 9.6574 0 0 1-9.6574 9.6574 9.6574 9.6574 0 0 1-9.6574-9.6574 9.6574 9.6574 0 0 1 9.6574-9.6574 9.6574 9.6574 0 0 1 9.6574 9.6574z" fill="#085a00" style="paint-order:markers fill stroke"/>
 <g transform="matrix(.45288 0 0 .38444 9.3835 10.775)" fill-opacity=".59929" aria-label=" free">
  <path d="m7.6853 12.586c-0.72205 0.05496-1.3432 0.49874-1.8211 1.0088-0.52415 0.56094-0.90977 1.234-1.2431 1.916-0.34308-0.06809-0.67956-0.28877-1.0495-0.24662-0.23616 0.06902-0.25202 0.39629-0.10553 0.55595 0.194 0.25859 0.50989 0.37675 0.77925 0.53455-0.00859 0.10198-0.083006 0.19056-0.10252 0.29288-0.62924 1.6932-1.0097 3.4713-1.2001 5.2633-0.073757 0.76605-0.12127 1.5373-0.091214 2.3066 0.056685 0.45417 0.3995 0.89092 0.87286 0.9637 0.51861 0.1124 1.0779 0.06144 1.5627-0.15418 0.40197-0.18925 0.71661-0.56194 0.79415-0.99999 0.11959-0.54182 0.014026-1.0966-0.015709-1.6422-0.051378-0.60096-0.10977-1.2013-0.16741-1.8017 0.29924 0.23092 0.66335 0.36567 1.0388 0.41003 0.40051 0.04942 0.82786 0.06316 1.2063-0.09556 0.091502-0.04087 0.17907-0.09012 0.2616-0.14654 0.012055 0.38602-1.32e-4 0.8062 0.21863 1.1436 0.1485 0.19434 0.42562 0.21934 0.64358 0.18418 0.41209-0.03696 0.85508-0.26246 0.98723-0.67384 0.05932-0.28468-0.01207-0.57429-7e-3 -0.86128-0.03013-0.5334-0.07958-1.0779 0.057-1.6017 0.06354-0.29934 0.14235-0.59522 0.20773-0.89413 0.26665 0.02212 0.54811 0.01545 0.80487-0.02532-0.34688 0.80668-0.53733 1.6953-0.45231 2.5728 0.0595 0.45727 0.24126 0.94794 0.65635 1.2007 0.38579 0.20365 0.85341 0.15031 1.2557 0.02559 0.45808-0.15416 0.84232-0.47007 1.1501-0.83238 0.28101 0.4816 0.78681 0.8151 1.3377 0.91382 0.59394 0.11281 1.2081 0.06314 1.7988-0.04523 0.70679-0.14744 1.3933-0.47049 1.8928-0.99462 0.27946 0.60606 0.91778 1.002 1.5785 1.0689 0.58928 0.07734 1.1909 0.01727 1.769-0.10802 0.89214-0.21223 1.7362-0.74574 2.1982-1.5436 0.19189-0.34487 0.31826-0.74533 0.27445-1.1419-0.0054-0.14031-0.09931-0.29177-0.25531-0.29189-0.18141 5e-3 -0.29879 0.17258-0.41506 0.28957-0.43987 0.4764-0.96315 0.91008-1.5922 1.113-0.5187 0.16392-1.1433 0.16476-1.5913-0.17725-0.17176-0.16725-0.17368-0.4242-0.16561-0.6464 0.10816-0.10263 0.27022-0.11784 0.39916-0.18811 0.68762-0.27631 1.4463-0.47019 1.9918-0.99795 0.29325-0.28154 0.46507-0.67866 0.46141-1.0835 0.01521-0.45296-0.21537-0.92235-0.63217-1.1337-0.47173-0.25148-1.0406-0.22686-1.5475-0.10694-0.93702 0.24096-1.7051 0.94351-2.1309 1.7901-0.2753 0.51891-0.43793 1.0905-0.52717 1.6667-0.08531 0.12016-0.21923 0.19744-0.3239 0.30079-0.53739 0.44299-1.2399 0.76543-1.9532 0.66304-0.27364-0.04108-0.57658-0.12953-0.7431-0.36416-0.09844-0.17216-0.09067-0.37696-0.08662-0.56831 0.75808-0.35118 1.6185-0.51926 2.2763-1.0579 0.32677-0.27354 0.55915-0.67049 0.57228-1.0999 0.04098-0.4589-0.15894-0.95383-0.57287-1.1909-0.46288-0.27894-1.0417-0.26323-1.5538-0.15098-0.95608 0.2267-1.744 0.93676-2.1765 1.7953-0.27789 0.5186-0.43998 1.0914-0.53025 1.6684-0.08539 0.1331-0.22218 0.22525-0.32465 0.34556-0.22665 0.21822-0.44907 0.45829-0.73801 0.59446-0.08105 0.03951-0.11714-0.01471-0.10302-0.0932 0.01711-0.27011 0.11185-0.5287 0.16958-0.79202 0.17726-0.66762 0.3792-1.3288 0.54044-2.0004-0.02283-0.19403-0.12656-0.36667-0.19417-0.54758-0.10554-0.22544-0.23821-0.46911-0.46919-0.58723-0.26796-0.09894-0.51437 0.10064-0.745 0.20562-0.33774 0.1668-0.73626 0.29786-1.1109 0.18933-0.06494-0.08147-0.06441-0.19771-0.11612-0.28921-0.1603-0.38918-0.42823-0.77727-0.84095-0.92973-0.34247-0.1038-0.7514-0.04859-1.023 0.19052-0.32866 0.33127-0.31606 0.89397-0.034983 1.2506 0.095509 0.13687 0.21056 0.25862 0.32665 0.37837-0.24358 0.50209-0.43595 1.0345-0.50934 1.5886-0.24551 0.28487-0.44449 0.63464-0.80776 0.79218-0.23934 0.10414-0.54705 0.03815-0.69436-0.18366-0.27161-0.33901-0.31618-0.78607-0.3815-1.1985-0.39396-0.0013-0.79088 0.02906-1.1721 0.13205 0.11926-0.59421 0.27766-1.1767 0.48738-1.7487 0.96548-0.06039 1.9555-0.35431 2.6806-1.011 0.61284-0.58159 0.84511-1.5309 0.54503-2.3196-0.12002-0.31573-0.38475-0.57682-0.71771-0.66511-0.24548-0.07603-0.50581-0.08585-0.76119-0.0829zm0.038124 1.4125c0.1284 0.04855 0.093005 0.22049 0.087747 0.32792-0.054793 0.44366-0.43868 0.75297-0.81696 0.94439-0.19931 0.10812-0.39654 0.20014-0.60055 0.29424 0.28547-0.55422 0.59801-1.1451 1.1362-1.506 0.057641-0.03513 0.12379-0.06851 0.19353-0.06057zm8.835 3.1195c0.13421-0.0083 0.2809 0.104 0.23606 0.24783-0.05133 0.33724-0.37638 0.52559-0.64537 0.68794-0.11963 0.07331-0.23897 0.14695-0.35653 0.22347 0.08893-0.38599 0.17866-0.81625 0.5-1.0838 0.07746-0.05484 0.172-0.07439 0.26583-0.07546zm5.1098 6.02e-4c0.13307-0.0016 0.26384 0.1164 0.21714 0.25433-0.05321 0.32875-0.36946 0.51529-0.63042 0.67263-0.12395 0.07647-0.24769 0.15294-0.37055 0.23107 0.08966-0.38607 0.17348-0.7871 0.47633-1.0664 0.0866-0.06896 0.19801-0.09573 0.3075-0.09167zm-16.786 4.9041c0.05372 0.52803 0.10951 1.056 0.087073 1.5892-0.029538 0.1794-0.092728 0.3871-0.26488 0.479-0.14674 0.0074-0.19137-0.17466-0.1802-0.2903-0.00245-0.40528 0.064563-0.80892 0.11203-1.2048 0.05052-0.36459 0.10823-0.72137 0.18987-1.0796 0.018706 0.16884 0.037413 0.33767 0.056119 0.50651z" fill-opacity=".59929" style="font-variant-caps:normal;font-variant-east-asian:normal;font-variant-ligatures:normal;font-variant-numeric:normal"/>
 </g>
 <g transform="matrix(.45288 0 0 .38444 9.1811 10.567)" fill="#fffffe" aria-label=" free">
  <path d="m7.6853 12.586c-0.72205 0.05496-1.3432 0.49874-1.8211 1.0088-0.52415 0.56094-0.90977 1.234-1.2431 1.916-0.34308-0.06809-0.67956-0.28877-1.0495-0.24662-0.23616 0.06902-0.25202 0.39629-0.10553 0.55595 0.194 0.25859 0.50989 0.37675 0.77925 0.53455-0.00859 0.10198-0.083006 0.19056-0.10252 0.29288-0.62924 1.6932-1.0097 3.4713-1.2001 5.2633-0.073757 0.76605-0.12127 1.5373-0.091214 2.3066 0.056685 0.45417 0.3995 0.89092 0.87286 0.9637 0.51861 0.1124 1.0779 0.06144 1.5627-0.15418 0.40197-0.18925 0.71661-0.56194 0.79415-0.99999 0.11959-0.54182 0.014026-1.0966-0.015709-1.6422-0.051378-0.60096-0.10977-1.2013-0.16741-1.8017 0.29924 0.23092 0.66335 0.36567 1.0388 0.41003 0.40051 0.04942 0.82786 0.06316 1.2063-0.09556 0.091502-0.04087 0.17907-0.09012 0.2616-0.14654 0.012055 0.38602-1.32e-4 0.8062 0.21863 1.1436 0.1485 0.19434 0.42562 0.21934 0.64358 0.18418 0.41209-0.03696 0.85508-0.26246 0.98723-0.67384 0.05932-0.28468-0.01207-0.57429-7e-3 -0.86128-0.03013-0.5334-0.07958-1.0779 0.057-1.6017 0.06354-0.29934 0.14235-0.59522 0.20773-0.89413 0.26665 0.02212 0.54811 0.01545 0.80487-0.02532-0.34688 0.80668-0.53733 1.6953-0.45231 2.5728 0.0595 0.45727 0.24126 0.94794 0.65635 1.2007 0.38579 0.20365 0.85341 0.15031 1.2557 0.02559 0.45808-0.15416 0.84232-0.47007 1.1501-0.83238 0.28101 0.4816 0.78681 0.8151 1.3377 0.91382 0.59394 0.11281 1.2081 0.06314 1.7988-0.04523 0.70679-0.14744 1.3933-0.47049 1.8928-0.99462 0.27946 0.60606 0.91778 1.002 1.5785 1.0689 0.58928 0.07734 1.1909 0.01727 1.769-0.10802 0.89214-0.21223 1.7362-0.74574 2.1982-1.5436 0.19189-0.34487 0.31826-0.74533 0.27445-1.1419-0.0054-0.14031-0.09931-0.29177-0.25531-0.29189-0.18141 5e-3 -0.29879 0.17258-0.41506 0.28957-0.43987 0.4764-0.96315 0.91008-1.5922 1.113-0.5187 0.16392-1.1433 0.16476-1.5913-0.17725-0.17176-0.16725-0.17368-0.4242-0.16561-0.6464 0.10816-0.10263 0.27022-0.11784 0.39916-0.18811 0.68762-0.27631 1.4463-0.47019 1.9918-0.99795 0.29325-0.28154 0.46507-0.67866 0.46141-1.0835 0.01521-0.45296-0.21537-0.92235-0.63217-1.1337-0.47173-0.25148-1.0406-0.22686-1.5475-0.10694-0.93702 0.24096-1.7051 0.94351-2.1309 1.7901-0.2753 0.51891-0.43793 1.0905-0.52717 1.6667-0.08531 0.12016-0.21923 0.19744-0.3239 0.30079-0.53739 0.44299-1.2399 0.76543-1.9532 0.66304-0.27364-0.04108-0.57658-0.12953-0.7431-0.36416-0.09844-0.17216-0.09067-0.37696-0.08662-0.56831 0.75808-0.35118 1.6185-0.51926 2.2763-1.0579 0.32677-0.27354 0.55915-0.67049 0.57228-1.0999 0.04098-0.4589-0.15894-0.95383-0.57287-1.1909-0.46288-0.27894-1.0417-0.26323-1.5538-0.15098-0.95608 0.2267-1.744 0.93676-2.1765 1.7953-0.27789 0.5186-0.43998 1.0914-0.53025 1.6684-0.08539 0.1331-0.22218 0.22525-0.32465 0.34556-0.22665 0.21822-0.44907 0.45829-0.73801 0.59446-0.08105 0.03951-0.11714-0.01471-0.10302-0.0932 0.01711-0.27011 0.11185-0.5287 0.16958-0.79202 0.17726-0.66762 0.3792-1.3288 0.54044-2.0004-0.02283-0.19403-0.12656-0.36667-0.19417-0.54758-0.10554-0.22544-0.23821-0.46911-0.46919-0.58723-0.26796-0.09894-0.51437 0.10064-0.745 0.20562-0.33774 0.1668-0.73626 0.29786-1.1109 0.18933-0.06494-0.08147-0.06441-0.19771-0.11612-0.28921-0.1603-0.38918-0.42823-0.77727-0.84095-0.92973-0.34247-0.1038-0.7514-0.04859-1.023 0.19052-0.32866 0.33127-0.31606 0.89397-0.034983 1.2506 0.095509 0.13687 0.21056 0.25862 0.32665 0.37837-0.24358 0.50209-0.43595 1.0345-0.50934 1.5886-0.24551 0.28487-0.44449 0.63464-0.80776 0.79218-0.23934 0.10414-0.54705 0.03815-0.69436-0.18366-0.27161-0.33901-0.31618-0.78607-0.3815-1.1985-0.39396-0.0013-0.79088 0.02906-1.1721 0.13205 0.11926-0.59421 0.27766-1.1767 0.48738-1.7487 0.96548-0.06039 1.9555-0.35431 2.6806-1.011 0.61284-0.58159 0.84511-1.5309 0.54503-2.3196-0.12002-0.31573-0.38475-0.57682-0.71771-0.66511-0.24548-0.07603-0.50581-0.08585-0.76119-0.0829zm0.038124 1.4125c0.1284 0.04855 0.093005 0.22049 0.087747 0.32792-0.054793 0.44366-0.43868 0.75297-0.81696 0.94439-0.19931 0.10812-0.39654 0.20014-0.60055 0.29424 0.28547-0.55422 0.59801-1.1451 1.1362-1.506 0.057641-0.03513 0.12379-0.06851 0.19353-0.06057zm8.835 3.1195c0.13421-0.0083 0.2809 0.104 0.23606 0.24783-0.05133 0.33724-0.37638 0.52559-0.64537 0.68794-0.11963 0.07331-0.23897 0.14695-0.35653 0.22347 0.08893-0.38599 0.17866-0.81625 0.5-1.0838 0.07746-0.05484 0.172-0.07439 0.26583-0.07546zm5.1098 6.02e-4c0.13307-0.0016 0.26384 0.1164 0.21714 0.25433-0.05321 0.32875-0.36946 0.51529-0.63042 0.67263-0.12395 0.07647-0.24769 0.15294-0.37055 0.23107 0.08966-0.38607 0.17348-0.7871 0.47633-1.0664 0.0866-0.06896 0.19801-0.09573 0.3075-0.09167zm-16.786 4.9041c0.05372 0.52803 0.10951 1.056 0.087073 1.5892-0.029538 0.1794-0.092728 0.3871-0.26488 0.479-0.14674 0.0074-0.19137-0.17466-0.1802-0.2903-0.00245-0.40528 0.064563-0.80892 0.11203-1.2048 0.05052-0.36459 0.10823-0.72137 0.18987-1.0796 0.018706 0.16884 0.037413 0.33767 0.056119 0.50651z" fill="url(#linearGradient1237)" stroke="#000" stroke-width=".31706" style="font-variant-caps:normal;font-variant-east-asian:normal;font-variant-ligatures:normal;font-variant-numeric:normal"/>
 </g>
 <g transform="matrix(.55851 0 0 .77925 5.9193 3.4964)" fill-opacity=".59578" stroke-width=".40106" aria-label="SPIN">
  <path d="m6.7796 28.515q-0.92076 0-1.7992-0.20109-0.86785-0.21167-1.4288-0.56092l0.80435-1.8204q0.52918 0.30692 1.1854 0.49742 0.65618 0.17992 1.2594 0.17992 0.51859 0 0.74084-0.09525 0.22225-0.10584 0.22225-0.30692 0-0.23284-0.29634-0.34926-0.28575-0.11642-0.95252-0.254-0.85726-0.17992-1.4288-0.38101-0.57151-0.21167-0.99485-0.67734-0.42334-0.47626-0.42334-1.2806 0-0.69851 0.39159-1.27t1.1642-0.8996q0.78318-0.32809 1.8944-0.32809 0.76201 0 1.4923 0.16934 0.74084 0.15875 1.3018 0.47626l-0.75143 1.8098q-1.0901-0.55034-2.0638-0.55034-0.9631 0-0.9631 0.46567 0 0.22225 0.28575 0.33867 0.28575 0.10584 0.94193 0.23284 0.84668 0.15875 1.4288 0.37042 0.58209 0.20109 1.0054 0.66676 0.43392 0.46567 0.43392 1.27 0 0.69851-0.39159 1.27-0.39159 0.56092-1.1748 0.8996-0.7726 0.32809-1.8839 0.32809z"/>
  <path d="m14.537 20.937q1.0266 0 1.7886 0.33867t1.1748 0.97368q0.41276 0.63501 0.41276 1.4817t-0.41276 1.4817q-0.41276 0.63501-1.1748 0.97368t-1.7886 0.33867h-1.0689v1.8204h-2.4977v-7.4084zm-0.15875 3.6619q0.50801 0 0.76201-0.22225 0.254-0.23284 0.254-0.64559 0-0.41276-0.254-0.63501-0.254-0.23284-0.76201-0.23284h-0.91018v1.7357z"/>
  <path d="m22.105 22.821v3.6407h1.1113v1.8839h-4.7202v-1.8839h1.1113v-3.6407h-1.1113v-1.8839h4.7202v1.8839z"/>
  <path d="m28.687 20.768q1.3124 0 2.032 0.85726 0.73026 0.85726 0.73026 2.4342v4.2863h-2.4977v-4.2122q0-0.67734-0.29634-1.0054-0.28575-0.33867-0.80435-0.33867-0.51859 0-0.84668 0.35984-0.3175 0.35984-0.3175 1.0689v4.1276h-2.4977v-7.4084h2.4236v0.79376q0.75143-0.9631 2.0744-0.9631z"/>
 </g>
 <g transform="matrix(.55851 0 0 .77925 5.6626 3.2251)" fill="#fff" stroke-width=".40106" aria-label="SPIN">
  <path d="m6.7796 28.515q-0.92076 0-1.7992-0.20109-0.86785-0.21167-1.4288-0.56092l0.80435-1.8204q0.52918 0.30692 1.1854 0.49742 0.65618 0.17992 1.2594 0.17992 0.51859 0 0.74084-0.09525 0.22225-0.10584 0.22225-0.30692 0-0.23284-0.29634-0.34926-0.28575-0.11642-0.95252-0.254-0.85726-0.17992-1.4288-0.38101-0.57151-0.21167-0.99485-0.67734-0.42334-0.47626-0.42334-1.2806 0-0.69851 0.39159-1.27t1.1642-0.8996q0.78318-0.32809 1.8944-0.32809 0.76201 0 1.4923 0.16934 0.74084 0.15875 1.3018 0.47626l-0.75143 1.8098q-1.0901-0.55034-2.0638-0.55034-0.9631 0-0.9631 0.46567 0 0.22225 0.28575 0.33867 0.28575 0.10584 0.94193 0.23284 0.84668 0.15875 1.4288 0.37042 0.58209 0.20109 1.0054 0.66676 0.43392 0.46567 0.43392 1.27 0 0.69851-0.39159 1.27-0.39159 0.56092-1.1748 0.8996-0.7726 0.32809-1.8839 0.32809z"/>
  <path d="m14.537 20.937q1.0266 0 1.7886 0.33867t1.1748 0.97368q0.41276 0.63501 0.41276 1.4817t-0.41276 1.4817q-0.41276 0.63501-1.1748 0.97368t-1.7886 0.33867h-1.0689v1.8204h-2.4977v-7.4084zm-0.15875 3.6619q0.50801 0 0.76201-0.22225 0.254-0.23284 0.254-0.64559 0-0.41276-0.254-0.63501-0.254-0.23284-0.76201-0.23284h-0.91018v1.7357z"/>
  <path d="m22.105 22.821v3.6407h1.1113v1.8839h-4.7202v-1.8839h1.1113v-3.6407h-1.1113v-1.8839h4.7202v1.8839z"/>
  <path d="m28.687 20.768q1.3124 0 2.032 0.85726 0.73026 0.85726 0.73026 2.4342v4.2863h-2.4977v-4.2122q0-0.67734-0.29634-1.0054-0.28575-0.33867-0.80435-0.33867-0.51859 0-0.84668 0.35984-0.3175 0.35984-0.3175 1.0689v4.1276h-2.4977v-7.4084h2.4236v0.79376q0.75143-0.9631 2.0744-0.9631z"/>
 </g>
 <g transform="translate(0 9.6564)">
  <g transform="matrix(.45288 0 0 .38444 9.3835 10.775)" fill-opacity=".59929" aria-label=" free">
   <path d="m7.6853 12.586c-0.72205 0.05496-1.3432 0.49874-1.8211 1.0088-0.52415 0.56094-0.90977 1.234-1.2431 1.916-0.34308-0.06809-0.67956-0.28877-1.0495-0.24662-0.23616 0.06902-0.25202 0.39629-0.10553 0.55595 0.194 0.25859 0.50989 0.37675 0.77925 0.53455-0.00859 0.10198-0.083006 0.19056-0.10252 0.29288-0.62924 1.6932-1.0097 3.4713-1.2001 5.2633-0.073757 0.76605-0.12127 1.5373-0.091214 2.3066 0.056685 0.45417 0.3995 0.89092 0.87286 0.9637 0.51861 0.1124 1.0779 0.06144 1.5627-0.15418 0.40197-0.18925 0.71661-0.56194 0.79415-0.99999 0.11959-0.54182 0.014026-1.0966-0.015709-1.6422-0.051378-0.60096-0.10977-1.2013-0.16741-1.8017 0.29924 0.23092 0.66335 0.36567 1.0388 0.41003 0.40051 0.04942 0.82786 0.06316 1.2063-0.09556 0.091502-0.04087 0.17907-0.09012 0.2616-0.14654 0.012055 0.38602-1.32e-4 0.8062 0.21863 1.1436 0.1485 0.19434 0.42562 0.21934 0.64358 0.18418 0.41209-0.03696 0.85508-0.26246 0.98723-0.67384 0.05932-0.28468-0.01207-0.57429-7e-3 -0.86128-0.03013-0.5334-0.07958-1.0779 0.057-1.6017 0.06354-0.29934 0.14235-0.59522 0.20773-0.89413 0.26665 0.02212 0.54811 0.01545 0.80487-0.02532-0.34688 0.80668-0.53733 1.6953-0.45231 2.5728 0.0595 0.45727 0.24126 0.94794 0.65635 1.2007 0.38579 0.20365 0.85341 0.15031 1.2557 0.02559 0.45808-0.15416 0.84232-0.47007 1.1501-0.83238 0.28101 0.4816 0.78681 0.8151 1.3377 0.91382 0.59394 0.11281 1.2081 0.06314 1.7988-0.04523 0.70679-0.14744 1.3933-0.47049 1.8928-0.99462 0.27946 0.60606 0.91778 1.002 1.5785 1.0689 0.58928 0.07734 1.1909 0.01727 1.769-0.10802 0.89214-0.21223 1.7362-0.74574 2.1982-1.5436 0.19189-0.34487 0.31826-0.74533 0.27445-1.1419-0.0054-0.14031-0.09931-0.29177-0.25531-0.29189-0.18141 5e-3 -0.29879 0.17258-0.41506 0.28957-0.43987 0.4764-0.96315 0.91008-1.5922 1.113-0.5187 0.16392-1.1433 0.16476-1.5913-0.17725-0.17176-0.16725-0.17368-0.4242-0.16561-0.6464 0.10816-0.10263 0.27022-0.11784 0.39916-0.18811 0.68762-0.27631 1.4463-0.47019 1.9918-0.99795 0.29325-0.28154 0.46507-0.67866 0.46141-1.0835 0.01521-0.45296-0.21537-0.92235-0.63217-1.1337-0.47173-0.25148-1.0406-0.22686-1.5475-0.10694-0.93702 0.24096-1.7051 0.94351-2.1309 1.7901-0.2753 0.51891-0.43793 1.0905-0.52717 1.6667-0.08531 0.12016-0.21923 0.19744-0.3239 0.30079-0.53739 0.44299-1.2399 0.76543-1.9532 0.66304-0.27364-0.04108-0.57658-0.12953-0.7431-0.36416-0.09844-0.17216-0.09067-0.37696-0.08662-0.56831 0.75808-0.35118 1.6185-0.51926 2.2763-1.0579 0.32677-0.27354 0.55915-0.67049 0.57228-1.0999 0.04098-0.4589-0.15894-0.95383-0.57287-1.1909-0.46288-0.27894-1.0417-0.26323-1.5538-0.15098-0.95608 0.2267-1.744 0.93676-2.1765 1.7953-0.27789 0.5186-0.43998 1.0914-0.53025 1.6684-0.08539 0.1331-0.22218 0.22525-0.32465 0.34556-0.22665 0.21822-0.44907 0.45829-0.73801 0.59446-0.08105 0.03951-0.11714-0.01471-0.10302-0.0932 0.01711-0.27011 0.11185-0.5287 0.16958-0.79202 0.17726-0.66762 0.3792-1.3288 0.54044-2.0004-0.02283-0.19403-0.12656-0.36667-0.19417-0.54758-0.10554-0.22544-0.23821-0.46911-0.46919-0.58723-0.26796-0.09894-0.51437 0.10064-0.745 0.20562-0.33774 0.1668-0.73626 0.29786-1.1109 0.18933-0.06494-0.08147-0.06441-0.19771-0.11612-0.28921-0.1603-0.38918-0.42823-0.77727-0.84095-0.92973-0.34247-0.1038-0.7514-0.04859-1.023 0.19052-0.32866 0.33127-0.31606 0.89397-0.034983 1.2506 0.095509 0.13687 0.21056 0.25862 0.32665 0.37837-0.24358 0.50209-0.43595 1.0345-0.50934 1.5886-0.24551 0.28487-0.44449 0.63464-0.80776 0.79218-0.23934 0.10414-0.54705 0.03815-0.69436-0.18366-0.27161-0.33901-0.31618-0.78607-0.3815-1.1985-0.39396-0.0013-0.79088 0.02906-1.1721 0.13205 0.11926-0.59421 0.27766-1.1767 0.48738-1.7487 0.96548-0.06039 1.9555-0.35431 2.6806-1.011 0.61284-0.58159 0.84511-1.5309 0.54503-2.3196-0.12002-0.31573-0.38475-0.57682-0.71771-0.66511-0.24548-0.07603-0.50581-0.08585-0.76119-0.0829zm0.038124 1.4125c0.1284 0.04855 0.093005 0.22049 0.087747 0.32792-0.054793 0.44366-0.43868 0.75297-0.81696 0.94439-0.19931 0.10812-0.39654 0.20014-0.60055 0.29424 0.28547-0.55422 0.59801-1.1451 1.1362-1.506 0.057641-0.03513 0.12379-0.06851 0.19353-0.06057zm8.835 3.1195c0.13421-0.0083 0.2809 0.104 0.23606 0.24783-0.05133 0.33724-0.37638 0.52559-0.64537 0.68794-0.11963 0.07331-0.23897 0.14695-0.35653 0.22347 0.08893-0.38599 0.17866-0.81625 0.5-1.0838 0.07746-0.05484 0.172-0.07439 0.26583-0.07546zm5.1098 6.02e-4c0.13307-0.0016 0.26384 0.1164 0.21714 0.25433-0.05321 0.32875-0.36946 0.51529-0.63042 0.67263-0.12395 0.07647-0.24769 0.15294-0.37055 0.23107 0.08966-0.38607 0.17348-0.7871 0.47633-1.0664 0.0866-0.06896 0.19801-0.09573 0.3075-0.09167zm-16.786 4.9041c0.05372 0.52803 0.10951 1.056 0.087073 1.5892-0.029538 0.1794-0.092728 0.3871-0.26488 0.479-0.14674 0.0074-0.19137-0.17466-0.1802-0.2903-0.00245-0.40528 0.064563-0.80892 0.11203-1.2048 0.05052-0.36459 0.10823-0.72137 0.18987-1.0796 0.018706 0.16884 0.037413 0.33767 0.056119 0.50651z" fill-opacity=".59929" style="font-variant-caps:normal;font-variant-east-asian:normal;font-variant-ligatures:normal;font-variant-numeric:normal"/>
  </g>
  <g transform="matrix(.45288 0 0 .38444 9.1811 10.567)" fill="#fffffe" aria-label=" free">
   <path d="m7.6853 12.586c-0.72205 0.05496-1.3432 0.49874-1.8211 1.0088-0.52415 0.56094-0.90977 1.234-1.2431 1.916-0.34308-0.06809-0.67956-0.28877-1.0495-0.24662-0.23616 0.06902-0.25202 0.39629-0.10553 0.55595 0.194 0.25859 0.50989 0.37675 0.77925 0.53455-0.00859 0.10198-0.083006 0.19056-0.10252 0.29288-0.62924 1.6932-1.0097 3.4713-1.2001 5.2633-0.073757 0.76605-0.12127 1.5373-0.091214 2.3066 0.056685 0.45417 0.3995 0.89092 0.87286 0.9637 0.51861 0.1124 1.0779 0.06144 1.5627-0.15418 0.40197-0.18925 0.71661-0.56194 0.79415-0.99999 0.11959-0.54182 0.014026-1.0966-0.015709-1.6422-0.051378-0.60096-0.10977-1.2013-0.16741-1.8017 0.29924 0.23092 0.66335 0.36567 1.0388 0.41003 0.40051 0.04942 0.82786 0.06316 1.2063-0.09556 0.091502-0.04087 0.17907-0.09012 0.2616-0.14654 0.012055 0.38602-1.32e-4 0.8062 0.21863 1.1436 0.1485 0.19434 0.42562 0.21934 0.64358 0.18418 0.41209-0.03696 0.85508-0.26246 0.98723-0.67384 0.05932-0.28468-0.01207-0.57429-7e-3 -0.86128-0.03013-0.5334-0.07958-1.0779 0.057-1.6017 0.06354-0.29934 0.14235-0.59522 0.20773-0.89413 0.26665 0.02212 0.54811 0.01545 0.80487-0.02532-0.34688 0.80668-0.53733 1.6953-0.45231 2.5728 0.0595 0.45727 0.24126 0.94794 0.65635 1.2007 0.38579 0.20365 0.85341 0.15031 1.2557 0.02559 0.45808-0.15416 0.84232-0.47007 1.1501-0.83238 0.28101 0.4816 0.78681 0.8151 1.3377 0.91382 0.59394 0.11281 1.2081 0.06314 1.7988-0.04523 0.70679-0.14744 1.3933-0.47049 1.8928-0.99462 0.27946 0.60606 0.91778 1.002 1.5785 1.0689 0.58928 0.07734 1.1909 0.01727 1.769-0.10802 0.89214-0.21223 1.7362-0.74574 2.1982-1.5436 0.19189-0.34487 0.31826-0.74533 0.27445-1.1419-0.0054-0.14031-0.09931-0.29177-0.25531-0.29189-0.18141 5e-3 -0.29879 0.17258-0.41506 0.28957-0.43987 0.4764-0.96315 0.91008-1.5922 1.113-0.5187 0.16392-1.1433 0.16476-1.5913-0.17725-0.17176-0.16725-0.17368-0.4242-0.16561-0.6464 0.10816-0.10263 0.27022-0.11784 0.39916-0.18811 0.68762-0.27631 1.4463-0.47019 1.9918-0.99795 0.29325-0.28154 0.46507-0.67866 0.46141-1.0835 0.01521-0.45296-0.21537-0.92235-0.63217-1.1337-0.47173-0.25148-1.0406-0.22686-1.5475-0.10694-0.93702 0.24096-1.7051 0.94351-2.1309 1.7901-0.2753 0.51891-0.43793 1.0905-0.52717 1.6667-0.08531 0.12016-0.21923 0.19744-0.3239 0.30079-0.53739 0.44299-1.2399 0.76543-1.9532 0.66304-0.27364-0.04108-0.57658-0.12953-0.7431-0.36416-0.09844-0.17216-0.09067-0.37696-0.08662-0.56831 0.75808-0.35118 1.6185-0.51926 2.2763-1.0579 0.32677-0.27354 0.55915-0.67049 0.57228-1.0999 0.04098-0.4589-0.15894-0.95383-0.57287-1.1909-0.46288-0.27894-1.0417-0.26323-1.5538-0.15098-0.95608 0.2267-1.744 0.93676-2.1765 1.7953-0.27789 0.5186-0.43998 1.0914-0.53025 1.6684-0.08539 0.1331-0.22218 0.22525-0.32465 0.34556-0.22665 0.21822-0.44907 0.45829-0.73801 0.59446-0.08105 0.03951-0.11714-0.01471-0.10302-0.0932 0.01711-0.27011 0.11185-0.5287 0.16958-0.79202 0.17726-0.66762 0.3792-1.3288 0.54044-2.0004-0.02283-0.19403-0.12656-0.36667-0.19417-0.54758-0.10554-0.22544-0.23821-0.46911-0.46919-0.58723-0.26796-0.09894-0.51437 0.10064-0.745 0.20562-0.33774 0.1668-0.73626 0.29786-1.1109 0.18933-0.06494-0.08147-0.06441-0.19771-0.11612-0.28921-0.1603-0.38918-0.42823-0.77727-0.84095-0.92973-0.34247-0.1038-0.7514-0.04859-1.023 0.19052-0.32866 0.33127-0.31606 0.89397-0.034983 1.2506 0.095509 0.13687 0.21056 0.25862 0.32665 0.37837-0.24358 0.50209-0.43595 1.0345-0.50934 1.5886-0.24551 0.28487-0.44449 0.63464-0.80776 0.79218-0.23934 0.10414-0.54705 0.03815-0.69436-0.18366-0.27161-0.33901-0.31618-0.78607-0.3815-1.1985-0.39396-0.0013-0.79088 0.02906-1.1721 0.13205 0.11926-0.59421 0.27766-1.1767 0.48738-1.7487 0.96548-0.06039 1.9555-0.35431 2.6806-1.011 0.61284-0.58159 0.84511-1.5309 0.54503-2.3196-0.12002-0.31573-0.38475-0.57682-0.71771-0.66511-0.24548-0.07603-0.50581-0.08585-0.76119-0.0829zm0.038124 1.4125c0.1284 0.04855 0.093005 0.22049 0.087747 0.32792-0.054793 0.44366-0.43868 0.75297-0.81696 0.94439-0.19931 0.10812-0.39654 0.20014-0.60055 0.29424 0.28547-0.55422 0.59801-1.1451 1.1362-1.506 0.057641-0.03513 0.12379-0.06851 0.19353-0.06057zm8.835 3.1195c0.13421-0.0083 0.2809 0.104 0.23606 0.24783-0.05133 0.33724-0.37638 0.52559-0.64537 0.68794-0.11963 0.07331-0.23897 0.14695-0.35653 0.22347 0.08893-0.38599 0.17866-0.81625 0.5-1.0838 0.07746-0.05484 0.172-0.07439 0.26583-0.07546zm5.1098 6.02e-4c0.13307-0.0016 0.26384 0.1164 0.21714 0.25433-0.05321 0.32875-0.36946 0.51529-0.63042 0.67263-0.12395 0.07647-0.24769 0.15294-0.37055 0.23107 0.08966-0.38607 0.17348-0.7871 0.47633-1.0664 0.0866-0.06896 0.19801-0.09573 0.3075-0.09167zm-16.786 4.9041c0.05372 0.52803 0.10951 1.056 0.087073 1.5892-0.029538 0.1794-0.092728 0.3871-0.26488 0.479-0.14674 0.0074-0.19137-0.17466-0.1802-0.2903-0.00245-0.40528 0.064563-0.80892 0.11203-1.2048 0.05052-0.36459 0.10823-0.72137 0.18987-1.0796 0.018706 0.16884 0.037413 0.33767 0.056119 0.50651z" fill="url(#linearGradient1237)" stroke="#000" stroke-width=".31706" style="font-variant-caps:normal;font-variant-east-asian:normal;font-variant-ligatures:normal;font-variant-numeric:normal"/>
  </g>
 </g>
</svg>
