<svg width="116.69" height="271.51" version="1.1" viewBox="0 0 30.874 71.838" xmlns="http://www.w3.org/2000/svg" xmlns:xlink="http://www.w3.org/1999/xlink">
 <defs>
  <filter id="filter861" color-interpolation-filters="sRGB">
   <feFlood flood-color="rgb(0,0,0)" flood-opacity=".32941" result="flood"/>
   <feComposite in="flood" in2="SourceGraphic" operator="in" result="composite1"/>
   <feGaussianBlur in="composite1" result="blur"/>
   <feOffset dx="0.8" dy="0.8" result="offset"/>
   <feComposite in="SourceGraphic" in2="offset" result="composite2"/>
  </filter>
  <filter id="filter873" color-interpolation-filters="sRGB">
   <feFlood flood-color="rgb(0,0,0)" flood-opacity=".32941" result="flood"/>
   <feComposite in="flood" in2="SourceGraphic" operator="in" result="composite1"/>
   <feGaussianBlur in="composite1" result="blur"/>
   <feOffset dx="0.8" dy="0.8" result="offset"/>
   <feComposite in="SourceGraphic" in2="offset" result="composite2"/>
  </filter>
  <linearGradient id="linearGradient889" x1="-160.98" x2="-87.718" y1="96.79" y2="106.81" gradientUnits="userSpaceOnUse">
   <stop stop-color="#1683e6" stop-opacity=".6" offset="0"/>
   <stop stop-opacity="0" offset=".50132"/>
   <stop stop-color="#1683e6" stop-opacity=".6" offset="1"/>
  </linearGradient>
 </defs>
 <g transform="translate(-101.62 -74.108)">
  <path transform="rotate(-97.5)" d="m-159.18 90.941c3e-5 4.0928-0.53642 8.1678-1.5957 12.121l69.004 18.488c2.6751-9.9837 4.0313-20.274 4.0312-30.609h-71.439z" color="#000000" color-rendering="auto" dominant-baseline="auto" fill="url(#linearGradient889)" image-rendering="auto" shape-rendering="auto" solid-color="#000000" stop-color="#000000" style="font-feature-settings:normal;font-variant-alternates:normal;font-variant-caps:normal;font-variant-east-asian:normal;font-variant-ligatures:normal;font-variant-numeric:normal;font-variant-position:normal;font-variation-settings:normal;inline-size:0;isolation:auto;mix-blend-mode:normal;shape-margin:0;shape-padding:0;text-decoration-color:#000000;text-decoration-line:none;text-decoration-style:solid;text-indent:0;text-orientation:mixed;text-transform:none;white-space:normal"/>
 </g>
 <g transform="matrix(.90678 0 0 1 1.1295 1.2406)" filter="url(#filter861)" stroke="#e0e0e0" stroke-opacity=".94" stroke-width=".34732" aria-label=" 2 5 0 0">
  <path d="m12.748 24.314q0.17366-0.21707 0.4602-0.46888 0.28654-0.26049 0.6599-0.47756 0.37337-0.22576 0.84225-0.37337 0.46888-0.15629 1.0246-0.15629 0.56439 0 0.95513 0.06078 0.39073 0.06078 0.712 0.13024 0.32127 0.06078 0.60781 0.12156 0.28654 0.06078 0.63386 0.06078 0.6599 0 1.0333-0.28654 0.37337-0.28654 0.37337-1.068h1.7105q0 1.6584-0.31259 2.6396-0.31259 0.97249-0.85961 1.4848-0.53834 0.50361-1.2851 0.64254-0.74673 0.13893-1.5977 0.13893-0.67727 0-1.3111-0.13024-0.62517-0.13024-1.2069-0.27785-0.57308-0.15629-1.1027-0.28654-0.52098-0.13893-0.98117-0.13893-0.39942 0-0.63386 0.11288-0.22576 0.1042-0.36468 0.22576-0.16498 0.14761-0.25181 0.32127h-1.9884q0-1.3024 0.28654-2.2489 0.29522-0.95512 0.77278-1.6584 0.48625-0.712 1.1027-1.2156 0.62517-0.5123 1.2677-0.89434t1.259-0.68595q0.62517-0.3039 1.1027-0.62517 0.48625-0.32127 0.77278-0.69464 0.29522-0.37337 0.29522-0.88566 0-0.7641-0.59912-1.1375-0.59044-0.37337-1.424-0.37337-0.59044 0-1.0593 0.08683t-0.89434 0.3039q0.52966 0.15629 0.92039 0.50361 0.39073 0.34732 0.39073 1.0246 0 0.3039-0.13893 0.59044-0.13024 0.27786-0.39073 0.5123-0.25181 0.23444-0.64254 0.36468-0.39073 0.13024-0.88566 0.13024-0.37337 0-0.77278-0.12156-0.39073-0.12156-0.712-0.39073-0.31259-0.26917-0.52098-0.70332-0.19971-0.43415-0.19971-1.0593 0-0.83356 0.44283-1.5282 0.44283-0.69464 1.2417-1.1982 0.79883-0.51229 1.9189-0.78147 1.1201-0.27786 2.4573-0.27786 1.424 0 2.5094 0.3039 1.0854 0.3039 1.8234 0.84225 0.73805 0.52966 1.1114 1.2417 0.37337 0.70332 0.37337 1.5108 0 0.97249-0.31259 1.6237-0.31259 0.65122-0.85093 1.0767-0.52966 0.42546-1.2243 0.70332-0.69464 0.26917-1.4587 0.47756t-1.5456 0.41678q-0.78147 0.19971-1.4848 0.5123-0.70332 0.3039-1.2851 0.7641-0.57308 0.45151-0.91171 1.1635z" style="font-variant-caps:normal;font-variant-east-asian:normal;font-variant-ligatures:normal;font-variant-numeric:normal"/>
  <path d="m14.866 38.222q1.0989 0 1.6443-0.57796 0.55354-0.5861 0.55354-1.4897 0-0.94427-0.61052-1.4408-0.60238-0.5047-1.6362-0.5047-0.68378 0-1.0989 0.13838-0.41516 0.13838-0.61866 0.22793h-2.0351v-6.5041h0.35003q0.63494 0.11396 1.1234 0.18723 0.49656 0.06512 0.99312 0.09768 0.5047 0.03256 1.0745 0.0407 0.57796 0.0081 1.3594 0.0081 0.91985 0 1.6199-0.01628 0.70006-0.01628 1.2373-0.04884 0.5454-0.03256 0.97683-0.09768 0.43144-0.07326 0.82217-0.17095l0.39887 0.16281q-0.17095 0.7082-0.44772 1.3106-0.26863 0.59424-0.81403 1.0175-0.53726 0.4233-1.449 0.6675-0.91171 0.24421-2.3281 0.24421-0.83031 0-1.2943-0.0407-0.45586-0.0407-0.75705-0.11396v1.0827q0.15466-0.04884 0.31747-0.0814 0.17095-0.03256 0.39073-0.06512 0.22793-0.03256 0.52912-0.04884 0.30119-0.01628 0.71634-0.01628 1.5629 0 2.6212 0.34189 1.0664 0.34189 1.6932 0.93613 0.63494 0.5861 0.90357 1.3676 0.26863 0.77333 0.26863 1.6362 0 0.88729-0.34189 1.6281-0.34189 0.74077-1.0501 1.2943-0.7082 0.5454-1.799 0.85473-1.0827 0.30933-2.5805 0.30933-2.5153 0-3.9318-0.87101-1.4164-0.87915-1.4164-2.4828 0-0.57796 0.17909-1.0094 0.18723-0.43958 0.48842-0.7082 0.30119-0.27677 0.68378-0.40701 0.38259-0.13838 0.76519-0.13838 0.95241 0 1.4164 0.39887t0.464 1.0338-0.36631 0.96055q-0.36631 0.32561-0.86287 0.47214 0.39887 0.20351 0.84659 0.30933 0.44772 0.10582 1.0013 0.10582z" style="font-variant-caps:normal;font-variant-east-asian:normal;font-variant-ligatures:normal;font-variant-numeric:normal"/>
  <path d="m10.258 47.451q0-1.398 0.41786-2.4844 0.42546-1.094 1.17-1.831 0.74456-0.74456 1.7778-1.132 1.0409-0.38748 2.2641-0.38748 1.2308 0 2.2641 0.38748 1.0409 0.38748 1.7854 1.132 0.74456 0.73696 1.1624 1.831 0.42546 1.0865 0.42546 2.4844t-0.42546 2.492q-0.41787 1.0865-1.1624 1.831-0.74456 0.73696-1.7854 1.1244-1.0333 0.38748-2.2641 0.38748-1.2232 0-2.2641-0.38748-1.0333-0.38748-1.7778-1.1244-0.74456-0.74456-1.17-1.831-0.41786-1.094-0.41786-2.492zm4.3914 0q0 1.8234 0.24312 2.6212 0.25072 0.79015 0.99528 0.79015 0.75216 0 0.99528-0.79015 0.25072-0.79774 0.25072-2.6212t-0.25072-2.6136q-0.24312-0.79774-0.99528-0.79774-0.74456 0-0.99528 0.79774-0.24312 0.79015-0.24312 2.6136z" style="font-variant-caps:normal;font-variant-east-asian:normal;font-variant-ligatures:normal;font-variant-numeric:normal"/>
  <path d="m10.66 59.679q0-1.2981 0.38802-2.3069 0.39507-1.0159 1.0865-1.7002 0.69138-0.69138 1.6508-1.0512 0.96652-0.3598 2.1024-0.3598 1.1429 0 2.1024 0.3598 0.96652 0.3598 1.6579 1.0512 0.69138 0.68432 1.0794 1.7002 0.39507 1.0088 0.39507 2.3069 0 1.2981-0.39507 2.314-0.38802 1.0088-1.0794 1.7002-0.69138 0.68432-1.6579 1.0441-0.95946 0.3598-2.1024 0.3598-1.1358 0-2.1024-0.3598-0.95946-0.3598-1.6508-1.0441-0.69138-0.69138-1.0865-1.7002-0.38802-1.0159-0.38802-2.314zm4.0777 0q0 1.6932 0.22576 2.4339 0.23281 0.73371 0.92419 0.73371 0.69843 0 0.92419-0.73371 0.23281-0.74076 0.23281-2.4339t-0.23281-2.4269q-0.22576-0.74076-0.92419-0.74076-0.69138 0-0.92419 0.74076-0.22576 0.73371-0.22576 2.4269z" style="font-variant-caps:normal;font-variant-east-asian:normal;font-variant-ligatures:normal;font-variant-numeric:normal"/>
 </g>
 <g filter="url(#filter873)" stroke="#e0e0e0" stroke-opacity=".94" stroke-width=".33073" style="font-variant-caps:normal;font-variant-east-asian:normal;font-variant-ligatures:normal;font-variant-numeric:normal" aria-label="$">
  <path d="m14.811 12.616q-0.54571-0.13023-1.1286-0.45889v0.43409h-1.6123v-2.6789h1.6123q0.13643 0.58292 0.56432 0.91159 0.42789 0.32867 0.9612 0.32867 0.36588 0 0.53331-0.13643 0.17364-0.14263 0.17364-0.30386 0-0.26666-0.29146-0.41548-0.29146-0.14883-0.72555-0.26666-0.42789-0.11782-0.93639-0.26045t-0.94259-0.41549q-0.42789-0.27286-0.72555-0.71315-0.29146-0.44649-0.29146-1.172 0-0.53331 0.22945-0.93639 0.22945-0.40928 0.61393-0.68834 0.39068-0.27906 0.89918-0.42789 0.5085-0.15503 1.0666-0.15503v-1.0418h1.2589v1.1968q0.30386 0.086818 0.54571 0.19844 0.24185 0.10542 0.40308 0.20464v-0.44649h1.6309v2.6169h-1.6309q-0.037208-0.25425-0.17984-0.4651-0.13643-0.21704-0.33487-0.36587-0.19224-0.15503-0.43409-0.24185-0.24185-0.093019-0.4837-0.093019-0.30386 0-0.5023 0.11782-0.19844 0.11162-0.19844 0.32867 0 0.26665 0.29766 0.40928 0.30386 0.13643 0.73795 0.26045 0.44029 0.11782 0.9612 0.26665 0.52091 0.14263 0.955 0.41549 0.44029 0.27286 0.73795 0.73175 0.29766 0.45269 0.29766 1.1906 0 0.54571-0.22945 0.9488-0.22325 0.39688-0.61393 0.66354-0.38448 0.26666-0.89298 0.40308-0.5085 0.13023-1.0666 0.15503v1.017h-1.2589z" stroke="#e0e0e0" stroke-opacity=".94" stroke-width=".33073" style="font-variant-caps:normal;font-variant-east-asian:normal;font-variant-ligatures:normal;font-variant-numeric:normal"/>
 </g>
</svg>
