<svg width="116.69" height="271.51" version="1.1" viewBox="0 0 30.874 71.838" xmlns="http://www.w3.org/2000/svg">
 <g filter="url(#filter872)" stroke="#e0e0e0" stroke-opacity=".94" stroke-width=".33073" style="font-variant-caps:normal;font-variant-east-asian:normal;font-variant-ligatures:normal;font-variant-numeric:normal" aria-label="$">
  <path d="m14.811 12.616q-0.54571-0.13023-1.1286-0.45889v0.43409h-1.6123v-2.6789h1.6123q0.13643 0.58292 0.56432 0.91159 0.42789 0.32867 0.9612 0.32867 0.36588 0 0.53331-0.13643 0.17364-0.14263 0.17364-0.30386 0-0.26666-0.29146-0.41548-0.29146-0.14883-0.72555-0.26666-0.42789-0.11782-0.93639-0.26045t-0.94259-0.41549q-0.42789-0.27286-0.72555-0.71315-0.29146-0.44649-0.29146-1.172 0-0.53331 0.22945-0.93639 0.22945-0.40928 0.61393-0.68834 0.39068-0.27906 0.89918-0.42789 0.5085-0.15503 1.0666-0.15503v-1.0418h1.2589v1.1968q0.30386 0.086818 0.54571 0.19844 0.24185 0.10542 0.40308 0.20464v-0.44649h1.6309v2.6169h-1.6309q-0.037208-0.25425-0.17984-0.4651-0.13643-0.21704-0.33487-0.36587-0.19224-0.15503-0.43409-0.24185-0.24185-0.093019-0.4837-0.093019-0.30386 0-0.5023 0.11782-0.19844 0.11162-0.19844 0.32867 0 0.26665 0.29766 0.40928 0.30386 0.13643 0.73795 0.26045 0.44029 0.11782 0.9612 0.26665 0.52091 0.14263 0.955 0.41549 0.44029 0.27286 0.73795 0.73175 0.29766 0.45269 0.29766 1.1906 0 0.54571-0.22945 0.9488-0.22325 0.39688-0.61393 0.66354-0.38448 0.26666-0.89298 0.40308-0.5085 0.13023-1.0666 0.15503v1.017h-1.2589z" stroke="#e0e0e0" stroke-opacity=".94" stroke-width=".33073" style="font-variant-caps:normal;font-variant-east-asian:normal;font-variant-ligatures:normal;font-variant-numeric:normal"/>
 </g>
 <defs>
  <filter id="filter860" color-interpolation-filters="sRGB">
   <feFlood flood-color="rgb(0,0,0)" flood-opacity=".32941" result="flood"/>
   <feComposite in="flood" in2="SourceGraphic" operator="in" result="composite1"/>
   <feGaussianBlur in="composite1" result="blur"/>
   <feOffset dx="0.8" dy="0.8" result="offset"/>
   <feComposite in="SourceGraphic" in2="offset" result="composite2"/>
  </filter>
  <filter id="filter872" color-interpolation-filters="sRGB">
   <feFlood flood-color="rgb(0,0,0)" flood-opacity=".32941" result="flood"/>
   <feComposite in="flood" in2="SourceGraphic" operator="in" result="composite1"/>
   <feGaussianBlur in="composite1" result="blur"/>
   <feOffset dx="0.8" dy="0.8" result="offset"/>
   <feComposite in="SourceGraphic" in2="offset" result="composite2"/>
  </filter>
 </defs>
 <g transform="matrix(.90678 0 0 1 1.0271 1.9627)" filter="url(#filter860)" stroke="#e0e0e0" stroke-opacity=".94" stroke-width=".34732" aria-label=" 9 0 0">
  <path d="m17.56 22.407q-0.54778 0.34107-1.3023 0.58912-0.74415 0.23772-1.8707 0.23772-2.7699 0-4.2892-1.1782-1.509-1.1886-1.509-3.3694 0-1.1886 0.4961-2.1498 0.4961-0.9612 1.3953-1.633 0.89918-0.68214 2.1704-1.0439t2.8422-0.36174q1.664 0 3.0696 0.4961 1.416 0.4961 2.4288 1.4676 1.0129 0.9612 1.5813 2.4082 0.57878 1.447 0.57878 3.359 0 1.9224-0.6408 3.4417-0.63046 1.509-1.7674 2.5632-1.1266 1.0439-2.6665 1.5917-1.5296 0.54778-3.3073 0.54778-1.478 0-2.5425-0.27906-1.0542-0.26872-1.7467-0.74415-0.68214-0.47543-1.0129-1.1059-0.33073-0.6408-0.33073-1.3436 0-0.65113 0.20671-1.1162 0.21704-0.4651 0.58912-0.76482 0.37208-0.29973 0.83717-0.43409 0.4651-0.13436 0.97153-0.13436 1.0852 0 1.6743 0.43409 0.58912 0.43409 0.58912 1.2092 0 0.42375-0.12403 0.70281-0.12402 0.27906-0.33073 0.45476-0.19637 0.1757-0.42375 0.27906-0.21704 0.09302-0.41342 0.13436 0.23772 0.12403 0.53744 0.23772 0.31006 0.10335 0.95086 0.10335 0.6718 0 1.2816-0.27906 0.62013-0.27906 1.0749-0.84751t0.72348-1.4366q0.27906-0.86818 0.27906-2.0361zm-2.2221-6.0979q-0.80616 0-1.1886 0.59946-0.37208 0.58912-0.37208 1.54 0 0.95086 0.37208 1.5503 0.38241 0.58912 1.1886 0.58912t1.1886-0.58912q0.38241-0.59946 0.38241-1.5503 0-0.95086-0.38241-1.54-0.38241-0.59946-1.1886-0.59946z" style="font-variant-caps:normal;font-variant-east-asian:normal;font-variant-ligatures:normal;font-variant-numeric:normal"/>
  <path d="m8.6107 38.224q0-1.8066 0.54003-3.2107 0.54984-1.4139 1.5121-2.3663 0.96223-0.96223 2.2976-1.463 1.3452-0.50075 2.926-0.50075 1.5906 0 2.926 0.50075 1.3452 0.50075 2.3074 1.463 0.96223 0.95241 1.5023 2.3663 0.54984 1.4041 0.54984 3.2107t-0.54984 3.2205q-0.54003 1.4041-1.5023 2.3663-0.96223 0.95241-2.3074 1.4532-1.3353 0.50075-2.926 0.50075-1.5808 0-2.926-0.50075-1.3353-0.50075-2.2976-1.4532-0.96223-0.96223-1.5121-2.3663-0.54003-1.4139-0.54003-3.2205zm5.6752 0q0 2.3565 0.3142 3.3874 0.32402 1.0211 1.2862 1.0211 0.97205 0 1.2862-1.0211 0.32402-1.031 0.32402-3.3874t-0.32402-3.3776q-0.3142-1.031-1.2862-1.031-0.96223 0-1.2862 1.031-0.3142 1.0211-0.3142 3.3776z" style="font-variant-caps:normal;font-variant-east-asian:normal;font-variant-ligatures:normal;font-variant-numeric:normal"/>
  <path d="m8.9939 54.154q0-1.7116 0.5116-3.0417 0.52091-1.3395 1.4325-2.2418 0.91159-0.91159 2.1766-1.386 1.2744-0.4744 2.772-0.4744 1.5069 0 2.772 0.4744 1.2744 0.4744 2.1859 1.386 0.91159 0.90228 1.4232 2.2418 0.52091 1.3302 0.52091 3.0417t-0.52091 3.051q-0.5116 1.3302-1.4232 2.2418-0.91159 0.90228-2.1859 1.3767-1.2651 0.4744-2.772 0.4744-1.4976 0-2.772-0.4744-1.2651-0.4744-2.1766-1.3767-0.91159-0.91159-1.4325-2.2418-0.5116-1.3395-0.5116-3.051zm5.3765 0q0 2.2325 0.29766 3.2092 0.30696 0.9674 1.2185 0.9674 0.92089 0 1.2186-0.9674 0.30696-0.9767 0.30696-3.2092t-0.30696-3.1999q-0.29766-0.9767-1.2186-0.9767-0.91159 0-1.2185 0.9767-0.29766 0.9674-0.29766 3.1999z" style="font-variant-caps:normal;font-variant-east-asian:normal;font-variant-ligatures:normal;font-variant-numeric:normal"/>
 </g>
</svg>
