<svg width="116.69" height="271.51" version="1.1" viewBox="0 0 30.874 71.838" xmlns="http://www.w3.org/2000/svg" xmlns:xlink="http://www.w3.org/1999/xlink">
 <defs>
  <linearGradient id="linearGradient1237" x1="2.675" x2="24.952" y1="18.912" y2="18.912" gradientUnits="userSpaceOnUse">
   <stop stop-color="#ff0" offset="0"/>
   <stop stop-color="#e9e992" offset="1"/>
  </linearGradient>
 </defs>
 <g transform="matrix(.98274 0 0 .99292 -99.597 -73.344)" fill="none" stroke="#000" stroke-width=".40177">
  <path d="m110.92 145.99c4.0699-0.53488 8.1925-0.53492 12.262-7e-5l9.3513-70.911c-10.278-1.3507-20.688-1.3522-30.966-0.0014z" color="#000000" color-rendering="auto" dominant-baseline="auto" fill-opacity="0" image-rendering="auto" shape-rendering="auto" solid-color="#000000" stop-color="#000000" stroke="#000" stroke-width=".40178" style="font-feature-settings:normal;font-variant-alternates:normal;font-variant-caps:normal;font-variant-east-asian:normal;font-variant-ligatures:normal;font-variant-numeric:normal;font-variant-position:normal;font-variation-settings:normal;inline-size:0;isolation:auto;mix-blend-mode:normal;shape-margin:0;shape-padding:0;text-decoration-color:#000000;text-decoration-line:none;text-decoration-style:solid;text-indent:0;text-orientation:mixed;text-transform:none;white-space:normal"/>
 </g>
 <g transform="scale(.74958 1.3341)" fill="#c3c3c3" stroke="#000" stroke-width=".4498" aria-label="PLAY">
  <path d="m8.7454 10.011q1.1 0 1.9165 0.36289 0.8165 0.36289 1.2588 1.0433t0.44227 1.5876-0.44227 1.5876-1.2588 1.0433q-0.8165 0.36289-1.9165 0.36289h-1.1454v1.9505h-2.6763v-7.9382zm-0.1701 3.9237q0.54433 0 0.8165-0.23815 0.27217-0.24949 0.27217-0.69176t-0.27217-0.68042q-0.27217-0.24949-0.8165-0.24949h-0.97527v1.8598z"/>
  <path d="m13.236 10.011h2.6763v5.8629h3.5835v2.0753h-6.2598z"/>
  <path d="m24.077 9.8295q1.1567 0 2.0413 0.46495 0.88454 0.45361 1.3722 1.3382 0.49897 0.8732 0.49897 2.0866v4.2299h-2.6763v-1.599h-2.5175v1.599h-2.6309v-4.2299q0-1.2134 0.48763-2.0866 0.49897-0.88454 1.3835-1.3382 0.88454-0.46495 2.0413-0.46495zm1.2361 4.5021v-0.83918q0-0.73712-0.35155-1.1114-0.34021-0.38557-0.90722-0.38557t-0.91856 0.38557q-0.34021 0.37423-0.34021 1.1114v0.83918z"/>
  <path d="m36.688 10.011v5.3186q0 1.2248-0.49897 2.098t-1.4175 1.3155q-0.91856 0.45361-2.166 0.45361-1.0773 0-1.9619-0.26083-0.8732-0.24949-1.5196-0.7031l0.97527-1.8938q0.55568 0.35155 1.1681 0.54433 0.62372 0.18144 1.2134 0.18144 0.8165 0 1.1681-0.37423 0.36289-0.38557 0.36289-1.2134v-0.22681q-0.7598 0.86186-2.0299 0.86186-1.4969 0-2.2907-0.83918-0.78248-0.85052-0.78248-2.4608v-2.8011h2.6763v2.6083q0 0.66908 0.28351 0.99795 0.29485 0.32887 0.89588 0.32887 0.56702 0 0.90722-0.32887 0.34021-0.34021 0.34021-1.0887v-2.5175z"/>
 </g>
 <g transform="matrix(1.0545 0 0 .92641 .87042 -9.3672)" fill="#fffffe" aria-label=" free">
  <path d="m7.6853 12.586c-0.72205 0.05496-1.3432 0.49874-1.8211 1.0088-0.52415 0.56094-0.90977 1.234-1.2431 1.916-0.34308-0.06809-0.67956-0.28877-1.0495-0.24662-0.23616 0.06902-0.25202 0.39629-0.10553 0.55595 0.194 0.25859 0.50989 0.37675 0.77925 0.53455-0.00859 0.10198-0.083006 0.19056-0.10252 0.29288-0.62924 1.6932-1.0097 3.4713-1.2001 5.2633-0.073757 0.76605-0.12127 1.5373-0.091214 2.3066 0.056685 0.45417 0.3995 0.89092 0.87286 0.9637 0.51861 0.1124 1.0779 0.06144 1.5627-0.15418 0.40197-0.18925 0.71661-0.56194 0.79415-0.99999 0.11959-0.54182 0.014026-1.0966-0.015709-1.6422-0.051378-0.60096-0.10977-1.2013-0.16741-1.8017 0.29924 0.23092 0.66335 0.36567 1.0388 0.41003 0.40051 0.04942 0.82786 0.06316 1.2063-0.09556 0.091502-0.04087 0.17907-0.09012 0.2616-0.14654 0.012055 0.38602-1.32e-4 0.8062 0.21863 1.1436 0.1485 0.19434 0.42562 0.21934 0.64358 0.18418 0.41209-0.03696 0.85508-0.26246 0.98723-0.67384 0.05932-0.28468-0.01207-0.57429-7e-3 -0.86128-0.03013-0.5334-0.07958-1.0779 0.057-1.6017 0.06354-0.29934 0.14235-0.59522 0.20773-0.89413 0.26665 0.02212 0.54811 0.01545 0.80487-0.02532-0.34688 0.80668-0.53733 1.6953-0.45231 2.5728 0.0595 0.45727 0.24126 0.94794 0.65635 1.2007 0.38579 0.20365 0.85341 0.15031 1.2557 0.02559 0.45808-0.15416 0.84232-0.47007 1.1501-0.83238 0.28101 0.4816 0.78681 0.8151 1.3377 0.91382 0.59394 0.11281 1.2081 0.06314 1.7988-0.04523 0.70679-0.14744 1.3933-0.47049 1.8928-0.99462 0.27946 0.60606 0.91778 1.002 1.5785 1.0689 0.58928 0.07734 1.1909 0.01727 1.769-0.10802 0.89214-0.21223 1.7362-0.74574 2.1982-1.5436 0.19189-0.34487 0.31826-0.74533 0.27445-1.1419-0.0054-0.14031-0.09931-0.29177-0.25531-0.29189-0.18141 5e-3 -0.29879 0.17258-0.41506 0.28957-0.43987 0.4764-0.96315 0.91008-1.5922 1.113-0.5187 0.16392-1.1433 0.16476-1.5913-0.17725-0.17176-0.16725-0.17368-0.4242-0.16561-0.6464 0.10816-0.10263 0.27022-0.11784 0.39916-0.18811 0.68762-0.27631 1.4463-0.47019 1.9918-0.99795 0.29325-0.28154 0.46507-0.67866 0.46141-1.0835 0.01521-0.45296-0.21537-0.92235-0.63217-1.1337-0.47173-0.25148-1.0406-0.22686-1.5475-0.10694-0.93702 0.24096-1.7051 0.94351-2.1309 1.7901-0.2753 0.51891-0.43793 1.0905-0.52717 1.6667-0.08531 0.12016-0.21923 0.19744-0.3239 0.30079-0.53739 0.44299-1.2399 0.76543-1.9532 0.66304-0.27364-0.04108-0.57658-0.12953-0.7431-0.36416-0.09844-0.17216-0.09067-0.37696-0.08662-0.56831 0.75808-0.35118 1.6185-0.51926 2.2763-1.0579 0.32677-0.27354 0.55915-0.67049 0.57228-1.0999 0.04098-0.4589-0.15894-0.95383-0.57287-1.1909-0.46288-0.27894-1.0417-0.26323-1.5538-0.15098-0.95608 0.2267-1.744 0.93676-2.1765 1.7953-0.27789 0.5186-0.43998 1.0914-0.53025 1.6684-0.08539 0.1331-0.22218 0.22525-0.32465 0.34556-0.22665 0.21822-0.44907 0.45829-0.73801 0.59446-0.08105 0.03951-0.11714-0.01471-0.10302-0.0932 0.01711-0.27011 0.11185-0.5287 0.16958-0.79202 0.17726-0.66762 0.3792-1.3288 0.54044-2.0004-0.02283-0.19403-0.12656-0.36667-0.19417-0.54758-0.10554-0.22544-0.23821-0.46911-0.46919-0.58723-0.26796-0.09894-0.51437 0.10064-0.745 0.20562-0.33774 0.1668-0.73626 0.29786-1.1109 0.18933-0.06494-0.08147-0.06441-0.19771-0.11612-0.28921-0.1603-0.38918-0.42823-0.77727-0.84095-0.92973-0.34247-0.1038-0.7514-0.04859-1.023 0.19052-0.32866 0.33127-0.31606 0.89397-0.034983 1.2506 0.095509 0.13687 0.21056 0.25862 0.32665 0.37837-0.24358 0.50209-0.43595 1.0345-0.50934 1.5886-0.24551 0.28487-0.44449 0.63464-0.80776 0.79218-0.23934 0.10414-0.54705 0.03815-0.69436-0.18366-0.27161-0.33901-0.31618-0.78607-0.3815-1.1985-0.39396-0.0013-0.79088 0.02906-1.1721 0.13205 0.11926-0.59421 0.27766-1.1767 0.48738-1.7487 0.96548-0.06039 1.9555-0.35431 2.6806-1.011 0.61284-0.58159 0.84511-1.5309 0.54503-2.3196-0.12002-0.31573-0.38475-0.57682-0.71771-0.66511-0.24548-0.07603-0.50581-0.08585-0.76119-0.0829zm0.038124 1.4125c0.1284 0.04855 0.093005 0.22049 0.087747 0.32792-0.054793 0.44366-0.43868 0.75297-0.81696 0.94439-0.19931 0.10812-0.39654 0.20014-0.60055 0.29424 0.28547-0.55422 0.59801-1.1451 1.1362-1.506 0.057641-0.03513 0.12379-0.06851 0.19353-0.06057zm8.835 3.1195c0.13421-0.0083 0.2809 0.104 0.23606 0.24783-0.05133 0.33724-0.37638 0.52559-0.64537 0.68794-0.11963 0.07331-0.23897 0.14695-0.35653 0.22347 0.08893-0.38599 0.17866-0.81625 0.5-1.0838 0.07746-0.05484 0.172-0.07439 0.26583-0.07546zm5.1098 6.02e-4c0.13307-0.0016 0.26384 0.1164 0.21714 0.25433-0.05321 0.32875-0.36946 0.51529-0.63042 0.67263-0.12395 0.07647-0.24769 0.15294-0.37055 0.23107 0.08966-0.38607 0.17348-0.7871 0.47633-1.0664 0.0866-0.06896 0.19801-0.09573 0.3075-0.09167zm-16.786 4.9041c0.05372 0.52803 0.10951 1.056 0.087073 1.5892-0.029538 0.1794-0.092728 0.3871-0.26488 0.479-0.14674 0.0074-0.19137-0.17466-0.1802-0.2903-0.00245-0.40528 0.064563-0.80892 0.11203-1.2048 0.05052-0.36459 0.10823-0.72137 0.18987-1.0796 0.018706 0.16884 0.037413 0.33767 0.056119 0.50651z" fill="url(#linearGradient1237)" stroke="#000" stroke-width=".45508" style="font-variant-caps:normal;font-variant-east-asian:normal;font-variant-ligatures:normal;font-variant-numeric:normal"/>
 </g>
 <g fill="#fff">
  <path d="m5.1211 15.343a0.50272 0.50272 0 0 1-0.50272 0.50272 0.50272 0.50272 0 0 1-0.50272-0.50272 0.50272 0.50272 0 0 1 0.50272-0.50272 0.50272 0.50272 0 0 1 0.50272 0.50272z"/>
  <path d="m5.1211 22.812a0.50272 0.50272 0 0 1-0.50272 0.50272 0.50272 0.50272 0 0 1-0.50272-0.50272 0.50272 0.50272 0 0 1 0.50272-0.50272 0.50272 0.50272 0 0 1 0.50272 0.50272z"/>
  <path d="m5.1211 20.945a0.50272 0.50272 0 0 1-0.50272 0.50272 0.50272 0.50272 0 0 1-0.50272-0.50272 0.50272 0.50272 0 0 1 0.50272-0.50272 0.50272 0.50272 0 0 1 0.50272 0.50272z"/>
  <path d="m5.1211 19.078a0.50272 0.50272 0 0 1-0.50272 0.50272 0.50272 0.50272 0 0 1-0.50272-0.50272 0.50272 0.50272 0 0 1 0.50272-0.50272 0.50272 0.50272 0 0 1 0.50272 0.50272z"/>
  <path d="m5.1211 17.21a0.50272 0.50272 0 0 1-0.50272 0.50272 0.50272 0.50272 0 0 1-0.50272-0.50272 0.50272 0.50272 0 0 1 0.50272-0.50272 0.50272 0.50272 0 0 1 0.50272 0.50272z"/>
  <path d="m8.0871 15.342a0.50272 0.50272 0 0 1-0.50272 0.50272 0.50272 0.50272 0 0 1-0.50272-0.50272 0.50272 0.50272 0 0 1 0.50272-0.50272 0.50272 0.50272 0 0 1 0.50272 0.50272z"/>
  <path d="m8.4385 19.088a0.50272 0.50272 0 0 1-0.50272 0.50272 0.50272 0.50272 0 0 1-0.50272-0.50272 0.50272 0.50272 0 0 1 0.50272-0.50272 0.50272 0.50272 0 0 1 0.50272 0.50272z"/>
  <path d="m8.6722 17.168a0.50272 0.50272 0 0 1-0.50272 0.50272 0.50272 0.50272 0 0 1-0.50272-0.50272 0.50272 0.50272 0 0 1 0.50272-0.50272 0.50272 0.50272 0 0 1 0.50272 0.50272z"/>
  <path d="m6.8094 19.984a0.50272 0.50272 0 0 1-0.50272 0.50272 0.50272 0.50272 0 0 1-0.50272-0.50272 0.50272 0.50272 0 0 1 0.50272-0.50272 0.50272 0.50272 0 0 1 0.50272 0.50272z"/>
  <path d="m11.432 14.951a0.50272 0.50272 0 0 1-0.50272 0.50272 0.50272 0.50272 0 0 1-0.50272-0.50272 0.50272 0.50272 0 0 1 0.50272-0.50272 0.50272 0.50272 0 0 1 0.50272 0.50272z"/>
  <path d="m11.432 22.42a0.50272 0.50272 0 0 1-0.50272 0.50272 0.50272 0.50272 0 0 1-0.50272-0.50272 0.50272 0.50272 0 0 1 0.50272-0.50272 0.50272 0.50272 0 0 1 0.50272 0.50272z"/>
  <path d="m11.432 20.553a0.50272 0.50272 0 0 1-0.50272 0.50272 0.50272 0.50272 0 0 1-0.50272-0.50272 0.50272 0.50272 0 0 1 0.50272-0.50272 0.50272 0.50272 0 0 1 0.50272 0.50272z"/>
  <path d="m11.432 18.686a0.50272 0.50272 0 0 1-0.50272 0.50272 0.50272 0.50272 0 0 1-0.50272-0.50272 0.50272 0.50272 0 0 1 0.50272-0.50272 0.50272 0.50272 0 0 1 0.50272 0.50272z"/>
  <path d="m11.432 16.818a0.50272 0.50272 0 0 1-0.50272 0.50272 0.50272 0.50272 0 0 1-0.50272-0.50272 0.50272 0.50272 0 0 1 0.50272-0.50272 0.50272 0.50272 0 0 1 0.50272 0.50272z"/>
  <path d="m13.59 22.485a0.50272 0.50272 0 0 1-0.50272 0.50272 0.50272 0.50272 0 0 1-0.50272-0.50272 0.50272 0.50272 0 0 1 0.50272-0.50272 0.50272 0.50272 0 0 1 0.50272 0.50272z"/>
  <path d="m17.489 14.974a0.50272 0.50272 0 0 1-0.50272 0.50272 0.50272 0.50272 0 0 1-0.50272-0.50272 0.50272 0.50272 0 0 1 0.50272-0.50272 0.50272 0.50272 0 0 1 0.50272 0.50272z"/>
  <path d="m16.676 22.487a0.50272 0.50272 0 0 1-0.50272 0.50272 0.50272 0.50272 0 0 1-0.50272-0.50272 0.50272 0.50272 0 0 1 0.50272-0.50272 0.50272 0.50272 0 0 1 0.50272 0.50272z"/>
  <path d="m16.676 20.619a0.50272 0.50272 0 0 1-0.50272 0.50272 0.50272 0.50272 0 0 1-0.50272-0.50272 0.50272 0.50272 0 0 1 0.50272-0.50272 0.50272 0.50272 0 0 1 0.50272 0.50272z"/>
  <path d="m16.676 18.752a0.50272 0.50272 0 0 1-0.50272 0.50272 0.50272 0.50272 0 0 1-0.50272-0.50272 0.50272 0.50272 0 0 1 0.50272-0.50272 0.50272 0.50272 0 0 1 0.50272 0.50272z"/>
  <path d="m16.676 16.857a0.50272 0.50272 0 0 1-0.50272 0.50272 0.50272 0.50272 0 0 1-0.50272-0.50272 0.50272 0.50272 0 0 1 0.50272-0.50272 0.50272 0.50272 0 0 1 0.50272 0.50272z"/>
  <path d="m19.668 15.053a0.50272 0.50272 0 0 1-0.50272 0.50272 0.50272 0.50272 0 0 1-0.50272-0.50272 0.50272 0.50272 0 0 1 0.50272-0.50272 0.50272 0.50272 0 0 1 0.50272 0.50272z"/>
  <path d="m20.416 22.563a0.50272 0.50272 0 0 1-0.50272 0.50272 0.50272 0.50272 0 0 1-0.50272-0.50272 0.50272 0.50272 0 0 1 0.50272-0.50272 0.50272 0.50272 0 0 1 0.50272 0.50272z"/>
  <path d="m20.416 20.695a0.50272 0.50272 0 0 1-0.50272 0.50272 0.50272 0.50272 0 0 1-0.50272-0.50272 0.50272 0.50272 0 0 1 0.50272-0.50272 0.50272 0.50272 0 0 1 0.50272 0.50272z"/>
  <path d="m20.416 18.828a0.50272 0.50272 0 0 1-0.50272 0.50272 0.50272 0.50272 0 0 1-0.50272-0.50272 0.50272 0.50272 0 0 1 0.50272-0.50272 0.50272 0.50272 0 0 1 0.50272 0.50272z"/>
  <path d="m20.416 16.933a0.50272 0.50272 0 0 1-0.50272 0.50272 0.50272 0.50272 0 0 1-0.50272-0.50272 0.50272 0.50272 0 0 1 0.50272-0.50272 0.50272 0.50272 0 0 1 0.50272 0.50272z"/>
  <path d="m18.467 20.649a0.50272 0.50272 0 0 1-0.50272 0.50272 0.50272 0.50272 0 0 1-0.50272-0.50272 0.50272 0.50272 0 0 1 0.50272-0.50272 0.50272 0.50272 0 0 1 0.50272 0.50272z"/>
  <path d="m23.218 14.937a0.50272 0.50272 0 0 1-0.50272 0.50272 0.50272 0.50272 0 0 1-0.50272-0.50272 0.50272 0.50272 0 0 1 0.50272-0.50272 0.50272 0.50272 0 0 1 0.50272 0.50272z"/>
  <path d="m23.345 18.652a0.50272 0.50272 0 0 1-0.50272 0.50272 0.50272 0.50272 0 0 1-0.50272-0.50272 0.50272 0.50272 0 0 1 0.50272-0.50272 0.50272 0.50272 0 0 1 0.50272 0.50272z"/>
  <path d="m23.189 16.805a0.50272 0.50272 0 0 1-0.50272 0.50272 0.50272 0.50272 0 0 1-0.50272-0.50272 0.50272 0.50272 0 0 1 0.50272-0.50272 0.50272 0.50272 0 0 1 0.50272 0.50272z"/>
  <path d="m26.959 15.035a0.50272 0.50272 0 0 1-0.50272 0.50272 0.50272 0.50272 0 0 1-0.50272-0.50272 0.50272 0.50272 0 0 1 0.50272-0.50272 0.50272 0.50272 0 0 1 0.50272 0.50272z"/>
  <path d="m26.959 18.77a0.50272 0.50272 0 0 1-0.50272 0.50272 0.50272 0.50272 0 0 1-0.50272-0.50272 0.50272 0.50272 0 0 1 0.50272-0.50272 0.50272 0.50272 0 0 1 0.50272 0.50272z"/>
  <path d="m26.959 16.903a0.50272 0.50272 0 0 1-0.50272 0.50272 0.50272 0.50272 0 0 1-0.50272-0.50272 0.50272 0.50272 0 0 1 0.50272-0.50272 0.50272 0.50272 0 0 1 0.50272 0.50272z"/>
  <path d="m24.888 19.853a0.50272 0.50272 0 0 1-0.50272 0.50272 0.50272 0.50272 0 0 1-0.50272-0.50272 0.50272 0.50272 0 0 1 0.50272-0.50272 0.50272 0.50272 0 0 1 0.50272 0.50272z"/>
  <path d="m26.912 20.618a0.50272 0.50272 0 0 1-0.50272 0.50272 0.50272 0.50272 0 0 1-0.50272-0.50272 0.50272 0.50272 0 0 1 0.50272-0.50272 0.50272 0.50272 0 0 1 0.50272 0.50272z"/>
  <path d="m25.737 24.005a0.50272 0.50272 0 0 1-0.50272 0.50272 0.50272 0.50272 0 0 1-0.50272-0.50272 0.50272 0.50272 0 0 1 0.50272-0.50272 0.50272 0.50272 0 0 1 0.50272 0.50272z"/>
  <path d="m26.912 22.486a0.50272 0.50272 0 0 1-0.50272 0.50272 0.50272 0.50272 0 0 1-0.50272-0.50272 0.50272 0.50272 0 0 1 0.50272-0.50272 0.50272 0.50272 0 0 1 0.50272 0.50272z"/>
  <path d="m23.895 23.894a0.50272 0.50272 0 0 1-0.50272 0.50272 0.50272 0.50272 0 0 1-0.50272-0.50272 0.50272 0.50272 0 0 1 0.50272-0.50272 0.50272 0.50272 0 0 1 0.50272 0.50272z"/>
 </g>
</svg>
