<svg width="116.69" height="271.51" version="1.1" viewBox="0 0 30.874 71.838" xmlns="http://www.w3.org/2000/svg">
 <defs>
  <linearGradient id="linearGradient1531" x1="-71.75" x2="-.56079" y1="12.309" y2="15.417" gradientUnits="userSpaceOnUse">
   <stop stop-color="#d4bc72" offset="0"/>
   <stop stop-color="#e2d09f" offset=".5"/>
   <stop stop-color="#d4bc72" offset="1"/>
  </linearGradient>
 </defs>
 <g transform="translate(-101.62 -74.11)">
  <path transform="rotate(-97.5)" d="m-159.18 90.941c0 4.0927-0.53644 8.1679-1.5957 12.121l69.004 18.488c2.675-9.9834 4.0293-20.274 4.0293-30.609h-71.437z"/>
 </g>
 <text fill="black" font-family="sans-serif" font-size="10.583px" letter-spacing="0px" word-spacing="0px" style="line-height:1.25;shape-inside:url(#rect2970);white-space:pre" xml:space="preserve"/>
 <path transform="rotate(-92.5)" d="m-36.28 10.263a82.551 82.551 0 0 1-0.31413 7.1948" fill="#fffffe" stroke="url(#linearGradient1531)" stroke-width="71.438"/>
 <g fill="#fffffe">
  <g transform="matrix(.70472 -.061659 .12321 1.4082 -4.6317 -7.3375)" aria-label=" B A N K R U P T">
   <path d="m14.248 9.0007c-1.7735-0.00163-3.5471-8.454e-4 -5.3206-1e-3v1.5552c0.27671 0.01278 0.60319 0.07818 0.74926 0.34201 0.14871 0.31568 0.064593 0.67331 0.087034 1.0086-0.00586 0.7131 0.012685 1.4269-0.011005 2.1395-0.030233 0.27089-0.2591 0.49644-0.52844 0.5307-0.097694 0.02064-0.19714 0.03293-0.29684 0.03764v1.555c1.9265-0.0039 3.8531 0.0085 5.7794-0.0078 0.58587-0.02438 1.2075-0.11035 1.6977-0.46114 0.25476-0.17928 0.44571-0.45522 0.4846-0.76833 0.09876-0.50052 0.09382-1.0546-0.16861-1.5067-0.28634-0.46249-0.8473-0.68151-1.3685-0.70593-0.10714-0.0062-0.21444-0.0089-0.32165-0.01361 0.04332-0.11667-0.04145-0.26181 0.05119-0.36033 0.07884-0.05759 0.18559-0.02124 0.27647-0.04752 0.44593-0.06174 0.91906-0.25113 1.1583-0.65481 0.23842-0.41994 0.2598-0.92867 0.18609-1.3896-0.032898-0.26153-0.11074-0.52846-0.30016-0.72118-0.31878-0.35575-0.81954-0.47613-1.2691-0.51437-0.28594-0.02554-0.59194-0.019646-0.88513-0.016302zm-1.0448 1.5462c0.22462 0.0057 0.47964-0.0025 0.65457 0.16378 0.29457 0.26741 0.34715 0.72704 0.20936 1.0863-0.09333 0.25096-0.33113 0.45884-0.60861 0.45264-0.34239 0.02224-0.68567-0.0012-1.0284 0.0091v-1.709c0.2578 0.0029 0.5153 6.15e-4 0.7731-0.0028zm-0.04768 2.2686c0.24545 0.0043 0.50391-0.0028 0.7332 0.09711 0.25671 0.12655 0.39018 0.41595 0.39123 0.69305 0.02571 0.30514-0.01853 0.66178-0.27932 0.86042-0.32505 0.2062-0.72364 0.14322-1.0878 0.15028-0.16084 0.0048-0.32184 6.66e-4 -0.48274 2e-3v-1.7999c0.24185 0.0012 0.48359 0.0048 0.72542-3e-3z" style="font-variant-caps:normal;font-variant-east-asian:normal;font-variant-ligatures:normal;font-variant-numeric:normal"/>
   <path d="m10.559 18.298c0.20172 0.0021 0.4507 0.08181 0.5036 0.30186 0.0566 0.3278-0.14804 0.61756-0.2493 0.91413-0.28202 0.68206-0.53916 1.3745-0.84368 2.0468-0.09846 0.20175-0.29005 0.37542-0.52454 0.38008-0.06476 0.0092-0.13034 0.01046-0.19565 0.01154v1.3397h2.4819v-1.3382c-0.21437 0.0073-0.48156-0.02376-0.59165-0.23632-0.11825-0.21027-0.0119-0.44896 0.05828-0.65524 0.0027-0.10032 0.07014-0.11387 0.15779-0.10009h1.5544c0.06403 0.22942 0.20767 0.4758 0.1031 0.71543-0.08498 0.20772-0.32456 0.27958-0.53123 0.2753-0.10272-0.03457-0.07053 0.06478-0.07397 0.12889v1.2102h3.7784v-1.3384c-0.2566 0.0076-0.56106-0.06505-0.68233-0.31669-0.22848-0.46787-0.39789-0.96122-0.60014-1.4405-0.17978-0.45334-0.3824-0.89879-0.53576-1.3618-0.05267-0.20768 0.06409-0.46551 0.28979-0.50185 0.07119-0.02013 0.14491-0.02917 0.21862-0.03307v-1.3419h-4.3176v1.3402zm1.5628 0.55906c0.14569 0.01397 0.14934 0.1859 0.19196 0.29132 0.15712 0.48296 0.31457 0.96581 0.47148 1.4488h-1.4395c0.19761-0.57769 0.39537-1.1553 0.59268-1.7331 0.06202 0.0039 0.12231-0.0041 0.18342-7e-3z" style="font-variant-caps:normal;font-variant-east-asian:normal;font-variant-ligatures:normal;font-variant-numeric:normal"/>
   <path d="m9.5884 25.174c0.23673 0.01098 0.51725 0.10715 0.59526 0.35535 0.07463 0.32893 0.01961 0.66962 0.03617 1.0035-0.0096 0.4605 0.02273 0.92316-0.01892 1.3822-0.04921 0.23449-0.28417 0.37746-0.5102 0.39635-0.039039 0.01561-0.12701-0.02358-0.1023 0.04813v1.054h2.3087v-1.093c-0.21025-0.0085-0.4689-0.04805-0.5721-0.2587-0.11139-0.28491-0.03836-0.5969-0.05947-0.89394v-1.3154c0.75832 1.187 1.5166 2.3741 2.2749 3.5611h2.051c0.0037-1.2562-0.0081-2.5127 0.0075-3.7686 0.02365-0.24112 0.23072-0.44902 0.47525-0.46019 0.09857 0.01919 0.06471-0.06325 0.06825-0.13234v-0.97172h-2.1509v1.0928c0.21607 0.0081 0.46759 0.1138 0.51841 0.34602 0.06869 0.33545 0.01508 0.67942 0.03237 1.0186v0.97318c-0.73-1.1436-1.4602-2.2871-2.1903-3.4306h-2.7637v1.0933z" style="font-variant-caps:normal;font-variant-east-asian:normal;font-variant-ligatures:normal;font-variant-numeric:normal"/>
   <path d="m9.8718 31.128c0.2228 0.01095 0.48328 0.12174 0.53445 0.36147 0.05038 0.36025 0.01149 0.72584 0.02221 1.0884-0.0094 0.3422 0.02912 0.68867-0.02671 1.0278-0.06604 0.22618-0.3162 0.33024-0.53396 0.33674-1.542e-4 0.1096 0.015462 0.21922 4e-3 0.32901v0.59614h2.5817v-0.92766c-0.19864-0.01972-0.37999-0.19741-0.35684-0.40508-0.0076-0.19226-0.0011-0.38469-0.0035-0.57704 0.19506-0.11875 0.39023-0.23733 0.58515-0.35631 0.21069 0.28283 0.45916 0.53877 0.64537 0.83884 0.09254 0.20407-0.05843 0.46211-0.27602 0.49407-0.01283 0.11217 0.01268 0.22642-7.69e-4 0.3395v0.59368h2.7411v-0.92816c-0.28879-0.0324-0.50396-0.25858-0.65112-0.49195-0.40672-0.5265-0.8137-1.0528-1.2203-1.5794 0.41463-0.22095 0.79393-0.51166 1.235-0.68 0.09659-0.02898 0.19602-0.04942 0.29659-0.05771v-0.92766h-2.4011c0.0026 0.31615-0.0065 0.63244 0.0045 0.94849 0.20451 0.06298 0.32683 0.33782 0.1852 0.51535-0.15076 0.19942-0.40071 0.27743-0.59584 0.4226-0.18347 0.11383-0.36691 0.2277-0.5504 0.34151 0.01913-0.34709-0.02642-0.69777 0.02653-1.0423 0.04216-0.14756 0.1912-0.23682 0.33631-0.25643v-0.92917h-2.5817v0.92541z" style="font-variant-caps:normal;font-variant-east-asian:normal;font-variant-ligatures:normal;font-variant-numeric:normal"/>
   <path d="m10.146 35.657v0.84712c0.22339 0.01037 0.47923 0.14235 0.50803 0.38599 0.02998 0.57648 0.0019 1.1544 0.01359 1.7314 5e-3 0.19493-0.08464 0.41173-0.28271 0.47705-0.07597 0.03025-0.15761 0.04481-0.23891 0.05131v0.8441h2.4786v-0.84285c-0.21846-0.01592-0.43359-0.19353-0.42371-0.4254-0.01176-0.22603-8.3e-5 -0.45246-0.0046-0.67866 0.25867 0.0012 0.56405-0.03588 0.76532 0.16335 0.20727 0.24365 0.19896 0.58596 0.19684 0.88762-0.0016 0.27625 2.43e-4 0.60035 0.22223 0.80035 0.25924 0.22505 0.62654 0.22955 0.95176 0.22266 0.25614-0.01338 0.50502-0.04997 0.72166-0.19798 0.2072-0.13126 0.28836-0.38181 0.30258-0.6151 0.01677-0.22526-0.0089-0.47532 0.0023-0.70961-0.07747-5e-3 -0.0054 0.06567-0.02343 0.10422-0.01418 0.2462 0.04207 0.50499-0.04508 0.74189-0.12249 0.2491-0.55287 0.2012-0.61376-0.07101-0.04584-0.31108 0.02871-0.66454-0.17439-0.93318-0.18439-0.22509-0.49681-0.24282-0.76481-0.26497 0.0057-0.11707-0.04698-0.27904 0.07277-0.35606 0.0928-0.03516 0.19474 0.0032 0.2907-0.02724 0.27164-0.04185 0.53817-0.21294 0.62166-0.4859 0.13643-0.36928 0.12776-0.80166-0.05583-1.153-0.19836-0.31824-0.59086-0.43276-0.94334-0.47122-0.33658-0.026-0.69076-0.01377-1.0347-0.01966-0.77228 6.66e-4 -1.5455-0.0016-2.3172 0.0038-0.07537 0.01-0.15035-0.01291-0.22558-9e-3zm2.4247 0.83959c0.22378-0.0072 0.49101 0.02942 0.61526 0.24114 0.14151 0.27833 0.14106 0.64243-0.04391 0.90056-0.17066 0.20637-0.46319 0.19228-0.70544 0.18826-0.07903 0.01164-0.19053 0.02736-0.22649-0.06757-0.03867-0.12767-0.0011-0.26518-0.01355-0.39671v-0.86443c0.12471-5.12e-4 0.24943 0.0014 0.37413-0.0013z" style="font-variant-caps:normal;font-variant-east-asian:normal;font-variant-ligatures:normal;font-variant-numeric:normal"/>
   <path d="m10.454 41.67c0.21815 0.01145 0.46182 0.15435 0.47525 0.39294 0.02849 0.60723-0.02077 1.2167 0.02994 1.8228 0.05895 0.44136 0.37306 0.84297 0.80121 0.97965 0.53939 0.2046 1.1375 0.2014 1.6979 0.09492 0.44602-0.10562 0.87628-0.43188 0.97412-0.89824 0.12165-0.51542 0.04097-1.0472 0.06939-1.5735 0.0023-0.2149-0.04419-0.45622 0.07887-0.64754 0.07669-0.10272 0.20563-0.14681 0.32771-0.16561v-0.76356h-1.5996c1.93e-4 0.25427-0.0023 0.50856 0.0017 0.76281 0.21671 0.02494 0.42517 0.21103 0.40556 0.44173-0.0034 0.51995 0.01701 1.041-0.01239 1.5602-0.03929 0.29515-0.30668 0.53838-0.60624 0.54093-0.28572 0.03919-0.62257-0.09997-0.70962-0.39418-0.10184-0.3192-0.03559-0.65755-0.05335-0.98559 0.01004-0.29973-0.03116-0.60497 0.02956-0.90062 0.05297-0.15433 0.21245-0.24387 0.3671-0.26422v-0.76105h-2.2771v0.75804z" style="font-variant-caps:normal;font-variant-east-asian:normal;font-variant-ligatures:normal;font-variant-numeric:normal"/>
   <path d="m10.79 46.495c0.21269 0.01248 0.44455 0.16699 0.43951 0.39981 0.01221 0.51663 0.0091 1.0338 0.0011 1.5504-0.02497 0.21314-0.23778 0.36682-0.44564 0.36033 0.01661 0.22023-1e-3 0.44166 5e-3 0.66299 0.04006 0.03808 0.15145 0.0048 0.2184 0.01601h2.1021v-0.66545c-0.19568 0.0074-0.44085-0.01295-0.54626-0.20551-0.10234-0.18576-0.0519-0.40305-0.067-0.60447 0.54636-0.02049 1.1 0.04604 1.6404-0.05973 0.30016-0.06731 0.5777-0.302 0.61803-0.6192 0.0731-0.36589 0.06229-0.77362-0.13369-1.1008-0.21933-0.31233-0.62764-0.40172-0.98782-0.4079-0.94805-1e-3 -1.8961-2.58e-4 -2.8442-6.66e-4v0.67423zm2.0701-9e-3c0.21084-0.0088 0.46352 0.02867 0.57637 0.23135 0.1553 0.27164 0.1436 0.66454-0.10164 0.87978-0.23799 0.17414-0.54416 0.0836-0.81536 0.11079-0.04652-0.02882-0.0075-0.14782-0.02045-0.21201v-1.0082c0.12036-3.86e-4 0.24074 0.0013 0.36108-0.0017z" style="font-variant-caps:normal;font-variant-east-asian:normal;font-variant-ligatures:normal;font-variant-numeric:normal"/>
   <path d="m11.061 51.395h0.48253c-2.3e-5 -0.21266 0.02747-0.47853 0.23963-0.58791 0.1731-0.08411 0.36996-0.03634 0.55429-0.05194-7e-3 0.64441 0.01304 1.2896-0.01085 1.9335-0.02416 0.19178-0.21616 0.31084-0.3959 0.32707v0.59017h1.9442c-5.64e-4 -0.19672 0.0021-0.39347-0.0015-0.59017-0.20331-0.01466-0.41578-0.17316-0.40169-0.39384-0.01317-0.62141-0.0018-1.243-0.0056-1.8645 0.21921 0.0071 0.48195-0.04841 0.65541 0.12295 0.12507 0.13921 0.13284 0.33723 0.13851 0.51464h0.48228v-1.1191h-3.6813v1.1191z" style="font-variant-caps:normal;font-variant-east-asian:normal;font-variant-ligatures:normal;font-variant-numeric:normal"/>
  </g>
  <g transform="matrix(.70472 .061641 -.12318 1.4082 17.462 -8.8656)" aria-label=" B A N K R U P T">
   <path d="m14.248 9.0007c-1.7735-0.00163-3.5471-8.454e-4 -5.3206-1e-3v1.5552c0.27671 0.01278 0.60319 0.07818 0.74926 0.34201 0.14871 0.31568 0.064593 0.67331 0.087034 1.0086-0.00586 0.7131 0.012685 1.4269-0.011005 2.1395-0.030233 0.27089-0.2591 0.49644-0.52844 0.5307-0.097694 0.02064-0.19714 0.03293-0.29684 0.03764v1.555c1.9265-0.0039 3.8531 0.0085 5.7794-0.0078 0.58587-0.02438 1.2075-0.11035 1.6977-0.46114 0.25476-0.17928 0.44571-0.45522 0.4846-0.76833 0.09876-0.50052 0.09382-1.0546-0.16861-1.5067-0.28634-0.46249-0.8473-0.68151-1.3685-0.70593-0.10714-0.0062-0.21444-0.0089-0.32165-0.01361 0.04332-0.11667-0.04145-0.26181 0.05119-0.36033 0.07884-0.05759 0.18559-0.02124 0.27647-0.04752 0.44593-0.06174 0.91906-0.25113 1.1583-0.65481 0.23842-0.41994 0.2598-0.92867 0.18609-1.3896-0.032898-0.26153-0.11074-0.52846-0.30016-0.72118-0.31878-0.35575-0.81954-0.47613-1.2691-0.51437-0.28594-0.02554-0.59194-0.019646-0.88513-0.016302zm-1.0448 1.5462c0.22462 0.0057 0.47964-0.0025 0.65457 0.16378 0.29457 0.26741 0.34715 0.72704 0.20936 1.0863-0.09333 0.25096-0.33113 0.45884-0.60861 0.45264-0.34239 0.02224-0.68567-0.0012-1.0284 0.0091v-1.709c0.2578 0.0029 0.5153 6.15e-4 0.7731-0.0028zm-0.04768 2.2686c0.24545 0.0043 0.50391-0.0028 0.7332 0.09711 0.25671 0.12655 0.39018 0.41595 0.39123 0.69305 0.02571 0.30514-0.01853 0.66178-0.27932 0.86042-0.32505 0.2062-0.72364 0.14322-1.0878 0.15028-0.16084 0.0048-0.32184 6.66e-4 -0.48274 2e-3v-1.7999c0.24185 0.0012 0.48359 0.0048 0.72542-3e-3z" style="font-variant-caps:normal;font-variant-east-asian:normal;font-variant-ligatures:normal;font-variant-numeric:normal"/>
   <path d="m10.559 18.298c0.20172 0.0021 0.4507 0.08181 0.5036 0.30186 0.0566 0.3278-0.14804 0.61756-0.2493 0.91413-0.28202 0.68206-0.53916 1.3745-0.84368 2.0468-0.09846 0.20175-0.29005 0.37542-0.52454 0.38008-0.06476 0.0092-0.13034 0.01046-0.19565 0.01154v1.3397h2.4819v-1.3382c-0.21437 0.0073-0.48156-0.02376-0.59165-0.23632-0.11825-0.21027-0.0119-0.44896 0.05828-0.65524 0.0027-0.10032 0.07014-0.11387 0.15779-0.10009h1.5544c0.06403 0.22942 0.20767 0.4758 0.1031 0.71543-0.08498 0.20772-0.32456 0.27958-0.53123 0.2753-0.10272-0.03457-0.07053 0.06478-0.07397 0.12889v1.2102h3.7784v-1.3384c-0.2566 0.0076-0.56106-0.06505-0.68233-0.31669-0.22848-0.46787-0.39789-0.96122-0.60014-1.4405-0.17978-0.45334-0.3824-0.89879-0.53576-1.3618-0.05267-0.20768 0.06409-0.46551 0.28979-0.50185 0.07119-0.02013 0.14491-0.02917 0.21862-0.03307v-1.3419h-4.3176v1.3402zm1.5628 0.55906c0.14569 0.01397 0.14934 0.1859 0.19196 0.29132 0.15712 0.48296 0.31457 0.96581 0.47148 1.4488h-1.4395c0.19761-0.57769 0.39537-1.1553 0.59268-1.7331 0.06202 0.0039 0.12231-0.0041 0.18342-7e-3z" style="font-variant-caps:normal;font-variant-east-asian:normal;font-variant-ligatures:normal;font-variant-numeric:normal"/>
   <path d="m9.5884 25.174c0.23673 0.01098 0.51725 0.10715 0.59526 0.35535 0.07463 0.32893 0.01961 0.66962 0.03617 1.0035-0.0096 0.4605 0.02273 0.92316-0.01892 1.3822-0.04921 0.23449-0.28417 0.37746-0.5102 0.39635-0.039039 0.01561-0.12701-0.02358-0.1023 0.04813v1.054h2.3087v-1.093c-0.21025-0.0085-0.4689-0.04805-0.5721-0.2587-0.11139-0.28491-0.03836-0.5969-0.05947-0.89394v-1.3154c0.75832 1.187 1.5166 2.3741 2.2749 3.5611h2.051c0.0037-1.2562-0.0081-2.5127 0.0075-3.7686 0.02365-0.24112 0.23072-0.44902 0.47525-0.46019 0.09857 0.01919 0.06471-0.06325 0.06825-0.13234v-0.97172h-2.1509v1.0928c0.21607 0.0081 0.46759 0.1138 0.51841 0.34602 0.06869 0.33545 0.01508 0.67942 0.03237 1.0186v0.97318c-0.73-1.1436-1.4602-2.2871-2.1903-3.4306h-2.7637v1.0933z" style="font-variant-caps:normal;font-variant-east-asian:normal;font-variant-ligatures:normal;font-variant-numeric:normal"/>
   <path d="m9.8718 31.128c0.2228 0.01095 0.48328 0.12174 0.53445 0.36147 0.05038 0.36025 0.01149 0.72584 0.02221 1.0884-0.0094 0.3422 0.02912 0.68867-0.02671 1.0278-0.06604 0.22618-0.3162 0.33024-0.53396 0.33674-1.542e-4 0.1096 0.015462 0.21922 4e-3 0.32901v0.59614h2.5817v-0.92766c-0.19864-0.01972-0.37999-0.19741-0.35684-0.40508-0.0076-0.19226-0.0011-0.38469-0.0035-0.57704 0.19506-0.11875 0.39023-0.23733 0.58515-0.35631 0.21069 0.28283 0.45916 0.53877 0.64537 0.83884 0.09254 0.20407-0.05843 0.46211-0.27602 0.49407-0.01283 0.11217 0.01268 0.22642-7.69e-4 0.3395v0.59368h2.7411v-0.92816c-0.28879-0.0324-0.50396-0.25858-0.65112-0.49195-0.40672-0.5265-0.8137-1.0528-1.2203-1.5794 0.41463-0.22095 0.79393-0.51166 1.235-0.68 0.09659-0.02898 0.19602-0.04942 0.29659-0.05771v-0.92766h-2.4011c0.0026 0.31615-0.0065 0.63244 0.0045 0.94849 0.20451 0.06298 0.32683 0.33782 0.1852 0.51535-0.15076 0.19942-0.40071 0.27743-0.59584 0.4226-0.18347 0.11383-0.36691 0.2277-0.5504 0.34151 0.01913-0.34709-0.02642-0.69777 0.02653-1.0423 0.04216-0.14756 0.1912-0.23682 0.33631-0.25643v-0.92917h-2.5817v0.92541z" style="font-variant-caps:normal;font-variant-east-asian:normal;font-variant-ligatures:normal;font-variant-numeric:normal"/>
   <path d="m10.146 35.657v0.84712c0.22339 0.01037 0.47923 0.14235 0.50803 0.38599 0.02998 0.57648 0.0019 1.1544 0.01359 1.7314 5e-3 0.19493-0.08464 0.41173-0.28271 0.47705-0.07597 0.03025-0.15761 0.04481-0.23891 0.05131v0.8441h2.4786v-0.84285c-0.21846-0.01592-0.43359-0.19353-0.42371-0.4254-0.01176-0.22603-8.3e-5 -0.45246-0.0046-0.67866 0.25867 0.0012 0.56405-0.03588 0.76532 0.16335 0.20727 0.24365 0.19896 0.58596 0.19684 0.88762-0.0016 0.27625 2.43e-4 0.60035 0.22223 0.80035 0.25924 0.22505 0.62654 0.22955 0.95176 0.22266 0.25614-0.01338 0.50502-0.04997 0.72166-0.19798 0.2072-0.13126 0.28836-0.38181 0.30258-0.6151 0.01677-0.22526-0.0089-0.47532 0.0023-0.70961-0.07747-5e-3 -0.0054 0.06567-0.02343 0.10422-0.01418 0.2462 0.04207 0.50499-0.04508 0.74189-0.12249 0.2491-0.55287 0.2012-0.61376-0.07101-0.04584-0.31108 0.02871-0.66454-0.17439-0.93318-0.18439-0.22509-0.49681-0.24282-0.76481-0.26497 0.0057-0.11707-0.04698-0.27904 0.07277-0.35606 0.0928-0.03516 0.19474 0.0032 0.2907-0.02724 0.27164-0.04185 0.53817-0.21294 0.62166-0.4859 0.13643-0.36928 0.12776-0.80166-0.05583-1.153-0.19836-0.31824-0.59086-0.43276-0.94334-0.47122-0.33658-0.026-0.69076-0.01377-1.0347-0.01966-0.77228 6.66e-4 -1.5455-0.0016-2.3172 0.0038-0.07537 0.01-0.15035-0.01291-0.22558-9e-3zm2.4247 0.83959c0.22378-0.0072 0.49101 0.02942 0.61526 0.24114 0.14151 0.27833 0.14106 0.64243-0.04391 0.90056-0.17066 0.20637-0.46319 0.19228-0.70544 0.18826-0.07903 0.01164-0.19053 0.02736-0.22649-0.06757-0.03867-0.12767-0.0011-0.26518-0.01355-0.39671v-0.86443c0.12471-5.12e-4 0.24943 0.0014 0.37413-0.0013z" style="font-variant-caps:normal;font-variant-east-asian:normal;font-variant-ligatures:normal;font-variant-numeric:normal"/>
   <path d="m10.454 41.67c0.21815 0.01145 0.46182 0.15435 0.47525 0.39294 0.02849 0.60723-0.02077 1.2167 0.02994 1.8228 0.05895 0.44136 0.37306 0.84297 0.80121 0.97965 0.53939 0.2046 1.1375 0.2014 1.6979 0.09492 0.44602-0.10562 0.87628-0.43188 0.97412-0.89824 0.12165-0.51542 0.04097-1.0472 0.06939-1.5735 0.0023-0.2149-0.04419-0.45622 0.07887-0.64754 0.07669-0.10272 0.20563-0.14681 0.32771-0.16561v-0.76356h-1.5996c1.93e-4 0.25427-0.0023 0.50856 0.0017 0.76281 0.21671 0.02494 0.42517 0.21103 0.40556 0.44173-0.0034 0.51995 0.01701 1.041-0.01239 1.5602-0.03929 0.29515-0.30668 0.53838-0.60624 0.54093-0.28572 0.03919-0.62257-0.09997-0.70962-0.39418-0.10184-0.3192-0.03559-0.65755-0.05335-0.98559 0.01004-0.29973-0.03116-0.60497 0.02956-0.90062 0.05297-0.15433 0.21245-0.24387 0.3671-0.26422v-0.76105h-2.2771v0.75804z" style="font-variant-caps:normal;font-variant-east-asian:normal;font-variant-ligatures:normal;font-variant-numeric:normal"/>
   <path d="m10.79 46.495c0.21269 0.01248 0.44455 0.16699 0.43951 0.39981 0.01221 0.51663 0.0091 1.0338 0.0011 1.5504-0.02497 0.21314-0.23778 0.36682-0.44564 0.36033 0.01661 0.22023-1e-3 0.44166 5e-3 0.66299 0.04006 0.03808 0.15145 0.0048 0.2184 0.01601h2.1021v-0.66545c-0.19568 0.0074-0.44085-0.01295-0.54626-0.20551-0.10234-0.18576-0.0519-0.40305-0.067-0.60447 0.54636-0.02049 1.1 0.04604 1.6404-0.05973 0.30016-0.06731 0.5777-0.302 0.61803-0.6192 0.0731-0.36589 0.06229-0.77362-0.13369-1.1008-0.21933-0.31233-0.62764-0.40172-0.98782-0.4079-0.94805-1e-3 -1.8961-2.58e-4 -2.8442-6.66e-4v0.67423zm2.0701-9e-3c0.21084-0.0088 0.46352 0.02867 0.57637 0.23135 0.1553 0.27164 0.1436 0.66454-0.10164 0.87978-0.23799 0.17414-0.54416 0.0836-0.81536 0.11079-0.04652-0.02882-0.0075-0.14782-0.02045-0.21201v-1.0082c0.12036-3.86e-4 0.24074 0.0013 0.36108-0.0017z" style="font-variant-caps:normal;font-variant-east-asian:normal;font-variant-ligatures:normal;font-variant-numeric:normal"/>
   <path d="m11.061 51.395h0.48253c-2.3e-5 -0.21266 0.02747-0.47853 0.23963-0.58791 0.1731-0.08411 0.36996-0.03634 0.55429-0.05194-7e-3 0.64441 0.01304 1.2896-0.01085 1.9335-0.02416 0.19178-0.21616 0.31084-0.3959 0.32707v0.59017h1.9442c-5.64e-4 -0.19672 0.0021-0.39347-0.0015-0.59017-0.20331-0.01466-0.41578-0.17316-0.40169-0.39384-0.01317-0.62141-0.0018-1.243-0.0056-1.8645 0.21921 0.0071 0.48195-0.04841 0.65541 0.12295 0.12507 0.13921 0.13284 0.33723 0.13851 0.51464h0.48228v-1.1191h-3.6813v1.1191z" style="font-variant-caps:normal;font-variant-east-asian:normal;font-variant-ligatures:normal;font-variant-numeric:normal"/>
  </g>
 </g>
 <g transform="matrix(1.3745 0 0 2.2375 12.291 -14.225)" stroke-width=".57023" aria-label=" 1 0 0 0 0">
  <path d="m1.9066 12.979c-0.10503 0.33864-0.45114 0.53686-0.78429 0.58874-0.039487 0.02072-0.12942-0.01905-0.10895 0.05108v0.60517h0.68698c-0.00865 0.66441 0.017543 1.3301-0.017325 1.9936-0.053178 0.26997-0.32595 0.48019-0.60144 0.45234 0.00657 0.25408-3.929e-4 0.50873 0.00208 0.7631h2.5463v-0.76404c-0.22797 0.0021-0.4956-0.0949-0.56963-0.33207-0.090738-0.25938-0.025883-0.53761-0.046819-0.80537v-2.554c-0.36898 4.65e-4 -0.73797-0.0012-1.1069 0.0013z"/>
  <path d="m2.172 18.09c-0.59322 0.01876-1.2087 0.26367-1.5618 0.75813-0.32014 0.43004-0.43258 0.97941-0.41376 1.5073 0.008427 0.5809 0.20196 1.1874 0.64433 1.5834 0.39575 0.36592 0.95038 0.50608 1.4783 0.5038 0.43941-0.01062 0.90088-0.11668 1.2653-0.38176 0.36323-0.2606 0.61015-0.66177 0.71142-1.0946 0.12558-0.47929 0.11097-0.99252-0.015705-1.4615-0.13706-0.5129-0.48617-0.98054-0.97699-1.2006-0.35379-0.16778-0.74166-0.22977-1.1312-0.21408zm0.091723 0.5196c0.33383-0.02119 0.63953 0.2564 0.68243 0.57964 0.1279 0.54904 0.095904 1.1182 0.07395 1.6767-0.024832 0.28274-0.059416 0.58469-0.22814 0.822-0.24537 0.30329-0.77492 0.31071-1.0119-7e-3 -0.17721-0.2281-0.19161-0.5309-0.22321-0.80646-0.031957-0.45264-0.028148-0.90902 0.013243-1.361 0.031902-0.24318 0.07071-0.50923 0.24019-0.69874 0.11726-0.12374 0.28262-0.20062 0.45348-0.20509z"/>
  <path d="m2.1876 23.1c-0.53873 0.01425-1.0869 0.26777-1.3817 0.73073-0.32159 0.48121-0.38331 1.0933-0.32203 1.6528 0.055673 0.56598 0.34447 1.1404 0.85431 1.4234 0.43223 0.2378 0.96131 0.28909 1.4371 0.17603 0.45263-0.09134 0.85127-0.39375 1.0733-0.79695 0.19527-0.36799 0.27714-0.80705 0.26632-1.228-0.01298-0.43973-0.10709-0.89056-0.36644-1.2595-0.33963-0.50814-0.96717-0.73079-1.5609-0.69852zm0.10313 0.45604c0.31917-0.0085 0.57796 0.28443 0.60573 0.58879 0.10788 0.52508 0.079674 1.0657 0.053364 1.5974-0.026507 0.27037-0.060456 0.56998-0.25379 0.77776-0.23833 0.23252-0.68246 0.212-0.87372-0.07028-0.17682-0.24107-0.17596-0.55488-0.20422-0.83988-0.026682-0.47113-0.022228-0.94692 0.047169-1.4142 0.039333-0.24397 0.15911-0.5082 0.40689-0.59842 0.069474-0.02731 0.14392-0.04159 0.21859-0.04122z"/>
  <path d="m2.1986 27.797c-0.56228 0.0092-1.1242 0.34419-1.3444 0.87128-0.2276 0.49564-0.24059 1.0751-0.13245 1.5915 0.10527 0.48693 0.42593 0.94831 0.9023 1.13 0.56636 0.22014 1.2622 0.15337 1.729-0.24395 0.40185-0.35337 0.56127-0.90559 0.56709-1.426 0.012148-0.45694-0.078929-0.93359-0.34984-1.3145-0.20322-0.30234-0.55593-0.50491-0.90794-0.57434-0.15417-0.03002-0.30433-0.041687-0.46373-0.033993zm0.12874 0.39063c0.30149 0.0141 0.51577 0.30698 0.53678 0.59094 0.093015 0.52408 0.070229 1.0609 0.028564 1.589-0.030458 0.24552-0.089611 0.53049-0.31432 0.6726-0.25773 0.16332-0.65501 0.06704-0.77602-0.22276-0.14183-0.2884-0.12756-0.6193-0.14781-0.93204-0.00886-0.42811-0.00985-0.86402 0.097108-1.2812 0.072965-0.22546 0.27827-0.42523 0.52728-0.41577 0.016143-2.4e-4 0.032285-4.78e-4 0.048417-7.16e-4z"/>
  <path d="m2.2146 32.171c-0.50771 0.0093-0.96548 0.38659-1.1171 0.86403-0.1901 0.50899-0.18544 1.0674-0.069386 1.5905 0.10562 0.42575 0.37985 0.84536 0.81081 0.99242 0.48898 0.18168 1.0993 0.04762 1.4193-0.37846 0.30422-0.39577 0.38146-0.91381 0.37115-1.4022-0.016493-0.47493-0.13097-0.9839-0.4791-1.3297-0.24192-0.24817-0.59498-0.35399-0.93562-0.3366zm0.055181 0.34151c0.27429-0.01281 0.48195 0.24508 0.514 0.49895 0.095948 0.55197 0.076905 1.1171 0.029079 1.6729-0.02643 0.23203-0.096823 0.50365-0.32164 0.61886-0.23023 0.1146-0.54673-3.58e-4 -0.63075-0.24891-0.14193-0.32373-0.1124-0.68613-0.13053-1.0309-0.00405-0.39764-0.0058-0.80607 0.11522-1.1885 0.072779-0.17038 0.23227-0.31618 0.42462-0.32242z"/>
 </g>
 <g aria-label="$">
  <path d="m14.904 11.907q-0.45476-0.10852-0.94053-0.38241v0.36174h-1.3436v-2.2325h1.3436q0.11369 0.48577 0.47026 0.75966t0.801 0.27389q0.3049 0 0.44442-0.11369 0.1447-0.11886 0.1447-0.25322 0-0.22221-0.24288-0.34624t-0.60462-0.22221q-0.35657-0.098187-0.78033-0.21704-0.42375-0.11886-0.78549-0.34624-0.35657-0.22738-0.60462-0.59429-0.24288-0.37208-0.24288-0.9767 0-0.44442 0.19121-0.78033 0.1912-0.34107 0.5116-0.57362 0.32557-0.23255 0.74932-0.35657 0.42375-0.12919 0.88885-0.12919v-0.86818h1.049v0.99737q0.25322 0.072348 0.45476 0.16537 0.20154 0.087851 0.3359 0.17053v-0.37208h1.3591v2.1808h-1.3591q-0.03101-0.21188-0.14986-0.38758-0.11369-0.18087-0.27906-0.3049-0.1602-0.12919-0.36174-0.20154-0.20154-0.077516-0.40308-0.077516-0.25322 0-0.41859 0.098187-0.16537 0.093019-0.16537 0.27389 0 0.22221 0.24805 0.34107 0.25322 0.11369 0.61496 0.21704 0.36691 0.098187 0.801 0.22221 0.43409 0.11886 0.79583 0.34624 0.36691 0.22738 0.61496 0.60979 0.24805 0.37724 0.24805 0.9922 0 0.45476-0.19121 0.79066-0.18604 0.33074-0.5116 0.55295-0.3204 0.22221-0.74415 0.3359-0.42375 0.10852-0.88885 0.12919v0.84751h-1.049z" stroke-width=".26459"/>
 </g>
</svg>
