<svg width="91.683" height="66.805" version="1.1" viewBox="0 0 24.257 17.676" xmlns="http://www.w3.org/2000/svg">
 <g transform="translate(-3.3083 -14.627)">
  <ellipse cx="15.437" cy="23.465" rx="12.129" ry="8.8378" fill="#fff" style="paint-order:markers fill stroke"/>
  <g stroke-width=".26459" aria-label="GIFT">
   <path d="m7.7793 21.012c-0.31344 0-0.61939 0.04864-0.91797 0.14453-0.2942 0.09449-0.55537 0.23987-0.78906 0.44141-0.22791 0.19836-0.41299 0.45375-0.55859 0.77539-0.13964 0.31102-0.21289 0.69496-0.21289 1.1523 0 0.45844 0.069359 0.84355 0.20117 1.1582 0.13615 0.31711 0.31777 0.5717 0.54297 0.76953 0.22957 0.1993 0.49539 0.34494 0.80469 0.43945 0.31415 0.09599 0.64915 0.14453 1.0059 0.14453 0.31399 0 0.58474-0.04692 0.81445-0.13672 0.24196-0.09373 0.42514-0.19864 0.54883-0.31055a0.16727 0.16727 0 0 1 0.26953 0.07031l0.076172 0.22852h0.76758v-1.2441c0-0.1833 0.06913-0.35711 0.21484-0.44531 0.09575-0.05945 0.21672-0.08373 0.35156-0.0957v-0.81446h-2.5723v0.81445c0.13426 0.01128 0.25361 0.03648 0.34766 0.10938 4.8e-4 3.72e-4 0.00147-3.75e-4 0.00195 0 0.11414 0.08817 0.17383 0.23379 0.17383 0.37695v0.18945c0 0.08598-0.043143 0.18647-0.11523 0.24414-0.047656 0.03966-0.10126 0.07097-0.1582 0.09375a0.16727 0.16727 0 0 1-0.00391 0c-0.055549 0.02046-0.11522 0.03639-0.17773 0.04492-0.054212 0.0077-0.10046 0.01172-0.14258 0.01172-0.16248 0-0.31057-0.02931-0.43945-0.09375a0.16727 0.16727 0 0 1-0.00391-2e-3c-0.13194-0.06893-0.23884-0.17927-0.31835-0.31636a0.16727 0.16727 0 0 1-0.00195-0.0039c-0.076372-0.13911-0.12776-0.30517-0.16211-0.50391a0.16727 0.16727 0 0 1-0.00195-0.0039c-0.031836-0.20081-0.046875-0.44066-0.046875-0.72461 0-0.30026 0.023627-0.55372 0.074219-0.76367a0.16727 0.16727 0 0 1 0-2e-3c0.051996-0.20551 0.12469-0.37766 0.22461-0.51367 0.096808-0.13176 0.21657-0.23212 0.35742-0.28906 0.12852-0.0541 0.26728-0.08203 0.41016-0.08203 0.27779 0 0.52451 0.09432 0.69336 0.2832 0.1309 0.14265 0.19866 0.33 0.23242 0.5332h0.90234v-1.541h-0.80273v0.11328a0.16727 0.16727 0 0 1-0.25781 0.14062c-0.047582-0.03028-0.11112-0.06901-0.19141-0.11719a0.16727 0.16727 0 0 1-0.00391-2e-3c-0.068572-0.0431-0.15742-0.08664-0.26562-0.12695a0.16727 0.16727 0 0 1-0.00195 0c-0.10471-0.04102-0.23234-0.07703-0.38086-0.10542-0.14123-0.0274-0.30406-0.04101-0.48828-0.04101z"/>
   <path d="m11.502 21.137v0.98047c0.14113 0.01124 0.26612 0.03629 0.36328 0.09766 0.14118 0.08696 0.20312 0.2556 0.20312 0.43555v1.7422c0 0.17914-0.06295 0.34702-0.20312 0.43555a0.15339 0.15339 0 0 1-2e-3 2e-3c-0.09689 0.05865-0.22149 0.08124-0.36133 0.0918v0.98047h2.8516v-0.98047c-0.13948-0.01068-0.26312-0.03353-0.35938-0.0918a0.15339 0.15339 0 0 1-0.0039-2e-3c-0.13737-0.08911-0.19922-0.25617-0.19922-0.43555v-1.7422c0-0.18122 0.06292-0.35035 0.20312-0.4375 0.09588-0.05994 0.22006-0.08436 0.35938-0.0957v-0.98047z"/>
   <path d="m14.912 21.104v1.0449c0.15109 0.0095 0.2812 0.03328 0.37695 0.09375 0.12915 0.07965 0.1875 0.23467 0.1875 0.4082v1.7422c0 0.17267-0.05879 0.32692-0.1875 0.4082-6.59e-4 6.74e-4 -0.0013 0.0013-2e-3 2e-3 -0.09554 0.05783-0.22499 0.07891-0.375 0.08789v1.0449h3.1289v-1.0352h-0.23047c-0.17819 0-0.32534-0.03694-0.42188-0.14062-6.9e-4 -0.0013-0.0014-0.0026-2e-3 -0.0039-0.08308-0.09586-0.11914-0.22301-0.11914-0.36328v-0.53125c-5.31e-4 -0.0671 0.054-0.12162 0.12109-0.12109h0.97656v-0.36328h-0.97656c-0.0671 0-0.12162-0.054-0.12109-0.12109v-0.99609c-5.31e-4 -0.0671 0.054-0.12162 0.12109-0.12109h0.47852c0.10106 0 0.18786 0.01041 0.26562 0.0332h2e-3c0.08516 0.02232 0.16157 0.07313 0.21289 0.14258 0.05574 0.07036 0.08771 0.15772 0.10352 0.25781 0.01035 0.06384 0.01088 0.15389 0.01367 0.23828h0.97271v-1.707z"/>
   <path d="m20.01 21.082v1.8184h0.93945c0.0011-0.10913 0.0044-0.21758 0.0098-0.30469 0.0073-0.12212 0.02541-0.22369 0.05859-0.30664a0.098714 0.098714 0 0 1 0-2e-3c0.0355-0.08466 0.09223-0.15616 0.16797-0.20117 0.07813-0.04688 0.17177-0.06641 0.27734-0.06641h0.21094a0.098714 0.098714 0 0 1 0.09961 0.09961v2.2734c0 0.1685-0.05642 0.314-0.17774 0.39062-0.09408 0.05848-0.22701 0.08028-0.38476 0.08789v1.0859h2.9609v-1.0859c-0.15779-0.0077-0.28992-0.03048-0.38477-0.08789a0.098714 0.098714 0 0 1-2e-3 0c-0.12132-0.07662-0.17773-0.22213-0.17773-0.39062v-2.2734a0.098714 0.098714 0 0 1 0.09961-0.09961h0.21289c0.10558 0 0.19984 0.01796 0.27734 0.06641 0.07783 0.04491 0.13275 0.11914 0.16602 0.20508 0.03337 0.08413 0.04943 0.18442 0.05664 0.30469 0.0071 0.08727 0.01004 0.19554 0.01172 0.30469h0.93945v-1.8184z"/>
  </g>
  <rect x="16.932" y="23.171" width="1.4494" height=".7843" ry="0" stroke-width=".13229" style="paint-order:markers fill stroke"/>
 </g>
 <ellipse cx="12.129" cy="8.8208" rx="11.192" ry="8.1577" fill="none" stroke="#333" stroke-width=".3175" style="paint-order:markers fill stroke"/>
</svg>
