<svg width="79.857" height="111.21" version="1.1" viewBox="0 0 21.129 29.424" xmlns="http://www.w3.org/2000/svg">
 <g transform="translate(-4.8728 -2.8264)">
  <rect x="4.8725" y="2.8264" width="21.129" height="29.424" ry="3.4659" fill="#d21388" style="paint-order:markers fill stroke"/>
  <rect x="6.654" y="4.7346" width="17.566" height="25.609" ry="2.7974" fill="#d21388" stroke="#bbb" stroke-width=".65591" style="paint-order:markers fill stroke"/>
  <g transform="matrix(.73167 0 -.25241 1.3895 .048616 -.018689)" fill="#9ee243" stroke-width=".26241" aria-label="WILD">
   <path transform="translate(-3.2145,-5.8934)" d="m16.846 15.465a0.2233 0.2233 0 0 0-0.22266 0.22266v0.29883a0.2233 0.2233 0 0 0 0.17383 0.21875l0.35742 0.07813 1.7773 5.0957a0.2233 0.2233 0 0 0 0.21094 0.14844h0.50391a0.2233 0.2233 0 0 0 0.20703-0.14062l1.1465-2.8711 1.1602 2.873a0.2233 0.2233 0 0 0 0.20703 0.13867h0.50391a0.2233 0.2233 0 0 0 0.21289-0.15625l1.5898-5.0898 0.35547-0.07617a0.2233 0.2233 0 0 0 0.17383-0.21875v-0.29883a0.2233 0.2233 0 0 0-0.22266-0.22266h-1.7773a0.2233 0.2233 0 0 0-0.22266 0.22266v0.29883a0.2233 0.2233 0 0 0 0.18945 0.2207l0.43555 0.06641-0.71484 2.4043-1.0488-2.6074a0.2233 0.2233 0 0 0-0.20703-0.13867h-0.51172a0.2233 0.2233 0 0 0-0.20703 0.13867l-1.0664 2.6621-0.88086-2.4629 0.37891-0.0625a0.2233 0.2233 0 0 0 0.18555-0.2207v-0.29883a0.2233 0.2233 0 0 0-0.22266-0.22266z"/>
   <path transform="translate(.96462 7.193)" d="m21.213 2.377a0.22533 0.22533 0 0 0-0.22461 0.22461v0.29883a0.22533 0.22533 0 0 0 0.18945 0.22266l0.51562 0.082031v4.2832l-0.51367 0.078125a0.22533 0.22533 0 0 0-0.19141 0.22266v0.30273a0.22533 0.22533 0 0 0 0.22461 0.22461h2.6992a0.22533 0.22533 0 0 0 0.22461-0.22461v-0.30273a0.22533 0.22533 0 0 0-0.19141-0.22266l-0.51367-0.078125v-4.2832l0.51562-0.082031a0.22533 0.22533 0 0 0 0.18945-0.22266v-0.29883a0.22533 0.22533 0 0 0-0.22461-0.22461z"/>
   <path transform="translate(-3.6946,-6.3599)" d="m29 15.941a0.21386 0.21386 0 0 0-0.21289 0.21289v0.29883a0.21386 0.21386 0 0 0 0.17969 0.21094l0.52148 0.08008v4.3066l-0.52539 0.08398a0.21386 0.21386 0 0 0-0.17969 0.21094v0.29883a0.21386 0.21386 0 0 0 0.21289 0.21289h4.9414a0.21386 0.21386 0 0 0 0.21289-0.19336l0.15625-1.6582a0.21386 0.21386 0 0 0-0.21289-0.23242h-0.36914a0.21386 0.21386 0 0 0-0.20508 0.15234l-0.29492 1.002c-0.25139 0.04039-0.59963 0.07031-1.1172 0.07031h-0.9043v-4.25l0.66211-0.08203a0.21386 0.21386 0 0 0 0.18555-0.21289v-0.29883a0.21386 0.21386 0 0 0-0.21289-0.21289z"/>
   <path transform="translate(-8.9213,1.4219)" d="m39.562 8.1738a0.21027 0.21027 0 0 0-0.21094 0.21094v0.29883a0.21027 0.21027 0 0 0 0.17969 0.20703l0.52344 0.080078v4.3145l-0.52539 0.08399a0.21027 0.21027 0 0 0-0.17774 0.20703v0.29882a0.21027 0.21027 0 0 0 0.21094 0.21094h0.94141l1.8359 0.01562a0.21027 0.21027 0 0 0 2e-3 0c0.94673 0 1.6933-0.24282 2.1934-0.75195 0.50016-0.51228 0.73633-1.2749 0.73633-2.25 0-0.95317-0.25084-1.7011-0.77539-2.1953-0.52253-0.49818-1.3091-0.73046-2.3262-0.73046zm2.2012 0.87305h0.0918c0.61239 0 1.0039 0.16386 1.2461 0.47461 0.24402 0.31078 0.38867 0.84546 0.38867 1.6113 0 0.56995-0.04674 1.0096-0.13281 1.3047-0.08629 0.29337-0.21562 0.4832-0.37891 0.60352a0.21027 0.21027 0 0 0 0 2e-3c-0.15828 0.11818-0.39074 0.1875-0.71484 0.1875-0.14812 0-0.32501-0.01219-0.5-0.02344z"/>
  </g>
 </g>
</svg>
